{
.appVersion = "3260";
.formatVersion = 3;
classes = (
{
automatic = 1;
code = "A Aacute Abreve Acircumflex Adieresis Agrave Amacron Aogonek Aring Atilde AE B C Cacute Ccaron Ccedilla Cdotaccent D Dcaron Dcroat Eth E Eacute Ecaron Ecircumflex Edieresis Edotaccent Egrave Emacron Eogonek Etilde F G Gbreve Gcommaaccent Gdotaccent Gmacron H I IJ Iacute Icircumflex Idieresis Idotaccent Igrave Imacron Iogonek Itilde J Jacute K Kcommaaccent L Lacute Lcaron Lcommaaccent Lslash M N Nacute Ncaron Ncommaaccent Ntilde O Oacute Ocircumflex Odieresis Ograve Ohungarumlaut Omacron Oslash Otilde OE P Q R Racute Rcaron Rcommaaccent S Sacute Scaron Scedilla Scommaaccent Germandbls T Tcaron Tcedilla Tcommaaccent U Uacute Ucircumflex Udieresis Ugrave Uhungarumlaut Umacron Uogonek Uring Utilde V W Wacute Wcircumflex Wdieresis Wgrave X Y Yacute Ycircumflex Ydieresis Ygrave Ytilde Z Zacute Zcaron Zdotaccent Lcommaaccent.loclMAH Ncommaaccent.loclMAH F_A F_a";
name = Uppercase;
}
);
customParameters = (
{
name = panose;
value = (
4,
1,
1,
5,
7,
1,
2,
1,
1,
0
);
}
);
date = "2023-10-20 01:51:10 +0000";
familyName = "Augmented Neo-Eorzean";
featurePrefixes = (
{
automatic = 1;
code = "languagesystem DFLT dflt;

languagesystem latn dflt;
languagesystem latn AZE;
languagesystem latn CRT;
languagesystem latn KAZ;
languagesystem latn TAT;
languagesystem latn TRK;
languagesystem latn ROM;
languagesystem latn MOL;
languagesystem latn MAH;
languagesystem latn NLD;
";
name = Languagesystems;
}
);
features = (
{
code = "feature locl;
feature lnum;
feature onum;
feature case;
feature swsh;
feature pnum;
feature tnum;
feature c2sc;
feature smcp;
feature salt;
feature liga;
feature dlig;
";
tag = aalt;
},
{
automatic = 1;
code = "lookup ccmp_Other_1 {
	@CombiningTopAccents = [acutecomb brevecomb caroncomb circumflexcomb commaturnedabovecomb dieresiscomb dotaccentcomb gravecomb hungarumlautcomb macroncomb ringcomb tildecomb];
	lookupflag UseMarkFilteringSet @CombiningTopAccents;

glyphs = (
{
glyphname = A;
kernLeft = H;
kernRight = O;
lastChange = "2024-05-29 19:28:53 +0000";
layers = (
{
anchors = (
{
name = ogonek;
pos = (401,-10);
},
{
name = top;
pos = (289,495);
}
);
backgroundImage = {
imagePath = "images/alphabet_03_A.png";
locked = 1;
pos = (-114,-307);
scale = (9.8044,9.8044);
};
layerId = m01;
shapes = (
{
closed = 1;
nodes = (
(232,383,o),
(282,431,o),
(356,431,cs),
(415,431,o),
(459,410,o),
(486,386,cs),
(490,383,o),
(493,386,o),
(494,388,cs),
(511,411,o),
(537,439,o),
(555,449,cs),
(559,451,o),
(565,451,o),
(559,456,cs),
(532,478,o),
(484,501,o),
(422,501,cs),
(311,501,o),
(218,407,o),
(165,344,c),
(165,319,l)
);
},
{
closed = 1;
nodes = (
(168,44,o),
(172,49,o),
(183,49,cs),
(208,49,o),
(270,-27,o),
(350,-27,cs),
(429,-27,o),
(567,52,o),
(567,142,cs),
(567,227,o),
(483,307,o),
(399,307,cs),
(350,307,o),
(214,214,o),
(165,199,c),
(165,31,l)
);
},
{
closed = 1;
nodes = (
(168,163,l),
(217,178,o),
(308,244,o),
(345,244,cs),
(387,244,o),
(428,196,o),
(446,154,cs),
(481,71,o),
(458,31,o),
(371,31,cs),
(294,31,o),
(210,142,o),
(168,190,c)
);
},
{
alignment = -1;
pos = (-3,0);
ref = _smart.verticalBar;
}
);
width = 597;
},
{
associatedMasterId = m01;
backgroundImage = {
imagePath = "images/alphabet_03_A.png";
locked = 1;
pos = (-114,-307);
scale = (9.8044,9.8044);
};
layerId = "1886D1E6-E39A-4213-8287-9C1CEC423F9A";
name = ref;
shapes = (
{
alignment = -1;
pos = (-179,0);
ref = I;
}
);
width = 239;
}
);
metricLeft = h;
metricRight = a;
unicode = 65;
},
{
color = 4;
glyphname = AE;
kernLeft = H;
kernRight = O;
lastChange = "2024-05-28 21:43:54 +0000";
layers = (
{
annotations = (
{
pos = (337.749,633.64);
text = "can't figure out a good ligature ; ;";
type = Text;
}
);
layerId = m01;
shapes = (
{
closed = 1;
nodes = (
(277,401,o),
(395,447,o),
(496,447,cs),
(642,447,o),
(718,350,o),
(718,212,cs),
(718,102,o),
(670,11,o),
(580,11,cs),
(545,11,o),
(499,25,o),
(461,86,c),
(387,15,l),
(427,-6,o),
(489,-37,o),
(555,-37,cs),
(699,-37,o),
(812,111,o),
(812,265,cs),
(812,416,o),
(702,490,o),
(550,490,cs),
(431,490,o),
(270,444,o),
(165,319,c),
(165,294,l)
);
},
{
closed = 1;
nodes = (
(168,44,o),
(172,49,o),
(183,49,cs),
(208,49,o),
(219,-27,o),
(299,-27,cs),
(378,-27,o),
(494,52,o),
(494,142,cs),
(494,227,o),
(432,307,o),
(348,307,cs),
(299,307,o),
(214,214,o),
(165,199,c),
(165,31,l)
);
},
{
closed = 1;
nodes = (
(168,163,l),
(217,178,o),
(257,244,o),
(294,244,cs),
(336,244,o),
(377,196,o),
(395,154,cs),
(430,71,o),
(407,31,o),
(320,31,cs),
(243,31,o),
(210,142,o),
(168,190,c)
);
},
{
alignment = -1;
pos = (-3,0);
ref = _smart.verticalBar;
},
{
alignment = -1;
piece = {
length = 81.95009;
};
pos = (227,-3);
ref = _smart.horizontalBar;
}
);
width = 842;
}
);
metricLeft = A;
metricRight = E;
unicode = 198;
},
{
glyphname = B;
kernLeft = O;
kernRight = O;
lastChange = "2023-10-21 09:17:32 +0000";
layers = (
{
backgroundImage = {
imagePath = "images/alphabet_04_B.png";
locked = 1;
pos = (-43,-284);
scale = (9.8,9.8);
};
layerId = m01;
shapes = (
{
closed = 1;
nodes = (
(252,127,l),
(427,127,o),
(554,235,o),
(554,364,cs),
(554,446,o),
(473,513,o),
(396,513,cs),
(230,513,o),
(30,319,o),
(30,126,cs),
(30,0,o),
(120,-35,o),
(200,-35,cs),
(333,-35,o),
(472,89,o),
(501,123,cs),
(517,141,o),
(512,149,o),
(508,149,cs),
(505,149,o),
(499,135,o),
(482,120,cs),
(407,53,o),
(342,31,o),
(275,31,cs),
(165,31,o),
(127,127,o),
(127,203,cs),
(127,297,o),
(193,389,o),
(241,433,cs),
(281,469,o),
(310,480,o),
(351,480,cs),
(415,480,o),
(456,413,o),
(456,343,cs),
(456,239,o),
(402,153,o),
(276,153,c)
);
},
{
piece = {
flatEnd = 62.18567;
length = 34.79373;
};
pos = (246,155);
ref = _smart.verticalBar_noStart.noSerif;
}
);
width = 584;
}
);
metricLeft = b;
metricRight = b;
unicode = 66;
},
{
glyphname = C;
kernLeft = O;
kernRight = C;
lastChange = "2024-05-29 21:57:21 +0000";
layers = (
{
anchors = (
{
name = ogonek;
pos = (471,0);
},
{
name = top;
pos = (333,480);
}
);
backgroundImage = {
imagePath = "images/alphabet_05_C.png";
locked = 1;
pos = (-88,-326);
scale = (9.8,9.8);
};
layerId = m01;
shapes = (
{
closed = 1;
nodes = (
(383,461,l),
(383,-30,l),
(471,0,l),
(470,504,l)
);
},
{
closed = 1;
nodes = (
(30,31,o),
(245,-43,o),
(354,-43,cs),
(421,-43,o),
(444,-11,o),
(471,0,c),
(365,18,o),
(144,70,o),
(144,205,cs),
(144,345,o),
(392,469,o),
(470,469,c),
(470,504,l),
(394,478,o),
(30,388,o),
(30,185,cs)
);
}
);
width = 531;
}
);
metricLeft = B;
metricRight = i;
unicode = 67;
},
{
glyphname = D;
kernLeft = O;
kernRight = D;
lastChange = "2024-05-24 04:28:20 +0000";
layers = (
{
anchors = (
{
name = top;
pos = (307,447);
}
);
backgroundImage = {
imagePath = "images/alphabet_06_D.png";
locked = 1;
pos = (-64,-299);
scale = (9.8,9.8);
};
layerId = m01;
shapes = (
{
closed = 1;
nodes = (
(300,436,l),
(300,-30,l),
(388,0,l),
(387,492,l)
);
},
{
closed = 1;
nodes = (
(30,-29,o),
(201,-43,o),
(295,-43,cs),
(323,-43,o),
(366,-11,o),
(388,0,c),
(279,13,o),
(131,28,o),
(131,141,cs),
(131,281,o),
(316,469,o),
(394,469,cs),
(482,469,o),
(521,334,o),
(526,271,cs),
(527,264,o),
(532,266,o),
(536,273,cs),
(548,294,o),
(580,329,o),
(605,347,cs),
(610,350,o),
(612,354,o),
(611,357,cs),
(582,423,o),
(499,513,o),
(423,513,cs),
(344,513,o),
(30,294,o),
(30,115,cs)
);
}
);
width = 641;
}
);
metricLeft = C;
metricRight = A;
unicode = 68;
},
{
glyphname = E;
kernLeft = E;
kernRight = O;
lastChange = "2024-05-24 04:28:04 +0000";
layers = (
{
anchors = (
{
name = ogonek;
pos = (414,0);
},
{
name = top;
pos = (309,489);
}
);
backgroundImage = {
imagePath = "images/alphabet_07_E.png";
locked = 1;
pos = (-73,-279);
scale = (9.9826,9.9826);
};
layerId = m01;
shapes = (
{
closed = 1;
nodes = (
(460,-37,o),
(599,69,o),
(599,239,cs),
(599,374,o),
(486,490,o),
(378,490,cs),
(289,490,o),
(222,440,o),
(159,440,cs),
(132,440,o),
(113,454,o),
(113,490,cs),
(113,523,o),
(147,540,o),
(146,544,cs),
(145,548,o),
(139,545,o),
(136,544,cs),
(130,542,o),
(64,494,o),
(35,481,cs),
(32,480,o),
(30,477,o),
(30,471,cs),
(30,436,o),
(28,381,o),
(106,381,cs),
(188,381,o),
(252,447,o),
(334,447,cs),
(426,447,o),
(484,301,o),
(484,233,cs),
(484,81,o),
(426,-1,o),
(334,-1,cs),
(254,-1,o),
(197,43,o),
(156,76,cs),
(145,85,o),
(139,75,o),
(136,72,cs),
(127,63,o),
(93,38,o),
(87,34,cs),
(77,28,o),
(70,26,o),
(75,21,cs),
(129,-23,o),
(215,-37,o),
(301,-37,cs)
);
},
{
alignment = -1;
piece = {
length = 123.48406;
};
pos = (-116,-3);
ref = _smart.horizontalBar;
}
);
width = 629;
}
);
metricLeft = B;
metricRight = B;
unicode = 69;
},
{
glyphname = F;
kernLeft = I;
kernRight = F;
lastChange = "2023-10-21 09:13:00 +0000";
layers = (
{
backgroundImage = {
imagePath = "images/alphabet_08_F.png";
locked = 1;
pos = (-80,-289);
scale = (9.8,9.8);
};
layerId = m01;
shapes = (
{
closed = 1;
nodes = (
(52,310,l),
(139,310,l),
(139,369,ls),
(139,434,o),
(201,463,o),
(248,463,cs),
(343,463,o),
(400,381,o),
(419,339,cs),
(422,332,o),
(425,334,o),
(429,340,cs),
(444,361,o),
(472,394,o),
(495,407,cs),
(498,409,o),
(501,411,o),
(497,415,cs),
(468,446,o),
(400,508,o),
(293,508,cs),
(149,508,o),
(52,437,o),
(52,368,cs)
);
},
{
piece = {
flatEnd = 0;
length = 50;
};
pos = (46,31);
ref = _smart.verticalBar_noStart;
}
);
width = 514;
}
);
metricRight = f;
unicode = 70;
},
{
glyphname = H;
kernLeft = H;
kernRight = O;
lastChange = "2024-05-29 19:30:26 +0000";
layers = (
{
backgroundImage = {
imagePath = "images/alphabet_10_H.png";
locked = 1;
pos = (-90,-301);
scale = (9.8,9.8);
};
layerId = m01;
shapes = (
{
alignment = -1;
pos = (-3,0);
ref = _smart.verticalBar;
},
{
closed = 1;
nodes = (
(287,289,o),
(338,323,cs),
(414,373,o),
(489,401,o),
(489,456,cs),
(489,475,o),
(471,490,o),
(453,490,cs),
(431,490,o),
(402,485,o),
(380,480,cs),
(360,476,o),
(332,473,o),
(339,467,cs),
(345,462,o),
(375,461,o),
(380,444,cs),
(383,432,o),
(387,408,o),
(326,352,cs),
(302,330,o),
(243,294,o),
(167,260,c),
(167,211,l),
(184,248,o)
);
},
{
closed = 1;
nodes = (
(284,302,l),
(422,302,o),
(429,216,o),
(429,172,cs),
(429,87,o),
(350,-9,o),
(302,-49,cs),
(294,-55,o),
(296,-63,o),
(308,-56,cs),
(431,13,o),
(545,87,o),
(545,201,cs),
(545,289,o),
(488,348,o),
(360,348,c)
);
}
);
width = 575;
},
{
associatedMasterId = m01;
backgroundImage = {
imagePath = "images/alphabet_10_H.png";
locked = 1;
pos = (-89,-301);
scale = (9.8,9.8);
};
layerId = "9ABF188B-8A91-418C-83D2-C74CB8A26853";
name = ref;
shapes = (
{
alignment = -1;
pos = (-168,0);
ref = I;
}
);
visible = 1;
width = 239;
}
);
metricLeft = A;
metricRight = E;
unicode = 72;
},
{
glyphname = J;
kernLeft = H;
kernRight = J;
lastChange = "2024-05-29 19:31:22 +0000";
layers = (
{
anchors = (
{
name = top;
pos = (106,483);
}
);
backgroundImage = {
imagePath = "images/alphabet_12_J.png";
locked = 1;
pos = (-148,-295);
scale = (9.8,9.8);
};
layerId = m01;
shapes = (
{
alignment = -1;
piece = {
leftSerif = 100;
length = 109.9531;
};
pos = (-128,-2);
ref = _smart.horizontalBar;
},
{
closed = 1;
nodes = (
(92,135,ls),
(92,27,o),
(186,-33,o),
(305,-33,cs),
(443,-33,o),
(530,91,o),
(551,128,cs),
(556,137,o),
(551,139,o),
(543,133,cs),
(490,93,o),
(435,42,o),
(330,42,cs),
(196,42,o),
(179,106,o),
(179,190,cs),
(179,266,l),
(92,209,l)
);
},
{
piece = {
height_l = 27.78432;
};
pos = (-3,0);
ref = _smart.verticalBar.noEndSerif;
}
);
width = 583;
},
{
associatedMasterId = m01;
backgroundImage = {
imagePath = "images/alphabet_12_J.png";
locked = 1;
pos = (-148,-295);
scale = (9.8,9.8);
};
layerId = "2FFA667D-DEF8-46F7-AC11-03FF8E17A3F5";
name = ref;
shapes = (
{
alignment = -1;
pos = (-172,0);
ref = I;
}
);
visible = 1;
width = 239;
}
);
metricLeft = A;
metricRight = D;
unicode = 74;
},
{
glyphname = K;
kernLeft = H;
kernRight = K;
lastChange = "2024-05-29 19:32:04 +0000";
layers = (
{
anchors = (
{
name = bottom;
pos = (284,0);
}
);
backgroundImage = {
imagePath = "images/alphabet_13_K.png";
locked = 1;
pos = (-129,-290);
scale = (9.8,9.8);
};
layerId = m01;
shapes = (
{
closed = 1;
nodes = (
(160,413,l),
(160,324,l),
(179,324,l),
(179,363,o),
(265,445,o),
(337,445,cs),
(397,445,o),
(431,389,o),
(431,345,cs),
(431,261,o),
(381,243,o),
(337,243,c),
(314,228,l),
(324,183,l),
(360,183,o),
(531,226,o),
(531,376,cs),
(531,458,o),
(478,499,o),
(377,499,cs),
(252,499,o),
(179,369,o),
(179,413,c)
);
},
{
alignment = -1;
piece = {
height_l = 28.04313;
};
pos = (-3,0);
ref = _smart.verticalBar;
},
{
closed = 1;
nodes = (
(342,248,ls),
(342,267,o),
(340,267,o),
(327,261,cs),
(292,245,o),
(255,232,o),
(241,228,cs),
(237,227,o),
(241,224,o),
(248,220,cs),
(254,216,o),
(255,199,o),
(255,184,c),
(255,133,l),
(255,88,ls),
(255,19,o),
(186,-23,o),
(124,-43,cs),
(116,-45,o),
(112,-52,o),
(129,-52,cs),
(187,-52,o),
(342,-21,o),
(342,88,cs),
(342,141,l)
);
}
);
width = 561;
},
{
anchors = (
{
name = bottom;
pos = (284,0);
}
);
associatedMasterId = m01;
backgroundImage = {
imagePath = "images/alphabet_13_K.png";
locked = 1;
pos = (-129,-290);
scale = (9.8,9.8);
};
layerId = "356BAF5F-4630-4E14-99C2-98C0B10ADCFF";
name = ref;
shapes = (
{
alignment = -1;
pos = (-161,0);
ref = I;
}
);
visible = 1;
width = 239;
}
);
metricLeft = A;
metricRight = E;
unicode = 75;
},
{
glyphname = L;
kernLeft = L;
kernRight = L;
lastChange = "2024-05-29 19:32:34 +0000";
layers = (
{
anchors = (
{
name = bottom;
pos = (261,-22);
},
{
name = top;
pos = (257,480);
}
);
backgroundImage = {
imagePath = "images/alphabet_14_L.png";
locked = 1;
pos = (-96,-320);
scale = (9.8,9.8);
};
hints = (
{
name = _corner.a;
origin = (0,1);
type = Corner;
}
);
layerId = m01;
shapes = (
{
closed = 1;
nodes = (
(81,21,l),
(24,-35,l),
(371,-35,l),
(396,-35,o),
(486,57,o),
(506,87,cs),
(513,97,o),
(508,100,o),
(493,85,cs),
(472,65,o),
(427,21,o),
(383,21,c)
);
},
{
piece = {
height_l = 64.25437;
};
pos = (122,0);
ref = _smart.verticalBar.noEndSerif;
}
);
width = 539;
},
{
associatedMasterId = m01;
backgroundImage = {
imagePath = "images/alphabet_14_L.png";
locked = 1;
pos = (-96,-320);
scale = (9.8,9.8);
};
layerId = "473A531A-34C3-4031-9742-B8BA803B7EE2";
name = ref;
shapes = (
{
alignment = -1;
pos = (-25,0);
ref = I;
}
);
width = 239;
}
);
metricLeft = A;
metricRight = G;
unicode = 76;
},
{
glyphname = Lslash;
kernLeft = L;
kernRight = L;
lastChange = "2024-05-24 04:46:35 +0000";
layers = (
{
layerId = m01;
shapes = (
{
alignment = -1;
ref = L;
},
{
closed = 1;
nodes = (
(146,126,l),
(440,264,l),
(450,333,l),
(156,195,l)
);
}
);
width = 539;
}
);
unicode = 321;
},
{
glyphname = M;
kernLeft = I;
kernRight = M;
lastChange = "2023-10-24 00:53:44 +0000";
layers = (
{
backgroundImage = {
imagePath = "images/alphabet_15_M.png";
locked = 1;
pos = (-29,-290);
scale = (9.8,9.8);
};
layerId = m01;
shapes = (
{
closed = 1;
nodes = (
(266,-34,o),
(320,24,o),
(348,69,c),
(384,12,o),
(425,-34,o),
(470,-34,cs),
(511,-34,o),
(543,2,o),
(562,30,c),
(592,-10,o),
(625,-34,o),
(661,-34,cs),
(718,-34,o),
(757,34,o),
(767,57,cs),
(771,66,o),
(766,68,o),
(759,62,cs),
(748,53,o),
(730,42,o),
(698,42,cs),
(636,42,o),
(569,198,o),
(506,321,cs),
(443,444,o),
(408,515,o),
(340,515,cs),
(276,515,o),
(261,467,o),
(247,439,c),
(216,489,o),
(192,515,o),
(156,515,cs),
(92,515,o),
(50,454,o),
(50,430,cs),
(50,129,ls),
(50,29,o),
(105,-34,o),
(190,-34,cs)
);
},
{
closed = 1;
nodes = (
(131,435,l),
(162,409,o),
(204,330,o),
(278,192,cs),
(296,158,o),
(317,117,o),
(341,79,c),
(323,63,o),
(288,41,o),
(236,41,cs),
(177,41,o),
(131,71,o),
(131,145,cs)
);
},
{
closed = 1;
nodes = (
(266,438,o),
(278,445,o),
(300,445,cs),
(335,445,o),
(385,368,o),
(431,272,cs),
(473,184,o),
(510,105,o),
(548,50,c),
(538,45,o),
(524,42,o),
(507,42,cs),
(462,42,o),
(383,198,o),
(328,295,cs),
(298,348,o),
(275,392,o),
(255,426,c)
);
}
);
width = 798;
},
{
associatedMasterId = m01;
backgroundImage = {
imagePath = "images/alphabet_15_M.png";
locked = 1;
pos = (-29,-290);
scale = (9.8,9.8);
};
layerId = "28E53CAB-BEC8-484A-8ABD-FA6238A4A5F9";
name = "Before removing overlap";
shapes = (
{
closed = 1;
nodes = (
(131,471,l),
(131,145,l),
(131,71,o),
(177,41,o),
(236,41,cs),
(295,41,o),
(331,69,o),
(347,85,cs),
(352,90,o),
(358,87,o),
(353,78,cs),
(328,33,o),
(272,-34,o),
(190,-34,cs),
(105,-34,o),
(50,29,o),
(50,129,c),
(50,430,l)
);
},
{
closed = 1;
nodes = (
(257,460,o),
(271,515,o),
(340,515,cs),
(408,515,o),
(443,444,o),
(506,321,cs),
(569,198,o),
(636,42,o),
(698,42,cs),
(730,42,o),
(748,53,o),
(759,62,cs),
(766,68,o),
(771,66,o),
(767,57,cs),
(757,34,o),
(718,-34,o),
(661,-34,cs),
(574,-34,o),
(512,103,o),
(431,272,cs),
(385,368,o),
(335,445,o),
(300,445,cs),
(276,445,o),
(265,437,o),
(253,423,c),
(244,433,l)
);
},
{
closed = 1;
nodes = (
(50,454,o),
(92,515,o),
(156,515,cs),
(217,515,o),
(246,440,o),
(328,295,cs),
(383,198,o),
(462,42,o),
(507,42,cs),
(539,42,o),
(557,53,o),
(568,62,cs),
(575,68,o),
(580,66,o),
(576,57,cs),
(566,34,o),
(527,-34,o),
(470,-34,cs),
(393,-34,o),
(326,103,o),
(278,192,cs),
(185,364,o),
(144,445,o),
(109,445,cs),
(85,445,o),
(74,437,o),
(62,423,c),
(50,399,l),
(50,430,ls)
);
}
);
width = 798;
}
);
metricLeft = F;
metricRight = J;
unicode = 77;
},
{
glyphname = N;
kernLeft = H;
kernRight = N;
lastChange = "2024-05-29 19:33:12 +0000";
layers = (
{
anchors = (
{
name = bottom;
pos = (339,20);
},
{
name = top;
pos = (313,480);
}
);
backgroundImage = {
imagePath = "images/alphabet_18_N.png";
locked = 1;
pos = (-95,-276);
scale = (9.8,9.8);
};
layerId = m01;
shapes = (
{
closed = 1;
nodes = (
(313,433,ls),
(294,415,o),
(299,409,o),
(322,416,cs),
(332,419,o),
(355,418,o),
(372,407,cs),
(408,384,o),
(464,326,o),
(464,245,cs),
(464,142,o),
(390,113,o),
(340,113,cs),
(246,113,o),
(179,180,o),
(179,294,c),
(142,266,l),
(179,122,l),
(179,203,o),
(191,18,o),
(384,18,cs),
(527,18,o),
(544,129,o),
(544,192,cs),
(544,379,o),
(401,425,o),
(392,429,cs),
(383,433,o),
(379,439,o),
(405,439,c),
(376,495,l)
);
},
{
alignment = -1;
pos = (-3,0);
ref = _smart.verticalBar;
},
{
alignment = -1;
piece = {
leftSerif = 100;
length = 66.62606;
};
pos = (82,224);
ref = _smart.horizontalBar;
}
);
width = 642;
},
{
associatedMasterId = m01;
backgroundImage = {
imagePath = "images/alphabet_18_N.png";
locked = 1;
pos = (-95,-276);
scale = (9.8,9.8);
};
layerId = "521E9CCB-89B3-45F7-94F4-DE84F0DBDD35";
name = ref;
shapes = (
{
alignment = -1;
pos = (-201,0);
ref = I;
}
);
width = 239;
}
);
metricLeft = A;
metricRight = G;
unicode = 78;
},
{
glyphname = O;
kernLeft = O;
kernRight = O;
lastChange = "2024-05-28 21:41:30 +0000";
layers = (
{
anchors = (
{
name = top;
pos = (303,499);
}
);
backgroundImage = {
imagePath = "images/alphabet_19_O.png";
locked = 1;
pos = (-30,-262);
scale = (9.8,9.8);
};
layerId = m01;
shapes = (
{
closed = 1;
nodes = (
(620,237,o),
(577,403,o),
(450,473,cs),
(326,541,o),
(208,507,o),
(122,411,cs),
(41,327,o),
(-16,169,o),
(81,44,cs),
(149,-43,o),
(387,-95,o),
(503,70,cs)
);
},
{
closed = 1;
nodes = (
(393,4,o),
(242,15,o),
(165,115,cs),
(104,195,o),
(83,332,o),
(149,403,cs),
(192,449,o),
(318,442,o),
(397,381,cs),
(490,309,o),
(538,146,o),
(442,52,cs)
);
}
);
width = 601;
}
);
metricLeft = B;
metricRight = E;
unicode = 79;
},
{
color = 4;
glyphname = OE;
kernLeft = O;
kernRight = O;
lastChange = "2024-05-29 20:55:27 +0000";
layers = (
{
annotations = (
{
pos = (420.446,624.315);
text = "can't figure out a good ligature ; ;";
type = Text;
}
);
layerId = m01;
shapes = (
{
alignment = -1;
piece = {
length = 73.70164;
};
pos = (365,-3);
ref = _smart.horizontalBar;
},
{
ref = O;
},
{
closed = 1;
nodes = (
(409,18,l),
(463,-24,o),
(603,-33,o),
(650,-33,cs),
(816,-33,o),
(924,79,o),
(924,243,cs),
(924,404,o),
(819,498,o),
(665,498,cs),
(603,498,o),
(515,483,o),
(446,434,c),
(463,413,l),
(525,447,o),
(593,459,o),
(632,459,cs),
(741,459,o),
(819,363,o),
(819,214,cs),
(819,98,o),
(772,0,o),
(660,0,cs),
(624,0,o),
(550,10,o),
(480,65,c)
);
}
);
width = 954;
},
{
annotations = (
{
pos = (420.446,624.315);
text = "can't figure out a good ligature ; ;";
type = Text;
}
);
associatedMasterId = m01;
layerId = "8032EDEE-3CB7-460F-9BCF-DBD3BD535A26";
name = ref;
shapes = (
{
ref = O;
},
{
closed = 1;
nodes = (
(838,-37,o),
(993,69,o),
(993,239,cs),
(993,374,o),
(874,508,o),
(766,508,cs),
(677,508,o),
(616,440,o),
(553,440,cs),
(510,440,o),
(472,461,o),
(429,481,cs),
(426,482,o),
(424,477,o),
(424,471,cs),
(424,436,o),
(422,381,o),
(500,381,cs),
(609,381,o),
(677,465,o),
(722,465,cs),
(814,465,o),
(878,301,o),
(878,233,cs),
(878,81,o),
(804,-1,o),
(677,-1,cs),
(596,-1,o),
(535,51,o),
(521,110,c),
(467,41,l),
(512,-11,o),
(574,-37,o),
(648,-37,cs)
);
},
{
alignment = -1;
piece = {
length = 97.74779;
};
pos = (365,-3);
ref = _smart.horizontalBar;
}
);
visible = 1;
width = 1023;
}
);
metricLeft = O;
metricRight = E;
unicode = 338;
},
{
glyphname = P;
kernLeft = O;
kernRight = O;
lastChange = "2023-10-21 09:04:01 +0000";
layers = (
{
backgroundImage = {
imagePath = "images/alphabet_20_P.png";
locked = 1;
pos = (-35,-257);
scale = (9.8,9.8);
};
layerId = m01;
shapes = (
{
closed = 1;
nodes = (
(233,512,o),
(30,416,o),
(30,203,cs),
(30,4,o),
(208,-33,o),
(302,-33,cs),
(360,-33,o),
(582,30,o),
(582,203,cs),
(582,309,o),
(514,336,o),
(463,361,cs),
(453,366,o),
(443,367,o),
(435,363,cs),
(410,351,o),
(272,298,o),
(259,292,cs),
(247,287,o),
(251,281,o),
(263,281,cs),
(267,281,o),
(269,278,o),
(269,264,cs),
(269,253,l),
(291,259,o),
(338,299,o),
(365,299,cs),
(397,299,o),
(481,253,o),
(481,182,cs),
(481,142,o),
(473,4,o),
(320,4,cs),
(208,4,o),
(128,131,o),
(128,230,cs),
(128,344,o),
(201,469,o),
(315,469,cs),
(395,469,o),
(439,449,o),
(469,418,cs),
(473,414,o),
(474,411,o),
(479,418,cs),
(492,436,o),
(521,469,o),
(533,479,cs),
(543,487,o),
(547,490,o),
(542,491,cs),
(502,500,o),
(435,512,o),
(347,512,cs)
);
},
{
piece = {
flatEnd = 96.54732;
length = 25.63932;
};
pos = (263,-8);
ref = _smart.verticalBar_noStart.noSerif;
}
);
width = 612;
}
);
metricLeft = O;
metricRight = O;
unicode = 80;
},
{
glyphname = Q;
kernLeft = Q;
kernRight = I;
lastChange = "2024-05-29 19:33:35 +0000";
layers = (
{
backgroundImage = {
imagePath = "images/alphabet_21_Q.png";
locked = 1;
pos = (-133,-256);
scale = (9.8,9.8);
};
layerId = m01;
shapes = (
{
closed = 1;
nodes = (
(158,498,o),
(30,431,o),
(30,318,cs),
(30,209,o),
(141,181,o),
(173,172,c),
(254,258,l),
(234,258,o),
(218,254,o),
(183,264,cs),
(150,273,o),
(130,306,o),
(130,341,cs),
(130,394,o),
(165,461,o),
(253,461,cs),
(313,461,o),
(379,411,o),
(379,353,cs),
(379,293,l),
(466,341,l),
(466,396,ls),
(466,447,o),
(371,498,o),
(260,498,cs)
);
},
{
closed = 1;
nodes = (
(172,224,l),
(172,76,ls),
(172,-2,o),
(72,-33,o),
(55,-40,cs),
(38,-47,o),
(44,-50,o),
(76,-50,cs),
(147,-50,o),
(257,-2,o),
(257,76,cs),
(257,108,o),
(257,205,o),
(257,275,cs),
(257,284,o),
(257,288,o),
(249,283,cs),
(227,271,o),
(190,254,o),
(166,254,c)
);
},
{
piece = {
length = 46.37001;
};
pos = (373,19);
ref = _smart.verticalBar_noStart;
}
);
width = 526;
}
);
metricLeft = O;
metricRight = I;
unicode = 81;
},
{
glyphname = R;
kernLeft = H;
kernRight = R;
lastChange = "2024-05-29 21:51:50 +0000";
layers = (
{
anchors = (
{
name = bottom;
pos = (277,-2);
},
{
name = top;
pos = (290,478);
}
);
backgroundImage = {
imagePath = "images/alphabet_22_R.png";
locked = 1;
pos = (-108,-252);
scale = (9.8,9.8);
};
layerId = m01;
shapes = (
{
alignment = -1;
pos = (-3,0);
ref = _smart.verticalBar;
},
{
closed = 1;
nodes = (
(170,360,l),
(170,378,o),
(267,469,o),
(329,469,cs),
(361,469,o),
(406,445,o),
(406,390,cs),
(406,305,o),
(301,274,o),
(275,267,cs),
(268,265,o),
(268,262,o),
(277,259,cs),
(405,220,o),
(510,286,o),
(510,383,cs),
(510,472,o),
(420,510,o),
(370,510,cs),
(310,510,o),
(204,456,o),
(188,456,cs),
(172,456,o),
(167,461,o),
(156,463,c)
);
},
{
closed = 1;
nodes = (
(295,-35,l),
(382,13,l),
(382,268,l),
(295,263,l)
);
},
{
closed = 1;
nodes = (
(337,-35,o),
(482,30,o),
(511,63,cs),
(517,70,o),
(517,74,o),
(506,70,cs),
(463,56,o),
(367,16,o),
(319,16,c),
(295,-35,l)
);
}
);
width = 545;
},
{
associatedMasterId = m01;
backgroundImage = {
imagePath = "images/alphabet_22_R.png";
locked = 1;
pos = (-108,-252);
scale = (9.8,9.8);
};
layerId = "87B4CA09-96AF-4316-9956-0E2B8EFAF1D0";
name = ref;
shapes = (
{
alignment = -1;
pos = (-153,0);
ref = I;
}
);
width = 239;
}
);
metricLeft = A;
metricRight = G;
unicode = 82;
},
{
glyphname = S;
kernLeft = I;
kernRight = O;
lastChange = "2024-05-24 04:32:33 +0000";
layers = (
{
anchors = (
{
name = bottom;
pos = (266,-19);
},
{
name = ogonek;
pos = (346,-27);
},
{
name = top;
pos = (282,480);
}
);
backgroundImage = {
imagePath = "images/alphabet_23_S.png";
locked = 1;
pos = (-96,-260);
scale = (9.8,9.8);
};
layerId = m01;
shapes = (
{
closed = 1;
nodes = (
(268,-51,o),
(271,-56,o),
(285,-52,cs),
(358,-30,o),
(504,32,o),
(504,146,cs),
(504,237,o),
(420,300,o),
(326,300,cs),
(267,300,o),
(159,206,o),
(123,206,c),
(123,158,l),
(151,174,o),
(259,250,o),
(310,250,cs),
(367,250,o),
(398,200,o),
(398,118,cs),
(398,22,o),
(317,-24,o),
(275,-47,cs)
);
},
{
closed = 1;
nodes = (
(432,341,o),
(440,352,cs),
(453,370,o),
(481,399,o),
(499,412,cs),
(504,416,o),
(514,417,o),
(495,430,cs),
(455,458,o),
(365,500,o),
(276,500,cs),
(166,500,o),
(52,418,o),
(52,361,cs),
(52,325,l),
(139,325,l),
(139,366,ls),
(139,423,o),
(177,451,o),
(249,451,cs),
(322,451,o),
(395,387,o),
(423,348,cs),
(430,338,o)
);
},
{
piece = {
length = 56.67392;
};
pos = (46,54);
ref = _smart.verticalBar_noStart;
}
);
width = 536;
}
);
metricLeft = F;
metricRight = A;
unicode = 83;
},
{
glyphname = Scedilla;
kernLeft = I;
kernRight = O;
lastChange = "2024-05-24 04:47:04 +0000";
layers = (
{
layerId = m01;
shapes = (
{
ref = S;
},
{
closed = 1;
nodes = (
(261,-52,o),
(259,-90,o),
(259,-95,cs),
(259,-119,o),
(317,-153,o),
(317,-188,cs),
(317,-213,o),
(294,-230,o),
(266,-248,cs),
(259,-252,o),
(259,-255,o),
(269,-255,cs),
(299,-254,o),
(387,-230,o),
(387,-179,cs),
(387,-119,o),
(302,-99,o),
(302,-84,cs),
(302,-72,o),
(307,-58,o),
(329,-31,c),
(274,-48,l)
);
}
);
width = 536;
}
);
unicode = 350;
},
{
color = 4;
glyphname = Germandbls;
kernLeft = I;
kernRight = O;
lastChange = "2024-01-23 12:25:29 +0000";
layers = (
{
layerId = m01;
shapes = (
{
closed = 1;
nodes = (
(268,-51,o),
(271,-56,o),
(285,-52,cs),
(358,-30,o),
(504,32,o),
(504,153,cs),
(504,277,o),
(353,259,o),
(353,271,cs),
(353,281,o),
(447,312,o),
(447,380,cs),
(447,444,o),
(365,500,o),
(275,500,cs),
(166,500,o),
(52,418,o),
(52,361,cs),
(52,325,l),
(139,325,l),
(139,366,ls),
(139,423,o),
(177,451,o),
(247,451,cs),
(321,451,o),
(348,419,o),
(348,375,cs),
(348,335,o),
(326,298,o),
(295,259,cs),
(268,226,o),
(271,226,o),
(302,231,cs),
(370,243,o),
(398,200,o),
(398,134,cs),
(398,22,o),
(317,-24,o),
(275,-47,cs)
);
},
{
piece = {
length = 56.67392;
};
pos = (46,54);
ref = _smart.verticalBar_noStart;
}
);
width = 536;
}
);
unicode = 7838;
},
{
glyphname = T;
kernLeft = T;
kernRight = I;
lastChange = "2024-05-24 04:43:26 +0000";
layers = (
{
anchors = (
{
name = bottom;
pos = (242,0);
},
{
name = ogonek;
pos = (435,0);
},
{
name = top;
pos = (258,481);
}
);
backgroundImage = {
imagePath = "images/alphabet_24_T.png";
locked = 1;
pos = (-107,-270);
scale = (9.8,9.8);
};
layerId = m01;
shapes = (
{
closed = 1;
nodes = (
(11,369,o),
(20,362,o),
(29,369,cs),
(94,420,o),
(167,444,o),
(220,444,cs),
(272,444,o),
(354,419,o),
(354,358,cs),
(354,317,l),
(441,366,l),
(441,419,ls),
(441,460,o),
(362,496,o),
(258,496,cs),
(109,496,o),
(40,412,o),
(17,378,cs)
);
},
{
piece = {
length = 58.31611;
};
pos = (348,59);
ref = _smart.verticalBar_noStart;
}
);
width = 501;
}
);
metricLeft = A;
metricRight = I;
unicode = 84;
},
{
glyphname = U;
kernLeft = U;
kernRight = O;
lastChange = "2024-05-24 04:33:42 +0000";
layers = (
{
anchors = (
{
name = ogonek;
pos = (390,-10);
},
{
name = top;
pos = (302,499);
}
);
backgroundImage = {
imagePath = "images/alphabet_25_U.png";
locked = 1;
pos = (-52,-263);
scale = (9.8,9.8);
};
layerId = m01;
shapes = (
{
closed = 1;
nodes = (
(52,415,o),
(62,412,o),
(69,419,cs),
(76,427,o),
(91,429,o),
(104,429,cs),
(124,429,o),
(154,415,o),
(154,386,cs),
(154,352,o),
(30,268,o),
(30,155,cs),
(30,35,o),
(174,-37,o),
(288,-37,cs),
(429,-37,o),
(623,100,o),
(623,293,cs),
(623,416,o),
(534,469,o),
(495,489,cs),
(456,509,o),
(448,506,o),
(427,506,cs),
(406,506,o),
(283,430,o),
(272,419,c),
(294,415,l),
(312,421,o),
(315,432,o),
(349,432,cs),
(390,432,o),
(521,400,o),
(521,257,cs),
(521,181,o),
(469,13,o),
(347,13,cs),
(187,13,o),
(122,70,o),
(122,175,cs),
(122,301,o),
(230,370,o),
(230,440,cs),
(230,491,o),
(204,503,o),
(173,510,cs),
(161,513,o),
(136,509,o),
(124,498,cs),
(108,484,o),
(68,448,o),
(56,423,cs)
);
},
{
closed = 1;
nodes = (
(272,0,l),
(359,0,l),
(359,450,l),
(272,419,l)
);
}
);
width = 653;
}
);
metricLeft = E;
metricRight = O;
unicode = 85;
},
{
glyphname = V;
kernLeft = H;
kernRight = V;
lastChange = "2024-05-29 19:34:47 +0000";
layers = (
{
backgroundImage = {
imagePath = "images/alphabet_26_V.png";
locked = 1;
pos = (-50,-266);
scale = (9.8,9.8);
};
layerId = m01;
shapes = (
{
closed = 1;
nodes = (
(499,330,o),
(499,273,o),
(451,231,cs),
(322,120,o),
(170,36,o),
(140,29,c),
(92,-47,l),
(451,167,o),
(665,268,o),
(571,439,cs),
(545,486,o),
(477,509,o),
(451,492,cs),
(404,462,o),
(339,420,o),
(284,390,cs),
(281,388,o),
(282,383,o),
(288,383,cs),
(297,383,o),
(356,419,o),
(396,419,cs),
(421,419,o),
(453,401,o),
(477,364,cs)
);
},
{
piece = {
height_l = 61.7722;
};
pos = (-3,0);
ref = _smart.verticalBar.noEndSerif;
},
{
closed = 1;
nodes = (
(92,33,l),
(92,-47,l),
(179,11,l),
(179,57,l)
);
}
);
width = 623;
},
{
associatedMasterId = m01;
backgroundImage = {
imagePath = "images/alphabet_26_V.png";
locked = 1;
pos = (-50,-266);
scale = (9.8,9.8);
};
layerId = "821E2227-B25F-4E9A-9D4E-04B0064D2528";
name = ref;
shapes = (
{
alignment = -1;
pos = (-192,0);
ref = I;
}
);
width = 239;
}
);
metricLeft = A;
metricRight = O;
unicode = 86;
},
{
glyphname = W;
kernLeft = H;
kernRight = V;
lastChange = "2024-05-29 19:35:19 +0000";
layers = (
{
anchors = (
{
name = top;
pos = (379,499);
}
);
backgroundImage = {
imagePath = "images/alphabet_27_W.png";
locked = 1;
pos = (-3,-266);
scale = (9.8,9.8);
};
layerId = m01;
shapes = (
{
closed = 1;
nodes = (
(422,315,o),
(391,249,o),
(327,186,cs),
(258,118,o),
(135,14,o),
(101,0,c),
(92,-48,l),
(184,26,o),
(281,99,o),
(357,161,cs),
(468,251,o),
(537,326,o),
(489,418,cs),
(454,486,o),
(392,509,o),
(368,492,cs),
(326,462,o),
(266,420,o),
(217,390,cs),
(213,388,o),
(214,383,o),
(220,383,cs),
(228,383,o),
(281,419,o),
(310,419,cs),
(342,419,o),
(367,406,o),
(392,364,cs)
);
},
{
closed = 1;
nodes = (
(648,315,o),
(625,257,o),
(568,201,cs),
(513,147,o),
(336,-8,o),
(317,-27,cs),
(302,-42,o),
(309,-49,o),
(336,-31,cs),
(356,-18,o),
(437,47,o),
(548,134,cs),
(606,180,o),
(780,292,o),
(715,418,cs),
(680,486,o),
(618,509,o),
(594,492,cs),
(552,462,o),
(492,420,o),
(443,390,cs),
(439,388,o),
(440,383,o),
(446,383,cs),
(454,383,o),
(507,419,o),
(536,419,cs),
(568,419,o),
(593,406,o),
(618,364,cs)
);
},
{
piece = {
height_l = 61.7722;
};
pos = (-3,0);
ref = _smart.verticalBar.noEndSerif;
},
{
closed = 1;
nodes = (
(92,33,l),
(92,-50,l),
(178,32,l),
(179,66,l)
);
}
);
width = 759;
},
{
associatedMasterId = m01;
backgroundImage = {
imagePath = "images/alphabet_27_W.png";
locked = 1;
pos = (-3,-266);
scale = (9.8,9.8);
};
layerId = "94915DD2-9BE4-4665-A5FB-2B5E0F5849E7";
name = ref;
shapes = (
{
alignment = -1;
pos = (-260,0);
ref = I;
}
);
width = 239;
}
);
metricLeft = V;
metricRight = V;
unicode = 87;
},
{
glyphname = X;
kernLeft = X;
kernRight = X;
lastChange = "2023-10-21 09:18:26 +0000";
layers = (
{
backgroundImage = {
imagePath = "images/alphabet_28_X.png";
locked = 1;
pos = (13,-277);
scale = (9.8,9.8);
};
layerId = m01;
shapes = (
{
closed = 1;
nodes = (
(512,473,o),
(510,466,o),
(523,466,cs),
(534,466,o),
(555,460,o),
(553,431,cs),
(551,404,o),
(542,345,o),
(341,232,cs),
(180,142,o),
(50,62,o),
(50,11,cs),
(50,-25,o),
(69,-39,o),
(85,-47,c),
(108,-38,o),
(177,-16,o),
(207,-16,cs),
(214,-16,o),
(214,-12,o),
(207,-8,cs),
(182,6,o),
(165,19,o),
(182,53,cs),
(204,96,o),
(262,162,o),
(410,241,cs),
(590,337,o),
(678,401,o),
(678,462,cs),
(678,505,o),
(657,513,o),
(634,506,cs),
(614,500,o),
(548,481,o),
(526,476,cs)
);
},
{
closed = 1;
nodes = (
(50,405,o),
(55,402,o),
(61,412,cs),
(69,424,o),
(81,438,o),
(103,438,cs),
(157,438,o),
(252,301,o),
(282,267,cs),
(467,52,o),
(523,-34,o),
(581,-34,cs),
(627,-34,o),
(666,28,o),
(679,51,cs),
(682,57,o),
(677,59,o),
(671,54,cs),
(661,44,o),
(647,34,o),
(623,34,cs),
(573,34,o),
(480,168,o),
(381,288,cs),
(303,383,o),
(218,501,o),
(157,501,cs),
(113,501,o),
(66,445,o),
(55,418,cs)
);
}
);
width = 710;
}
);
metricLeft = F;
metricRight = G;
unicode = 88;
},
{
glyphname = Y;
kernLeft = H;
kernRight = V;
lastChange = "2024-05-29 19:35:48 +0000";
layers = (
{
anchors = (
{
name = top;
pos = (294,490);
}
);
backgroundImage = {
imagePath = "images/alphabet_29_Y.png";
locked = 1;
pos = (-82,-299);
scale = (9.8,9.8);
};
layerId = m01;
shapes = (
{
alignment = -1;
piece = {
height_l = 62.82028;
};
pos = (-3,0);
ref = _smart.verticalBar;
},
{
closed = 0;
nodes = (
(332,452,ls)
);
},
{
closed = 1;
nodes = (
(467,358,o),
(445,316,o),
(378,271,cs),
(331,239,o),
(54,47,o),
(54,-69,cs),
(54,-76,o),
(54,-80,o),
(59,-76,cs),
(93,-45,o),
(136,-21,o),
(180,-5,cs),
(185,-3,o),
(188,-3,o),
(189,4,cs),
(197,77,o),
(254,137,o),
(356,210,cs),
(429,262,o),
(592,344,o),
(544,437,cs),
(511,501,o),
(445,521,o),
(421,506,cs),
(387,485,o),
(335,453,o),
(292,430,cs),
(288,428,o),
(289,424,o),
(294,424,cs),
(301,424,o),
(348,452,o),
(373,452,cs),
(401,452,o),
(429,431,o),
(445,400,cs)
);
}
);
width = 583;
},
{
associatedMasterId = m01;
backgroundImage = {
imagePath = "images/alphabet_29_Y.png";
locked = 1;
pos = (-82,-299);
scale = (9.8,9.8);
};
layerId = "27A1FED3-D7E3-4019-9BF5-1FC1DE1F6E6B";
name = ref;
shapes = (
{
alignment = -1;
pos = (-172,0);
ref = I;
}
);
width = 239;
}
);
metricLeft = A;
metricRight = V;
unicode = 89;
},
{
glyphname = Z;
kernLeft = Z;
kernRight = Z;
lastChange = "2024-05-24 04:34:16 +0000";
layers = (
{
anchors = (
{
name = bottom;
pos = (326,-12);
},
{
name = top;
pos = (368,500);
}
);
backgroundImage = {
imagePath = "images/alphabet_30_Z.png";
locked = 1;
pos = (-9,-301);
scale = (9.8,9.8);
};
layerId = m01;
shapes = (
{
closed = 1;
nodes = (
(417,-44,l),
(504,-9,l),
(504,267,l),
(417,202,l)
);
},
{
closed = 1;
nodes = (
(455,-44,o),
(593,32,o),
(623,56,cs),
(634,65,o),
(634,73,o),
(604,55,cs),
(574,38,o),
(505,3,o),
(439,3,c),
(417,-44,l)
);
},
{
closed = 1;
nodes = (
(556,502,o),
(565,485,o),
(565,485,c),
(194,48,ls),
(177,27,o),
(137,19,o),
(137,109,cs),
(137,199,o),
(226,280,o),
(304,280,cs),
(369,280,o),
(417,267,o),
(417,215,cs),
(417,185,l),
(504,258,l),
(504,277,ls),
(504,308,o),
(428,330,o),
(346,330,cs),
(264,330,o),
(30,215,o),
(30,73,cs),
(30,-33,o),
(115,-45,o),
(148,-45,cs),
(168,-45,o),
(183,-37,o),
(218,5,cs),
(355,168,o),
(492,330,o),
(629,493,cs),
(635,500,o),
(645,509,o),
(628,506,c),
(610,502,o),
(592,502,o),
(577,502,cs)
);
},
{
piece = {
length = 145.00761;
rightSerif = 100;
};
pos = (-124,177);
ref = _smart.horizontalBar;
scale = (1,1.2);
}
);
width = 667;
}
);
metricLeft = B;
metricRight = A;
unicode = 90;
},
{
glyphname = F_A;
kernLeft = I;
kernRight = O;
lastChange = "2023-10-23 03:29:42 +0000";
layers = (
{
layerId = m01;
shapes = (
{
piece = {
flatEnd = 0;
length = 50;
};
pos = (46,31);
ref = _smart.verticalBar_noStart;
},
{
closed = 1;
nodes = (
(420,15,l),
(507,63,l),
(506,364,ls),
(506,492,o),
(400,508,o),
(309,508,cs),
(191,508,o),
(52,433,o),
(52,360,cs),
(52,310,l),
(139,310,l),
(139,382,ls),
(139,426,o),
(186,463,o),
(253,463,cs),
(325,463,o),
(419,449,o),
(419,329,cs)
);
},
{
closed = 1;
nodes = (
(420,73,o),
(420,39,o),
(420,12,cs),
(420,-52,o),
(355,-164,o),
(337,-180,cs),
(331,-186,o),
(336,-189,o),
(342,-186,cs),
(362,-176,o),
(507,-46,o),
(507,25,cs),
(507,74,l),
(420,93,l)
);
},
{
closed = 1;
nodes = (
(559,383,o),
(609,431,o),
(683,431,cs),
(742,431,o),
(786,410,o),
(813,386,cs),
(817,383,o),
(820,386,o),
(821,388,cs),
(838,411,o),
(864,439,o),
(882,449,cs),
(886,451,o),
(892,451,o),
(886,456,cs),
(859,478,o),
(811,501,o),
(749,501,cs),
(638,501,o),
(545,407,o),
(492,344,c),
(492,319,l)
);
},
{
closed = 1;
nodes = (
(495,44,o),
(499,49,o),
(510,49,cs),
(535,49,o),
(597,-27,o),
(677,-27,cs),
(756,-27,o),
(894,52,o),
(894,142,cs),
(894,227,o),
(810,307,o),
(726,307,cs),
(677,307,o),
(541,214,o),
(492,199,c),
(492,31,l)
);
},
{
closed = 1;
nodes = (
(495,163,l),
(544,178,o),
(635,244,o),
(672,244,cs),
(714,244,o),
(755,196,o),
(773,154,cs),
(808,71,o),
(785,31,o),
(698,31,cs),
(621,31,o),
(537,142,o),
(495,190,c)
);
}
);
width = 924;
},
{
associatedMasterId = m01;
layerId = "DA36FD0A-A80F-49EB-BD12-9028ECF96937";
name = Overlay;
shapes = (
{
ref = F;
},
{
pos = (524,0);
ref = A;
}
);
width = 1121;
}
);
metricLeft = F;
metricRight = A;
},
{
glyphname = F_a;
kernLeft = I;
kernRight = o;
lastChange = "2023-10-23 03:28:04 +0000";
layers = (
{
anchors = (
{
name = height_l;
pos = (500,14.999);
}
);
layerId = m01;
shapes = (
{
piece = {
flatEnd = 0;
length = 50;
};
pos = (46,31);
ref = _smart.verticalBar_noStart;
},
{
closed = 1;
nodes = (
(537,266,o),
(566,308,o),
(624,308,cs),
(674,308,o),
(710,291,o),
(730,271,c),
(737,282,o),
(781,323,o),
(786,326,c),
(771,344,o),
(728,364,o),
(676,364,cs),
(588,364,o),
(526,300,o),
(484,249,c),
(484,215,l)
);
},
{
closed = 1;
nodes = (
(476,30,o),
(487,36,o),
(496,36,cs),
(516,36,o),
(559,-8,o),
(622,-8,cs),
(685,-8,o),
(786,23,o),
(786,104,cs),
(786,177,o),
(728,220,o),
(661,220,cs),
(622,220,o),
(512,140,o),
(473,129,c),
(473,19,l)
);
},
{
closed = 1;
nodes = (
(503,113,l),
(541,125,o),
(588,170,o),
(619,170,cs),
(651,170,o),
(698,133,o),
(698,78,cs),
(698,33,o),
(689,30,o),
(649,30,cs),
(600,30,o),
(535,90,o),
(503,135,c)
);
},
{
closed = 1;
nodes = (
(420,15,l),
(507,63,l),
(506,364,ls),
(506,492,o),
(400,508,o),
(309,508,cs),
(191,508,o),
(52,433,o),
(52,360,cs),
(52,310,l),
(139,310,l),
(139,382,ls),
(139,426,o),
(186,463,o),
(253,463,cs),
(325,463,o),
(419,449,o),
(419,329,cs)
);
},
{
closed = 1;
nodes = (
(420,73,o),
(420,39,o),
(420,12,cs),
(420,-52,o),
(355,-164,o),
(337,-180,cs),
(331,-186,o),
(336,-189,o),
(342,-186,cs),
(362,-176,o),
(507,-46,o),
(507,25,cs),
(507,74,l),
(420,93,l)
);
}
);
width = 816;
},
{
associatedMasterId = m01;
layerId = "F0D096B8-B0FA-4B89-9CE0-F7403FAE303B";
name = overlay;
shapes = (
{
ref = F;
},
{
pos = (444,0);
ref = a;
}
);
width = 946;
}
);
metricLeft = F;
metricRight = a;
},
{
glyphname = a;
kernLeft = a;
kernRight = o;
lastChange = "2024-05-29 20:53:06 +0000";
layers = (
{
anchors = (
{
name = ogonek;
pos = (383,12);
},
{
name = top;
pos = (263,369);
}
);
backgroundImage = {
imagePath = "images/alphabet_32-a.png";
locked = 1;
pos = (-124,-407);
scale = (9.8,9.8);
};
layerId = m01;
shapes = (
{
closed = 1;
nodes = (
(223,266,o),
(252,308,o),
(310,308,cs),
(360,308,o),
(396,291,o),
(416,271,c),
(423,282,o),
(467,323,o),
(472,326,c),
(457,344,o),
(414,364,o),
(362,364,cs),
(274,364,o),
(212,300,o),
(170,249,c),
(170,215,l)
);
},
{
closed = 1;
nodes = (
(162,30,o),
(170,53,o),
(179,53,cs),
(199,53,o),
(245,-8,o),
(308,-8,cs),
(371,-8,o),
(472,23,o),
(472,104,cs),
(472,177,o),
(414,220,o),
(347,220,cs),
(308,220,o),
(198,140,o),
(159,129,c),
(159,19,l)
);
},
{
closed = 1;
nodes = (
(189,113,l),
(227,125,o),
(274,170,o),
(305,170,cs),
(337,170,o),
(384,133,o),
(384,78,cs),
(384,33,o),
(375,30,o),
(335,30,cs),
(286,30,o),
(221,90,o),
(189,135,c)
);
},
{
piece = {
height_l = 31.79274;
};
pos = (11,-141);
ref = _smart.verticalBar.noEndSerif;
},
{
closed = 1;
nodes = (
(106,73,o),
(106,62,o),
(106,35,cs),
(106,-29,o),
(41,-164,o),
(23,-180,cs),
(17,-186,o),
(22,-189,o),
(28,-186,cs),
(48,-176,o),
(193,-21,o),
(193,50,cs),
(193,74,l),
(106,93,l)
);
}
);
width = 502;
},
{
associatedMasterId = m01;
backgroundImage = {
imagePath = "images/alphabet_32-a.png";
locked = 1;
pos = (-124,-407);
scale = (9.8,9.8);
};
layerId = "C99022BB-2BA7-4981-8B15-109B469556AC";
name = ref;
shapes = (
{
alignment = -1;
pos = (-117,0);
ref = i;
}
);
width = 239;
}
);
unicode = 97;
},
{
color = 4;
glyphname = ae;
kernLeft = a;
kernRight = o;
lastChange = "2024-01-24 03:32:36 +0000";
layers = (
{
layerId = m01;
shapes = (
{
ref = a;
},
{
closed = 1;
nodes = (
(404,203,l),
(422,261,o),
(478,319,o),
(552,319,cs),
(610,319,o),
(696,283,o),
(696,164,cs),
(696,70,o),
(639,35,o),
(554,-2,cs),
(544,-6,o),
(542,-14,o),
(554,-13,cs),
(635,-7,o),
(798,48,o),
(798,186,cs),
(798,275,o),
(730,364,o),
(599,364,cs),
(446,364,o),
(393,244,o),
(382,214,c)
);
},
{
alignment = -1;
piece = {
length = 70.53215;
rightSerif = 100;
};
pos = (254,-70);
ref = _smart.horizontalBar;
}
);
width = 828;
}
);
metricLeft = a;
metricRight = e;
unicode = 230;
},
{
glyphname = b;
kernLeft = b;
kernRight = o;
lastChange = "2024-05-29 20:50:46 +0000";
layers = (
{
backgroundImage = {
imagePath = "images/alphabet_33-b.png";
locked = 1;
pos = (-76,-444);
scale = (9.8,9.8);
};
layerId = m01;
shapes = (
{
closed = 1;
nodes = (
(217,144,l),
(217,75,l),
(367,75,o),
(474,167,o),
(474,251,cs),
(474,311,o),
(420,360,o),
(342,360,cs),
(200,360,o),
(30,198,o),
(30,71,cs),
(30,-13,o),
(104,-36,o),
(174,-36,cs),
(287,-36,o),
(378,24,o),
(425,69,cs),
(435,78,o),
(431,86,o),
(420,79,cs),
(359,39,o),
(307,9,o),
(241,9,cs),
(144,9,o),
(113,74,o),
(113,124,cs),
(113,189,o),
(167,272,o),
(214,306,cs),
(243,327,o),
(268,329,o),
(283,329,cs),
(358,329,o),
(394,280,o),
(394,232,cs),
(394,189,o),
(366,129,o),
(304,113,c),
(304,156,l)
);
},
{
piece = {
height_l = 48.59702;
};
pos = (122,40);
ref = _smart.verticalBar.noEndSerif;
}
);
width = 504;
},
{
associatedMasterId = m01;
backgroundImage = {
imagePath = "images/alphabet_33-b.png";
locked = 1;
pos = (-76,-444);
scale = (9.8,9.8);
};
layerId = "4833B150-91CB-4114-8B0F-B7A4C7B54A1C";
name = ref;
shapes = (
{
alignment = -1;
piece = {
height_l = 69.31254;
};
pos = (-30,40);
ref = _smart.verticalBar.noEndSerif;
}
);
visible = 1;
width = 200;
}
);
metricRight = a;
unicode = 98;
},
{
glyphname = c;
kernLeft = b;
kernRight = i;
lastChange = "2024-05-29 19:40:36 +0000";
layers = (
{
anchors = (
{
name = ogonek;
pos = (416,0);
},
{
name = top;
pos = (281,334);
}
);
backgroundImage = {
imagePath = "images/alphabet_34-c.png";
locked = 1;
pos = (-122,-433);
scale = (9.8,9.8);
};
layerId = m01;
shapes = (
{
closed = 1;
nodes = (
(308,369,o),
(30,255,o),
(30,39,cs),
(30,-147,o),
(257,-197,o),
(327,-210,cs),
(343,-213,o),
(346,-206,o),
(329,-196,cs),
(291,-173,o),
(127,-94,o),
(127,68,cs),
(127,255,o),
(280,323,o),
(386,320,c),
(416,339,l),
(416,369,l)
);
},
{
piece = {
length = 46.69115;
};
pos = (323,20);
ref = _smart.verticalBar_noStart;
}
);
width = 476;
},
{
anchors = (
{
name = bottom;
pos = (416,33);
},
{
name = top;
pos = (281,334);
}
);
associatedMasterId = m01;
backgroundImage = {
imagePath = "images/alphabet_34-c.png";
locked = 1;
pos = (-122,-433);
scale = (9.8,9.8);
};
layerId = "28633BE6-A7E2-47E1-87DF-7A286B36D22A";
name = short;
shapes = (
{
closed = 1;
nodes = (
(308,369,o),
(30,255,o),
(30,39,cs),
(30,-147,o),
(257,-197,o),
(327,-210,cs),
(343,-213,o),
(346,-206,o),
(329,-196,cs),
(291,-173,o),
(127,-94,o),
(127,68,cs),
(127,255,o),
(280,323,o),
(386,320,c),
(416,339,l),
(416,369,l)
);
},
{
piece = {
length = 36.90167;
};
pos = (323,20);
ref = _smart.verticalBar_noStart;
}
);
width = 476;
}
);
metricLeft = b;
metricRight = i;
unicode = 99;
},
{
glyphname = d;
kernLeft = b;
kernRight = f;
lastChange = "2024-05-29 20:52:18 +0000";
layers = (
{
anchors = (
{
name = top;
pos = (284,522);
}
);
backgroundImage = {
imagePath = "images/alphabet_35-d.png";
locked = 1;
pos = (-147,-365);
scale = (9.8,9.8);
};
layerId = m01;
shapes = (
{
closed = 1;
nodes = (
(30,-3,o),
(167,-36,o),
(237,-36,cs),
(261,-36,o),
(338,12,o),
(338,16,c),
(243,24,o),
(136,40,o),
(136,119,cs),
(136,191,o),
(223,311,o),
(314,311,cs),
(361,311,o),
(404,284,o),
(433,257,cs),
(435,255,o),
(437,259,o),
(440,263,cs),
(452,278,o),
(478,304,o),
(491,315,cs),
(494,318,o),
(495,318,o),
(493,319,cs),
(441,344,o),
(372,363,o),
(287,335,cs),
(198,305,o),
(30,184,o),
(30,86,cs)
);
},
{
alignment = -1;
piece = {
height_l = 71.04749;
};
pos = (156,40);
ref = _smart.verticalBar.noEndSerif;
}
);
width = 519;
},
{
associatedMasterId = m01;
backgroundImage = {
imagePath = "images/alphabet_35-d.png";
locked = 1;
pos = (-147,-365);
scale = (9.8,9.8);
};
layerId = "D09B36E6-4F48-4CF7-8391-F8E112786909";
name = ref;
shapes = (
{
alignment = -1;
piece = {
height_l = 69.31254;
};
pos = (156,40);
ref = _smart.verticalBar.noEndSerif;
}
);
visible = 1;
width = 509;
}
);
metricLeft = b;
unicode = 100;
},
{
glyphname = dcroat;
kernLeft = b;
kernRight = f;
lastChange = "2024-05-29 22:45:55 +0000";
layers = (
{
anchors = (
{
name = height_l;
pos = (251,-12.308);
},
{
name = noStartSerif;
pos = (177,467);
}
);
layerId = m01;
shapes = (
{
closed = 1;
nodes = (
(30,17,o),
(167,-16,o),
(237,-16,cs),
(261,-16,o),
(318,28,o),
(338,36,c),
(243,44,o),
(136,60,o),
(136,130,cs),
(136,211,o),
(223,311,o),
(295,311,cs),
(361,311,o),
(404,284,o),
(433,257,cs),
(435,255,o),
(437,259,o),
(440,263,cs),
(452,278,o),
(478,304,o),
(491,315,cs),
(494,318,o),
(495,318,o),
(493,319,cs),
(441,344,o),
(372,363,o),
(267,328,cs),
(198,305,o),
(30,204,o),
(30,106,cs)
);
},
{
closed = 1;
nodes = (
(251,-12,l),
(338,36,l),
(338,514,l),
(338,539,o),
(324,568,o),
(302,555,cs),
(256,528,o),
(223,505,o),
(177,486,cs),
(173,484,o),
(173,479,o),
(182,479,cs),
(191,479,o),
(209,478,o),
(219,476,cs),
(244,471,o),
(251,461,o),
(251,437,c)
);
},
{
alignment = -1;
piece = {
length = 73.72569;
};
pos = (-94,159);
ref = _smart.horizontalBar;
}
);
width = 519;
}
);
unicode = 273;
},
{
glyphname = eth;
kernLeft = b;
kernRight = f;
lastChange = "2024-05-29 22:50:42 +0000";
layers = (
{
layerId = m01;
shapes = (
{
alignment = -1;
angle = 15;
piece = {
length = 51.6372;
};
pos = (-6,100);
ref = _smart.horizontalBar;
},
{
closed = 1;
nodes = (
(354,90,cs),
(379,180,o),
(361,286,o),
(351,329,cs),
(311,507,o),
(204,539,o),
(185,539,cs),
(167,539,o),
(141,509,o),
(94,486,cs),
(90,484,o),
(90,479,o),
(99,479,cs),
(126,479,o),
(224,504,o),
(262,358,cs),
(291,246,o),
(287,28,o),
(202,28,cs),
(164,28,o),
(136,72,o),
(136,130,cs),
(136,211,o),
(223,311,o),
(295,311,cs),
(361,311,o),
(404,284,o),
(433,257,cs),
(435,255,o),
(437,259,o),
(440,263,cs),
(452,278,o),
(478,304,o),
(491,315,cs),
(494,318,o),
(495,318,o),
(493,319,cs),
(441,344,o),
(372,363,o),
(267,328,cs),
(198,305,o),
(30,204,o),
(30,106,cs),
(30,17,o),
(167,-16,o),
(231,-16,cs),
(289,-16,o),
(332,12,o)
);
}
);
width = 519;
}
);
metricLeft = d;
metricRight = d;
unicode = 240;
},
{
glyphname = e;
kernLeft = e;
kernRight = o;
lastChange = "2024-05-29 20:51:46 +0000";
layers = (
{
anchors = (
{
name = ogonek;
pos = (318,26);
},
{
name = top;
pos = (208,364);
}
);
backgroundImage = {
imagePath = "images/alphabet_36-e.png";
locked = 1;
pos = (-153,-410);
scale = (9.8,9.8);
};
layerId = m01;
shapes = (
{
closed = 1;
nodes = (
(12,202,o),
(19,206,o),
(24,210,cs),
(40,223,o),
(57,232,o),
(86,242,cs),
(89,243,o),
(91,246,o),
(91,254,cs),
(91,287,o),
(137,332,o),
(202,332,cs),
(269,332,o),
(330,283,o),
(330,175,cs),
(330,70,o),
(273,25,o),
(188,-12,cs),
(178,-16,o),
(176,-24,o),
(188,-23,cs),
(269,-17,o),
(432,48,o),
(432,186,cs),
(432,275,o),
(364,364,o),
(233,364,cs),
(80,364,o),
(27,244,o),
(16,214,cs)
);
},
{
piece = {
length = 85.97003;
rightSerif = 100;
};
pos = (-160,-70);
ref = _smart.horizontalBar;
}
);
width = 462;
}
);
metricRight = b;
unicode = 101;
},
{
glyphname = f;
kernLeft = f;
kernRight = f;
lastChange = "2024-05-29 20:54:06 +0000";
layers = (
{
backgroundImage = {
imagePath = "images/alphabet_37-f.png";
locked = 1;
pos = (-153,-418);
scale = (9.8,9.8);
};
layerId = m01;
shapes = (
{
closed = 1;
nodes = (
(32,166,l),
(119,166,l),
(119,225,ls),
(119,290,o),
(152,338,o),
(211,338,cs),
(275,338,o),
(333,252,o),
(353,212,cs),
(356,207,o),
(359,208,o),
(362,212,cs),
(376,231,o),
(397,254,o),
(414,268,cs),
(417,271,o),
(426,276,o),
(422,281,cs),
(401,307,o),
(333,370,o),
(241,370,cs),
(119,370,o),
(32,282,o),
(32,224,cs)
);
},
{
piece = {
flatEnd = 0;
length = 50.47133;
};
pos = (26,-113);
ref = _smart.verticalBar_noStart;
}
);
width = 438;
},
{
associatedMasterId = m01;
backgroundImage = {
imagePath = "images/alphabet_37-f.png";
locked = 1;
pos = (-153,-418);
scale = (9.8,9.8);
};
layerId = "A2619DDA-4F4E-4D1F-81F3-A4A696C00221";
name = ref;
shapes = (
{
alignment = -1;
piece = {
length = 60.92025;
};
pos = (26,-78);
ref = _smart.verticalBar_noStart;
}
);
visible = 1;
width = 438;
}
);
unicode = 102;
},
{
glyphname = h;
kernLeft = h;
kernRight = k;
lastChange = "2024-05-29 20:41:40 +0000";
layers = (
{
backgroundImage = {
imagePath = "images/alphabet_39-h.png";
locked = 1;
pos = (-126,-296);
scale = (9.8,9.8);
};
layerId = m01;
shapes = (
{
alignment = -1;
piece = {
height_l = 73.68821;
};
pos = (-3,40);
ref = _smart.verticalBar;
},
{
closed = 1;
nodes = (
(243,178,o),
(306,214,cs),
(369,255,o),
(422,263,o),
(422,339,cs),
(422,357,o),
(420,360,o),
(410,358,cs),
(378,349,o),
(342,346,o),
(317,346,cs),
(306,346,o),
(307,340,o),
(313,337,cs),
(322,331,o),
(342,321,o),
(337,299,cs),
(332,277,o),
(316,247,o),
(266,221,cs),
(214,194,o),
(188,186,o),
(168,184,c),
(168,143,l),
(188,153,o)
);
},
{
closed = 1;
nodes = (
(253,194,l),
(359,194,o),
(385,137,o),
(385,98,cs),
(385,38,o),
(324,-24,o),
(280,-52,cs),
(273,-57,o),
(275,-61,o),
(285,-58,cs),
(362,-34,o),
(482,35,o),
(482,117,cs),
(482,195,o),
(405,224,o),
(299,224,c)
);
}
);
width = 512;
},
{
associatedMasterId = m01;
backgroundImage = {
imagePath = "images/alphabet_39-h.png";
locked = 1;
pos = (-126,-296);
scale = (9.8,9.8);
};
layerId = "9F44B33A-2C6A-4D40-A200-4272839B129E";
name = ref;
shapes = (
{
alignment = -1;
piece = {
height_l = 69.31254;
};
pos = (-139,40);
ref = _smart.verticalBar.noEndSerif;
}
);
visible = 1;
width = 239;
}
);
metricRight = b;
unicode = 104;
},
{
glyphname = j;
kernLeft = h;
kernRight = j;
lastChange = "2024-05-29 20:58:40 +0000";
layers = (
{
anchors = (
{
name = top;
pos = (80,510);
}
);
backgroundImage = {
imagePath = "images/alphabet_41-j.png";
locked = 1;
pos = (-187,-276);
scale = (9.8,9.8);
};
layerId = m01;
shapes = (
{
alignment = -1;
piece = {
leftSerif = 100;
length = 85.46994;
};
pos = (-144,-57);
ref = _smart.horizontalBar;
},
{
closed = 1;
nodes = (
(92,133,ls),
(92,13,o),
(157,-29,o),
(289,-29,cs),
(395,-29,o),
(458,65,o),
(473,93,cs),
(477,100,o),
(472,107,o),
(467,102,cs),
(429,66,o),
(378,28,o),
(296,28,cs),
(183,28,o),
(179,100,o),
(179,188,cs),
(179,264,l),
(92,207,l)
);
},
{
alignment = -1;
piece = {
height_l = 36.52798;
};
pos = (-3,40);
ref = _smart.verticalBar.noEndSerif;
}
);
width = 504;
},
{
associatedMasterId = m01;
backgroundImage = {
imagePath = "images/alphabet_41-j.png";
locked = 1;
pos = (-187,-276);
scale = (9.8,9.8);
};
layerId = "5C669817-DF0E-4EEE-B4A7-4E16D4FD690F";
name = ref;
shapes = (
{
alignment = -1;
piece = {
height_l = 69.31254;
};
pos = (-3,40);
ref = _smart.verticalBar.noEndSerif;
}
);
visible = 1;
width = 504;
}
);
metricLeft = h;
metricRight = b;
unicode = 106;
},
{
glyphname = k;
kernLeft = i;
kernRight = k;
lastChange = "2024-05-29 19:42:27 +0000";
layers = (
{
anchors = (
{
name = bottom;
pos = (265,-124);
},
{
name = "new anchor";
pos = (179,111);
}
);
backgroundImage = {
imagePath = "images/alphabet_42-k.png";
locked = 1;
pos = (-155,-330);
scale = (9.8,9.8);
};
layerId = m01;
shapes = (
{
closed = 1;
nodes = (
(149,292,l),
(149,205,l),
(178,205,l),
(178,250,o),
(246,304,o),
(296,304,cs),
(338,304,o),
(377,256,o),
(377,213,cs),
(377,153,o),
(342,113,o),
(304,113,c),
(285,99,l),
(293,62,l),
(341,62,o),
(470,94,o),
(470,234,cs),
(470,304,o),
(431,362,o),
(345,362,cs),
(230,362,o),
(178,244,o),
(178,292,c)
);
},
{
alignment = -1;
piece = {
height_l = 26.17534;
};
pos = (-3,-141);
ref = _smart.verticalBar;
},
{
closed = 1;
nodes = (
(316,124,ls),
(316,141,o),
(314,141,o),
(303,135,cs),
(273,121,o),
(229,109,o),
(217,105,cs),
(214,104,o),
(217,101,o),
(223,98,cs),
(228,94,o),
(229,73,o),
(229,59,c),
(229,4,ls),
(229,-95,o),
(170,-170,o),
(128,-213,cs),
(122,-219,o),
(123,-227,o),
(132,-223,cs),
(196,-195,o),
(316,-99,o),
(316,10,cs),
(316,83,l)
);
}
);
width = 500;
},
{
associatedMasterId = m01;
backgroundImage = {
imagePath = "images/alphabet_42-k.png";
locked = 1;
pos = (-155,-330);
scale = (9.8,9.8);
};
layerId = "85FCA928-83BB-453C-86D9-01AD28F07E31";
name = ref;
shapes = (
{
alignment = -1;
pos = (-130,0);
ref = i;
}
);
visible = 1;
width = 239;
}
);
metricLeft = h;
metricRight = b;
unicode = 107;
},
{
glyphname = lslash;
kernLeft = h;
kernRight = l;
lastChange = "2024-05-24 04:49:05 +0000";
layers = (
{
layerId = m01;
shapes = (
{
ref = l;
},
{
closed = 1;
nodes = (
(34,73,l),
(298,204,l),
(308,273,l),
(44,142,l)
);
}
);
width = 368;
}
);
unicode = 322;
},
{
glyphname = m;
kernLeft = i;
kernRight = m;
lastChange = "2024-05-29 20:53:41 +0000";
layers = (
{
backgroundImage = {
imagePath = "images/alphabet_44-m.png";
locked = 1;
pos = (-92,-286);
scale = (9.8,9.8);
};
layerId = m01;
shapes = (
{
closed = 1;
nodes = (
(226,-14,o),
(241,27,o),
(259,57,c),
(288,16,o),
(323,-14,o),
(367,-14,cs),
(423,-14,o),
(446,34,o),
(457,55,c),
(491,3,o),
(516,-14,o),
(567,-14,cs),
(609,-14,o),
(651,53,o),
(660,68,cs),
(663,74,o),
(656,80,o),
(650,74,cs),
(640,65,o),
(624,35,o),
(596,35,cs),
(559,35,o),
(507,148,o),
(446,242,cs),
(379,347,o),
(361,362,o),
(310,362,cs),
(254,362,o),
(228,317,o),
(217,296,c),
(189,339,o),
(160,362,o),
(121,362,cs),
(56,362,o),
(30,338,o),
(30,304,cs),
(30,101,ls),
(30,34,o),
(77,-14,o),
(150,-14,cs)
);
},
{
closed = 1;
nodes = (
(110,318,l),
(113,319,o),
(116,319,o),
(119,319,cs),
(146,319,o),
(165,222,o),
(191,173,cs),
(209,139,o),
(228,101,o),
(251,68,c),
(236,55,o),
(210,36,o),
(182,36,cs),
(132,36,o),
(110,62,o),
(110,113,cs)
);
},
{
closed = 1;
nodes = (
(238,288,o),
(250,312,o),
(269,312,cs),
(299,312,o),
(322,282,o),
(373,193,cs),
(406,138,o),
(429,97,o),
(449,66,c),
(439,55,o),
(423,35,o),
(407,35,cs),
(368,35,o),
(302,148,o),
(266,213,cs),
(252,238,o),
(240,260,o),
(228,279,c)
);
}
);
width = 676;
},
{
associatedMasterId = m01;
backgroundImage = {
imagePath = "images/alphabet_44-m.png";
locked = 1;
pos = (-92,-286);
scale = (9.8,9.8);
};
layerId = "3641D1A3-6AEE-4798-99B7-35609D428A57";
name = "before removing overlap";
shapes = (
{
closed = 1;
nodes = (
(110,331,l),
(110,116,l),
(110,65,o),
(132,39,o),
(182,39,cs),
(216,39,o),
(246,67,o),
(259,77,cs),
(264,81,o),
(269,75,o),
(264,68,cs),
(243,39,o),
(234,-11,o),
(150,-11,cs),
(77,-11,o),
(30,37,o),
(30,104,c),
(30,293,l)
);
},
{
closed = 1;
nodes = (
(226,315,o),
(251,365,o),
(310,365,cs),
(361,365,o),
(379,350,o),
(446,245,cs),
(507,151,o),
(559,38,o),
(596,38,cs),
(624,38,o),
(640,68,o),
(650,77,cs),
(656,83,o),
(663,77,o),
(660,71,cs),
(651,56,o),
(609,-11,o),
(567,-11,cs),
(485,-11,o),
(471,33,o),
(373,196,cs),
(322,285,o),
(299,315,o),
(269,315,cs),
(249,315,o),
(237,289,o),
(226,281,c),
(215,296,l)
);
},
{
closed = 1;
nodes = (
(30,341,o),
(56,365,o),
(121,365,cs),
(182,365,o),
(215,307,o),
(266,216,cs),
(302,151,o),
(368,38,o),
(407,38,cs),
(427,38,o),
(447,70,o),
(456,75,cs),
(462,79,o),
(463,69,o),
(460,64,cs),
(451,49,o),
(430,-11,o),
(367,-11,cs),
(285,-11,o),
(233,96,o),
(191,176,cs),
(165,225,o),
(146,322,o),
(119,322,cs),
(84,322,o),
(51,296,o),
(41,287,c),
(30,272,l),
(30,307,ls)
);
}
);
width = 676;
}
);
metricLeft = f;
unicode = 109;
},
{
glyphname = n;
kernLeft = i;
kernRight = n;
lastChange = "2024-05-29 22:06:01 +0000";
layers = (
{
anchors = (
{
name = bottom;
pos = (293,0);
},
{
name = top;
pos = (279,348);
}
);
backgroundImage = {
imagePath = "images/alphabet_47-n.png";
locked = 1;
pos = (-129,-300);
scale = (9.8,9.8);
};
layerId = m01;
shapes = (
{
closed = 1;
nodes = (
(281,314,ls),
(266,300,o),
(270,297,o),
(288,301,cs),
(296,303,o),
(314,304,o),
(328,296,cs),
(371,272,o),
(397,240,o),
(397,177,cs),
(397,83,o),
(340,64,o),
(292,64,cs),
(213,64,o),
(179,117,o),
(179,188,c),
(144,172,l),
(179,77,l),
(179,120,o),
(193,-16,o),
(325,-16,cs),
(403,-16,o),
(466,31,o),
(466,132,cs),
(466,276,o),
(339,303,o),
(389,303,c),
(330,359,l)
);
},
{
alignment = -1;
piece = {
height_l = 43.84808;
};
pos = (-3,-141);
ref = _smart.verticalBar;
},
{
alignment = -1;
piece = {
leftSerif = 100;
length = 55.65499;
};
pos = (36,88);
ref = _smart.horizontalBar;
}
);
width = 551;
},
{
anchors = (
{
name = bottom;
pos = (293,-22);
},
{
name = top;
pos = (279,348);
}
);
associatedMasterId = m01;
backgroundImage = {
imagePath = "images/alphabet_47-n.png";
locked = 1;
pos = (-129,-300);
scale = (9.8,9.8);
};
layerId = "BCAD7B56-308D-46BE-AF7F-47FC6090F2A7";
name = short;
shapes = (
{
closed = 1;
nodes = (
(281,314,ls),
(266,300,o),
(270,297,o),
(288,301,cs),
(296,303,o),
(314,304,o),
(328,296,cs),
(371,272,o),
(397,250,o),
(397,178,cs),
(397,93,o),
(340,74,o),
(299,74,cs),
(213,74,o),
(179,117,o),
(179,188,c),
(144,172,l),
(179,77,l),
(179,120,o),
(193,-6,o),
(339,-6,cs),
(403,-6,o),
(466,41,o),
(466,146,cs),
(466,286,o),
(339,303,o),
(389,303,c),
(330,359,l)
);
},
{
alignment = -1;
piece = {
height_l = 40.07186;
};
pos = (-3,-139);
ref = _smart.verticalBar;
},
{
alignment = -1;
piece = {
leftSerif = 100;
length = 55.65499;
};
pos = (36,88);
ref = _smart.horizontalBar;
}
);
width = 551;
},
{
associatedMasterId = m01;
backgroundImage = {
imagePath = "images/alphabet_47-n.png";
locked = 1;
pos = (-129,-300);
scale = (9.8,9.8);
};
layerId = "72D15FF1-4E10-4E75-9FAF-48C4B7B26943";
name = ref;
shapes = (
{
alignment = -1;
ref = i;
}
);
visible = 1;
width = 551;
}
);
metricLeft = h;
unicode = 110;
},
{
glyphname = o;
kernLeft = o;
kernRight = o;
lastChange = "2024-05-29 20:04:40 +0000";
layers = (
{
anchors = (
{
name = top;
pos = (217,356);
}
);
backgroundImage = {
imagePath = "images/alphabet_48-o.png";
locked = 1;
pos = (-107,-266);
scale = (9.8,9.8);
};
layerId = m01;
shapes = (
{
closed = 1;
nodes = (
(447,175,o),
(405,289,o),
(324,334,cs),
(232,384,o),
(156,357,o),
(97,291,cs),
(41,232,o),
(-6,133,o),
(69,36,cs),
(121,-32,o),
(266,-63,o),
(361,62,cs)
);
},
{
closed = 1;
nodes = (
(279,13,o),
(178,40,o),
(134,97,cs),
(97,145,o),
(82,240,o),
(123,283,cs),
(153,314,o),
(220,309,o),
(278,265,cs),
(331,223,o),
(373,105,o),
(314,47,cs)
);
}
);
width = 438;
}
);
metricLeft = b;
metricRight = a;
unicode = 111;
},
{
color = 4;
glyphname = oe;
kernLeft = o;
kernRight = o;
lastChange = "2024-01-23 12:21:07 +0000";
layers = (
{
anchors = (
{
name = top;
pos = (521,364);
}
);
layerId = m01;
shapes = (
{
ref = o;
},
{
closed = 1;
nodes = (
(325,202,o),
(332,206,o),
(337,210,c),
(393,237,l),
(393,279,o),
(450,339,o),
(515,339,cs),
(582,339,o),
(643,283,o),
(643,164,cs),
(643,70,o),
(586,35,o),
(501,-2,cs),
(491,-6,o),
(489,-14,o),
(501,-13,cs),
(582,-7,o),
(745,48,o),
(745,186,cs),
(745,275,o),
(677,371,o),
(545,371,cs),
(393,371,o),
(340,244,o),
(329,214,cs)
);
},
{
alignment = -1;
piece = {
length = 69.27155;
rightSerif = 100;
};
pos = (204,-70);
ref = _smart.horizontalBar;
}
);
width = 775;
}
);
metricLeft = o;
metricRight = o;
unicode = 339;
},
{
glyphname = p;
kernLeft = o;
kernRight = o;
lastChange = "2024-05-29 19:58:48 +0000";
layers = (
{
backgroundImage = {
imagePath = "images/alphabet_49-p.png";
locked = 1;
pos = (-85,-295);
scale = (9.8,9.8);
};
layerId = m01;
shapes = (
{
closed = 1;
nodes = (
(177,364,o),
(30,284,o),
(30,149,cs),
(30,25,o),
(171,-10,o),
(246,-10,cs),
(301,-10,o),
(467,11,o),
(467,144,cs),
(467,195,o),
(419,210,o),
(378,227,cs),
(371,230,o),
(362,230,o),
(356,228,cs),
(336,220,o),
(207,182,o),
(197,178,cs),
(188,174,o),
(191,171,o),
(200,171,cs),
(203,171,o),
(215,172,o),
(215,163,cs),
(215,155,l),
(232,159,o),
(274,178,o),
(296,178,cs),
(320,178,o),
(382,159,o),
(382,107,cs),
(382,82,o),
(370,12,o),
(249,12,cs),
(132,12,o),
(108,84,o),
(108,168,cs),
(108,248,o),
(176,331,o),
(266,331,cs),
(330,331,o),
(366,304,o),
(392,277,cs),
(395,273,o),
(396,269,o),
(400,277,cs),
(412,292,o),
(432,316,o),
(442,324,cs),
(451,331,o),
(454,335,o),
(450,335,cs),
(415,344,o),
(359,364,o),
(284,364,cs)
);
},
{
piece = {
flatEnd = 96.54732;
length = -27.97985;
};
pos = (209,-135);
ref = _smart.verticalBar_noStart.noSerif;
},
{
closed = 1;
nodes = (
(215,82,l),
(215,0,ls),
(215,-110,o),
(153,-173,o),
(111,-210,cs),
(105,-216,o),
(112,-219,o),
(121,-216,cs),
(220,-179,o),
(302,-79,o),
(302,25,cs),
(302,106,l)
);
}
);
width = 497;
}
);
metricLeft = o;
metricRight = o;
unicode = 112;
},
{
glyphname = q;
kernLeft = q;
kernRight = i;
lastChange = "2024-05-29 19:45:40 +0000";
layers = (
{
backgroundImage = {
imagePath = "images/alphabet_50-q.png";
locked = 1;
pos = (-155,-300);
scale = (9.8,9.8);
};
layerId = m01;
shapes = (
{
closed = 1;
nodes = (
(122,363,o),
(31,286,o),
(31,200,cs),
(31,117,o),
(71,76,o),
(139,74,c),
(221,160,l),
(203,160,o),
(188,142,o),
(158,151,cs),
(129,158,o),
(108,187,o),
(108,231,cs),
(108,275,o),
(142,335,o),
(219,335,cs),
(271,335,o),
(321,295,o),
(321,240,cs),
(321,198,l),
(408,235,l),
(408,271,ls),
(408,302,o),
(325,363,o),
(228,363,cs)
);
},
{
closed = 1;
nodes = (
(136,133,l),
(223,142,l),
(223,169,o),
(223,121,o),
(223,179,cs),
(223,186,o),
(223,189,o),
(216,185,cs),
(197,175,o),
(157,161,o),
(136,161,c)
);
},
{
piece = {
length = 16.19625;
};
pos = (315,-83);
ref = _smart.verticalBar_noStart;
},
{
piece = {
flatEnd = 96.54732;
length = -38.95921;
};
pos = (130,-168);
ref = _smart.verticalBar_noStart.noSerif;
},
{
closed = 1;
nodes = (
(136,56,l),
(136,17,ls),
(136,-56,o),
(76,-157,o),
(34,-208,cs),
(28,-214,o),
(29,-219,o),
(38,-214,cs),
(90,-186,o),
(223,-51,o),
(223,33,cs),
(223,77,l)
);
}
);
width = 468;
},
{
anchors = (
{
name = "new anchor";
pos = (408,28);
}
);
associatedMasterId = m01;
backgroundImage = {
imagePath = "images/alphabet_50-q.png";
locked = 1;
pos = (-155,-300);
scale = (9.8,9.8);
};
layerId = "3CF29020-FFCF-4633-A156-AC94421621EE";
name = short;
shapes = (
{
closed = 1;
nodes = (
(122,363,o),
(31,286,o),
(31,200,cs),
(31,117,o),
(71,76,o),
(139,74,c),
(221,160,l),
(203,160,o),
(188,142,o),
(158,151,cs),
(129,158,o),
(108,187,o),
(108,231,cs),
(108,275,o),
(142,335,o),
(219,335,cs),
(271,335,o),
(321,295,o),
(321,240,cs),
(321,198,l),
(408,235,l),
(408,271,ls),
(408,302,o),
(325,363,o),
(228,363,cs)
);
},
{
closed = 1;
nodes = (
(136,133,l),
(223,142,l),
(223,169,o),
(223,121,o),
(223,179,cs),
(223,186,o),
(223,189,o),
(216,185,cs),
(197,175,o),
(157,161,o),
(136,161,c)
);
},
{
piece = {
length = 7.90889;
};
pos = (315,-83);
ref = _smart.verticalBar_noStart;
},
{
piece = {
flatEnd = 96.54732;
length = -38.95921;
};
pos = (130,-168);
ref = _smart.verticalBar_noStart.noSerif;
},
{
closed = 1;
nodes = (
(136,56,l),
(136,17,ls),
(136,-56,o),
(76,-157,o),
(34,-208,cs),
(28,-214,o),
(29,-219,o),
(38,-214,cs),
(90,-186,o),
(223,-51,o),
(223,33,cs),
(223,77,l)
);
}
);
width = 468;
}
);
metricLeft = o;
metricRight = i;
unicode = 113;
},
{
glyphname = r;
kernLeft = i;
kernRight = r;
lastChange = "2024-05-29 20:54:17 +0000";
layers = (
{
anchors = (
{
name = bottom;
pos = (187,-102);
},
{
name = top;
pos = (286,350);
}
);
backgroundImage = {
imagePath = "images/alphabet_51-r.png";
locked = 1;
pos = (-114,-296);
scale = (9.8,9.8);
};
layerId = m01;
shapes = (
{
alignment = -1;
piece = {
height_l = 43.85963;
};
pos = (-3,-141);
ref = _smart.verticalBar;
},
{
closed = 1;
nodes = (
(168,236,l),
(168,252,o),
(240,324,o),
(284,324,cs),
(335,324,o),
(363,284,o),
(363,238,cs),
(363,164,o),
(283,159,o),
(261,155,cs),
(244,152,o),
(248,143,o),
(261,139,cs),
(351,110,o),
(465,165,o),
(465,252,cs),
(465,324,o),
(386,369,o),
(338,369,cs),
(290,369,o),
(203,322,o),
(168,271,c)
);
},
{
closed = 1;
nodes = (
(277,-65,ls),
(277,-166,o),
(323,-217,o),
(402,-217,cs),
(450,-217,o),
(500,-165,o),
(515,-133,cs),
(518,-126,o),
(512,-119,o),
(507,-125,cs),
(487,-149,o),
(459,-166,o),
(430,-166,cs),
(389,-166,o),
(364,-133,o),
(364,-43,cs),
(364,151,l),
(277,139,l)
);
}
);
width = 531;
},
{
anchors = (
{
name = bottom;
pos = (187,-102);
},
{
name = top;
pos = (286,350);
}
);
associatedMasterId = m01;
backgroundImage = {
imagePath = "images/alphabet_51-r.png";
locked = 1;
pos = (-114,-296);
scale = (9.8,9.8);
};
layerId = "F572321D-CEF4-4E3F-86D2-3D9047250357";
name = short;
shapes = (
{
alignment = -1;
piece = {
height_l = 39.3345;
};
pos = (-3,-136);
ref = _smart.verticalBar;
},
{
closed = 1;
nodes = (
(168,236,l),
(168,252,o),
(240,324,o),
(284,324,cs),
(335,324,o),
(363,284,o),
(363,238,cs),
(363,164,o),
(283,159,o),
(261,155,cs),
(244,152,o),
(248,143,o),
(261,139,cs),
(351,110,o),
(465,165,o),
(465,252,cs),
(465,324,o),
(386,369,o),
(338,369,cs),
(290,369,o),
(203,322,o),
(168,271,c)
);
},
{
closed = 1;
nodes = (
(277,-65,ls),
(277,-166,o),
(323,-217,o),
(402,-217,cs),
(450,-217,o),
(500,-165,o),
(515,-133,cs),
(518,-126,o),
(512,-119,o),
(507,-125,cs),
(487,-149,o),
(459,-166,o),
(430,-166,cs),
(389,-166,o),
(364,-133,o),
(364,-43,cs),
(364,151,l),
(277,139,l)
);
}
);
width = 531;
},
{
associatedMasterId = m01;
backgroundImage = {
imagePath = "images/alphabet_51-r.png";
locked = 1;
pos = (-114,-296);
scale = (9.8,9.8);
};
layerId = "33C7DCBF-4512-4AB7-ADA5-66D5FC6E9825";
name = ref;
shapes = (
{
alignment = -1;
ref = i;
}
);
width = 531;
}
);
metricLeft = h;
unicode = 114;
},
{
glyphname = s;
kernLeft = f;
kernRight = o;
lastChange = "2024-05-29 19:46:49 +0000";
layers = (
{
anchors = (
{
name = bottom;
pos = (194,-12);
},
{
name = ogonek;
pos = (304,-6);
},
{
name = top;
pos = (225,352);
}
);
backgroundImage = {
imagePath = "images/alphabet_52-s.png";
locked = 1;
pos = (-140,-326);
scale = (9.8,9.8);
};
layerId = m01;
shapes = (
{
closed = 1;
nodes = (
(216,-34,o),
(220,-37,o),
(228,-35,cs),
(297,-21,o),
(408,15,o),
(408,102,cs),
(408,163,o),
(354,205,o),
(292,205,cs),
(212,205,o),
(131,135,o),
(103,135,c),
(103,94,l),
(117,94,o),
(194,165,o),
(246,165,cs),
(285,165,o),
(315,125,o),
(315,81,cs),
(315,19,o),
(255,-14,o),
(222,-31,cs)
);
},
{
closed = 1;
nodes = (
(351,236,o),
(353,238,o),
(359,248,cs),
(370,263,o),
(387,281,o),
(402,293,cs),
(406,296,o),
(409,296,o),
(398,307,cs),
(370,334,o),
(306,367,o),
(222,367,cs),
(137,367,o),
(32,277,o),
(32,238,cs),
(32,172,l),
(119,218,l),
(119,266,ls),
(119,284,o),
(154,325,o),
(216,325,cs),
(289,325,o),
(323,278,o),
(346,245,cs)
);
},
{
alignment = -1;
piece = {
length = 20.03926;
};
pos = (26,-70);
ref = _smart.verticalBar_noStart;
}
);
width = 438;
},
{
anchors = (
{
name = bottom;
pos = (194,2);
},
{
name = ogonek;
pos = (304,8);
},
{
name = top;
pos = (225,352);
}
);
associatedMasterId = m01;
backgroundImage = {
imagePath = "images/alphabet_52-s.png";
locked = 1;
pos = (-140,-326);
scale = (9.8,9.8);
};
layerId = "657305CD-E340-4F47-ACB7-021A95AED7B3";
name = short;
shapes = (
{
closed = 1;
nodes = (
(216,-20,o),
(220,-23,o),
(228,-21,cs),
(297,-7,o),
(408,29,o),
(408,106,cs),
(408,177,o),
(354,205,o),
(276,205,cs),
(212,205,o),
(131,135,o),
(103,135,c),
(103,94,l),
(117,94,o),
(194,165,o),
(234,165,cs),
(285,165,o),
(315,139,o),
(315,94,cs),
(315,33,o),
(255,0,o),
(222,-17,cs)
);
},
{
closed = 1;
nodes = (
(351,236,o),
(353,238,o),
(359,248,cs),
(370,263,o),
(387,281,o),
(402,293,cs),
(406,296,o),
(409,296,o),
(398,307,cs),
(370,334,o),
(306,367,o),
(222,367,cs),
(137,367,o),
(32,277,o),
(32,238,cs),
(32,172,l),
(119,218,l),
(119,266,ls),
(119,284,o),
(154,325,o),
(216,325,cs),
(289,325,o),
(323,278,o),
(346,245,cs)
);
},
{
alignment = -1;
piece = {
length = 11.23231;
};
pos = (26,-70);
ref = _smart.verticalBar_noStart;
}
);
width = 438;
}
);
metricLeft = f;
metricRight = b;
unicode = 115;
},
{
glyphname = scedilla;
kernLeft = f;
kernRight = o;
lastChange = "2024-05-29 19:49:04 +0000";
layers = (
{
layerId = m01;
shapes = (
{
ref = s;
},
{
closed = 1;
nodes = (
(202,-38,o),
(192,-81,o),
(192,-86,cs),
(192,-110,o),
(244,-137,o),
(244,-166,cs),
(244,-185,o),
(221,-199,o),
(193,-213,cs),
(186,-217,o),
(186,-219,o),
(196,-219,cs),
(226,-218,o),
(314,-199,o),
(314,-154,cs),
(314,-110,o),
(231,-86,o),
(231,-71,cs),
(231,-59,o),
(231,-47,o),
(263,-20,c),
(222,-31,l)
);
}
);
width = 438;
}
);
unicode = 351;
},
{
color = 4;
glyphname = germandbls;
kernLeft = f;
kernRight = o;
lastChange = "2024-01-23 12:27:01 +0000";
layers = (
{
layerId = m01;
shapes = (
{
closed = 1;
nodes = (
(216,-20,o),
(220,-23,o),
(228,-21,cs),
(297,-7,o),
(408,29,o),
(408,107,cs),
(408,195,o),
(266,184,o),
(266,195,cs),
(266,207,o),
(367,227,o),
(367,289,cs),
(367,338,o),
(306,367,o),
(245,367,cs),
(137,367,o),
(32,277,o),
(32,238,cs),
(32,172,l),
(119,218,l),
(119,266,ls),
(119,284,o),
(154,325,o),
(209,325,cs),
(245,325,o),
(291,307,o),
(291,274,cs),
(291,231,o),
(216,198,o),
(216,182,cs),
(216,170,o),
(315,154,o),
(315,86,cs),
(315,33,o),
(255,0,o),
(222,-17,cs)
);
},
{
alignment = -1;
piece = {
length = 11.23231;
};
pos = (26,-70);
ref = _smart.verticalBar_noStart;
}
);
width = 438;
}
);
unicode = 223;
},
{
glyphname = t;
kernLeft = t;
kernRight = i;
lastChange = "2024-05-24 04:43:38 +0000";
layers = (
{
anchors = (
{
name = bottom;
pos = (227,10);
},
{
name = ogonek;
pos = (407,-146);
},
{
name = top;
pos = (234,351);
}
);
backgroundImage = {
imagePath = "images/alphabet_53-t.png";
locked = 1;
pos = (-119,-363);
scale = (9.8,9.8);
};
layerId = m01;
shapes = (
{
closed = 1;
nodes = (
(10,237,o),
(22,230,o),
(32,238,cs),
(99,290,o),
(164,313,o),
(207,313,cs),
(273,313,o),
(320,282,o),
(320,238,cs),
(320,180,l),
(407,229,l),
(407,282,ls),
(407,323,o),
(346,365,o),
(250,365,cs),
(105,365,o),
(44,281,o),
(17,246,cs)
);
},
{
alignment = -1;
piece = {
length = 60.92025;
};
pos = (314,-78);
ref = _smart.verticalBar_noStart;
}
);
width = 467;
}
);
metricLeft = e;
metricRight = i;
unicode = 116;
},
{
glyphname = u;
kernLeft = u;
kernRight = o;
lastChange = "2024-05-24 04:41:56 +0000";
layers = (
{
anchors = (
{
name = ogonek;
pos = (337,6);
},
{
name = top;
pos = (248,368);
}
);
backgroundImage = {
imagePath = "images/alphabet_54-u.png";
locked = 1;
pos = (-117,-331);
scale = (9.8,9.8);
};
layerId = m01;
shapes = (
{
closed = 1;
nodes = (
(37,300,o),
(44,297,o),
(50,301,cs),
(64,310,o),
(106,315,o),
(108,278,cs),
(111,219,o),
(30,195,o),
(30,115,cs),
(30,1,o),
(140,-21,o),
(237,-21,cs),
(367,-21,o),
(507,76,o),
(507,229,cs),
(507,332,o),
(404,364,o),
(353,364,cs),
(332,364,o),
(265,305,o),
(215,289,c),
(237,286,l),
(252,290,o),
(277,297,o),
(283,297,cs),
(324,297,o),
(424,286,o),
(424,189,cs),
(424,134,o),
(388,15,o),
(284,15,cs),
(140,15,o),
(111,71,o),
(111,131,cs),
(111,229,o),
(190,268,o),
(190,318,cs),
(190,354,o),
(169,363,o),
(144,367,cs),
(135,369,o),
(115,366,o),
(104,359,cs),
(92,350,o),
(44,311,o),
(39,303,cs)
);
},
{
closed = 1;
nodes = (
(215,5,l),
(302,5,l),
(302,324,l),
(215,289,l)
);
}
);
width = 537;
}
);
metricLeft = o;
metricRight = o;
unicode = 117;
},
{
glyphname = v;
kernLeft = i;
kernRight = v;
lastChange = "2024-05-29 19:50:37 +0000";
layers = (
{
backgroundImage = {
imagePath = "images/alphabet_55-v.png";
locked = 1;
pos = (-107,-327);
scale = (9.8,9.8);
};
layerId = m01;
shapes = (
{
closed = 1;
nodes = (
(432,221,o),
(331,152,cs),
(227,82,o),
(152,39,o),
(128,34,c),
(92,-21,l),
(290,97,o),
(541,192,o),
(463,326,cs),
(439,367,o),
(381,370,o),
(361,363,cs),
(326,350,o),
(296,335,o),
(263,304,cs),
(253,294,o),
(260,286,o),
(270,294,cs),
(286,306,o),
(315,310,o),
(340,306,cs),
(373,300,o)
);
},
{
piece = {
height_l = 31.63775;
};
pos = (-3,-141);
ref = _smart.verticalBar.noEndSerif;
},
{
closed = 1;
nodes = (
(92,63,l),
(92,-21,l),
(179,41,l),
(179,87,l)
);
}
);
width = 508;
},
{
associatedMasterId = m01;
backgroundImage = {
imagePath = "images/alphabet_55-v.png";
locked = 1;
pos = (-107,-327);
scale = (9.8,9.8);
};
layerId = "0F649877-76D6-4EF3-9BE7-058F9382CFB8";
name = ref;
shapes = (
{
alignment = -1;
ref = i;
}
);
visible = 1;
width = 508;
}
);
metricLeft = h;
metricRight = b;
unicode = 118;
},
{
glyphname = w;
kernLeft = i;
kernRight = v;
lastChange = "2024-05-29 19:51:06 +0000";
layers = (
{
anchors = (
{
name = top;
pos = (344,368);
}
);
backgroundImage = {
imagePath = "images/alphabet_56-w.png";
locked = 1;
pos = (-106,-329);
scale = (9.8,9.8);
};
layerId = m01;
shapes = (
{
closed = 1;
nodes = (
(400,220,o),
(309,152,cs),
(227,82,o),
(152,39,o),
(128,34,c),
(92,-21,l),
(284,106,o),
(521,205,o),
(428,323,cs),
(399,360,o),
(354,368,o),
(336,360,cs),
(304,345,o),
(278,322,o),
(248,296,cs),
(239,288,o),
(244,277,o),
(253,285,cs),
(267,296,o),
(297,312,o),
(317,303,cs),
(349,291,o)
);
},
{
piece = {
height_l = 31.58762;
};
pos = (-3,-141);
ref = _smart.verticalBar.noEndSerif;
},
{
closed = 1;
nodes = (
(92,63,l),
(92,-21,l),
(179,41,l),
(179,87,l)
);
},
{
closed = 1;
nodes = (
(583,230,o),
(494,151,cs),
(421,87,o),
(355,48,o),
(309,13,cs),
(282,-7,o),
(287,-21,o),
(297,-14,cs),
(511,140,o),
(722,200,o),
(629,323,cs),
(600,360,o),
(555,368,o),
(537,360,cs),
(505,345,o),
(464,313,o),
(434,291,cs),
(430,288,o),
(432,276,o),
(441,284,cs),
(461,299,o),
(498,312,o),
(518,303,cs),
(550,291,o)
);
}
);
width = 682;
},
{
associatedMasterId = m01;
backgroundImage = {
imagePath = "images/alphabet_56-w.png";
locked = 1;
pos = (-106,-329);
scale = (9.8,9.8);
};
layerId = "C01EB34D-D755-4630-B6F9-828B288B5C39";
name = ref;
shapes = (
{
alignment = -1;
ref = i;
}
);
visible = 1;
width = 682;
}
);
metricLeft = h;
metricRight = v;
unicode = 119;
},
{
glyphname = x;
kernLeft = x;
kernRight = x;
lastChange = "2023-10-21 09:36:39 +0000";
layers = (
{
backgroundImage = {
imagePath = "images/alphabet_57-x.png";
locked = 1;
pos = (-99,-348);
scale = (9.8,9.8);
};
layerId = m01;
shapes = (
{
closed = 1;
nodes = (
(366,343,o),
(365,338,o),
(374,338,cs),
(381,338,o),
(395,337,o),
(393,317,cs),
(382,210,o),
(30,139,o),
(30,22,cs),
(30,-3,o),
(43,-13,o),
(55,-18,c),
(71,-12,o),
(120,3,o),
(141,3,cs),
(145,3,o),
(145,6,o),
(141,9,cs),
(126,18,o),
(119,36,o),
(125,55,cs),
(154,147,o),
(484,233,o),
(484,334,cs),
(484,363,o),
(467,375,o),
(451,369,cs),
(438,366,o),
(392,348,o),
(376,345,cs)
);
},
{
closed = 1;
nodes = (
(27,274,o),
(35,272,o),
(41,278,cs),
(51,289,o),
(78,306,o),
(99,306,cs),
(162,306,o),
(274,-9,o),
(377,-9,cs),
(417,-9,o),
(472,52,o),
(481,67,cs),
(483,70,o),
(477,76,o),
(474,73,cs),
(466,66,o),
(459,55,o),
(420,55,cs),
(341,55,o),
(234,366,o),
(140,366,cs),
(99,366,o),
(38,301,o),
(31,282,cs)
);
}
);
width = 514;
}
);
metricLeft = o;
metricRight = o;
unicode = 120;
},
{
glyphname = y;
kernLeft = i;
kernRight = v;
lastChange = "2024-05-29 19:51:43 +0000";
layers = (
{
anchors = (
{
name = top;
pos = (258,368);
}
);
backgroundImage = {
imagePath = "images/alphabet_58-y.png";
locked = 1;
pos = (-126,-341);
scale = (9.8,9.8);
};
layerId = m01;
shapes = (
{
alignment = -1;
piece = {
height_l = 50.43158;
};
pos = (2,-141);
ref = _smart.verticalBar;
},
{
closed = 1;
nodes = (
(444,158,o),
(42,-18,o),
(42,-190,cs),
(42,-197,o),
(42,-201,o),
(47,-197,cs),
(77,-167,o),
(115,-148,o),
(154,-134,cs),
(159,-132,o),
(162,-132,o),
(162,-126,cs),
(162,68,o),
(550,181,o),
(481,307,cs),
(448,367,o),
(394,382,o),
(371,372,cs),
(337,358,o),
(292,331,o),
(255,300,cs),
(252,297,o),
(256,288,o),
(264,291,cs),
(279,296,o),
(305,322,o),
(328,322,cs),
(353,322,o),
(378,301,o),
(392,271,cs)
);
}
);
width = 519;
},
{
associatedMasterId = m01;
backgroundImage = {
imagePath = "images/alphabet_58-y.png";
locked = 1;
pos = (-126,-341);
scale = (9.8,9.8);
};
layerId = "93AE9F27-71F9-4B74-B99C-B996DC100A47";
name = ref;
shapes = (
{
alignment = -1;
pos = (5,0);
ref = i;
}
);
visible = 1;
width = 519;
}
);
metricLeft = a;
metricRight = v;
unicode = 121;
},
{
glyphname = z;
kernLeft = b;
kernRight = x;
lastChange = "2024-05-29 20:48:44 +0000";
layers = (
{
anchors = (
{
name = top;
pos = (310,356);
}
);
backgroundImage = {
imagePath = "images/alphabet_59-z.png";
locked = 1;
pos = (-130,-346);
scale = (9.8,9.8);
};
layerId = m01;
shapes = (
{
closed = 1;
nodes = (
(303,-13,l),
(389,28,l),
(389,186,l),
(303,126,l)
);
},
{
closed = 1;
nodes = (
(333,-13,o),
(422,10,o),
(491,71,cs),
(500,79,o),
(496,82,o),
(483,77,cs),
(459,67,o),
(390,34,o),
(324,37,c),
(303,-13,l)
);
},
{
closed = 1;
nodes = (
(452,361,o),
(459,349,o),
(459,349,c),
(153,62,ls),
(139,48,o),
(115,27,o),
(115,89,cs),
(115,147,o),
(177,201,o),
(227,201,cs),
(282,201,o),
(303,171,o),
(303,135,cs),
(303,114,l),
(389,179,l),
(389,192,ls),
(389,214,o),
(344,247,o),
(282,247,cs),
(178,247,o),
(30,143,o),
(30,59,cs),
(30,-4,o),
(76,-17,o),
(101,-17,cs),
(110,-17,o),
(149,14,o),
(170,35,cs),
(277,142,o),
(403,242,o),
(507,355,cs),
(512,360,o),
(519,366,o),
(507,363,c),
(492,361,o),
(479,361,o),
(467,361,cs)
);
},
{
alignment = -1;
piece = {
length = 107.06947;
rightSerif = 100;
};
pos = (-147,90);
ref = _smart.horizontalBar;
}
);
width = 544;
}
);
metricLeft = b;
metricRight = b;
unicode = 122;
},
{
glyphname = r.swsh;
lastChange = "2024-05-29 22:31:20 +0000";
layers = (
{
anchors = (
{
name = bottom;
pos = (187,-102);
},
{
name = top;
pos = (286,350);
}
);
layerId = m01;
shapes = (
{
alignment = -1;
piece = {
height_l = 43.85963;
};
pos = (-3,-141);
ref = _smart.verticalBar;
},
{
closed = 1;
nodes = (
(168,236,l),
(168,252,o),
(240,324,o),
(284,324,cs),
(335,324,o),
(363,284,o),
(363,238,cs),
(363,164,o),
(283,159,o),
(261,155,cs),
(244,152,o),
(248,143,o),
(261,139,cs),
(351,110,o),
(465,165,o),
(465,252,cs),
(465,324,o),
(386,369,o),
(338,369,cs),
(290,369,o),
(203,322,o),
(168,271,c)
);
},
{
closed = 1;
nodes = (
(290,-27,o),
(335,-217,o),
(467,-217,cs),
(564,-217,o),
(681,-116,o),
(681,-91,cs),
(681,-77,o),
(675,-83,o),
(670,-88,cs),
(640,-120,o),
(574,-166,o),
(517,-166,cs),
(382,-166,o),
(364,92,o),
(364,187,c),
(290,139,l)
);
}
);
width = 491;
}
);
},
{
glyphname = f_a;
kernLeft = f;
kernRight = o;
lastChange = "2024-05-29 20:59:22 +0000";
layers = (
{
layerId = m01;
shapes = (
{
piece = {
flatEnd = 0;
length = 50;
};
pos = (26,-113);
ref = _smart.verticalBar_noStart;
},
{
closed = 1;
nodes = (
(364,18,l),
(451,66,l),
(449,268,ls),
(448,344,o),
(392,370,o),
(278,370,cs),
(124,370,o),
(32,277,o),
(32,202,cs),
(32,166,l),
(119,166,l),
(119,225,ls),
(119,290,o),
(152,338,o),
(256,338,cs),
(331,338,o),
(364,310,o),
(364,225,cs)
);
},
{
closed = 1;
nodes = (
(481,266,o),
(510,308,o),
(568,308,cs),
(618,308,o),
(654,291,o),
(674,271,c),
(681,282,o),
(725,323,o),
(730,326,c),
(715,344,o),
(672,364,o),
(620,364,cs),
(532,364,o),
(470,300,o),
(428,249,c),
(428,215,l)
);
},
{
closed = 1;
nodes = (
(420,30,o),
(431,36,o),
(440,36,cs),
(460,36,o),
(503,-8,o),
(566,-8,cs),
(629,-8,o),
(730,23,o),
(730,104,cs),
(730,177,o),
(672,220,o),
(605,220,cs),
(566,220,o),
(456,140,o),
(417,129,c),
(417,19,l)
);
},
{
closed = 1;
nodes = (
(447,113,l),
(485,125,o),
(532,170,o),
(563,170,cs),
(595,170,o),
(642,133,o),
(642,78,cs),
(642,33,o),
(633,30,o),
(593,30,cs),
(544,30,o),
(479,90,o),
(447,135,c)
);
},
{
closed = 1;
nodes = (
(364,73,o),
(364,39,o),
(364,12,cs),
(364,-52,o),
(299,-164,o),
(281,-180,cs),
(275,-186,o),
(280,-189,o),
(286,-186,cs),
(306,-176,o),
(451,-46,o),
(451,25,cs),
(451,74,l),
(364,93,l)
);
}
);
width = 760;
},
{
associatedMasterId = m01;
layerId = "00296E1D-8ECC-4073-B987-EC73846B6236";
name = overlay;
shapes = (
{
alignment = -1;
pos = (70,0);
ref = f;
},
{
alignment = -1;
pos = (319,0);
ref = a;
}
);
visible = 1;
width = 900;
}
);
metricLeft = f;
metricRight = a;
},
{
glyphname = f_f;
kernLeft = f;
kernRight = f;
lastChange = "2024-05-29 21:00:01 +0000";
layers = (
{
layerId = m01;
shapes = (
{
closed = 1;
nodes = (
(32,166,l),
(119,166,l),
(119,225,ls),
(119,290,o),
(152,338,o),
(206,338,cs),
(275,338,o),
(333,290,o),
(333,212,c),
(402,305,l),
(382,331,o),
(340,370,o),
(241,370,cs),
(119,370,o),
(32,282,o),
(32,224,cs)
);
},
{
piece = {
flatEnd = 0;
length = 50;
};
pos = (26,-113);
ref = _smart.verticalBar_noStart;
},
{
alignment = -1;
pos = (301,0);
ref = f;
}
);
width = 739;
},
{
associatedMasterId = m01;
layerId = "A22BDA02-AB7A-4F09-84C2-3AD7CE08A956";
name = overlay;
shapes = (
{
alignment = -1;
pos = (68,0);
ref = f;
},
{
pos = (370,0);
ref = f;
}
);
visible = 1;
width = 876;
}
);
metricLeft = f;
metricRight = f;
},
{
glyphname = f_i;
kernLeft = f;
kernRight = i;
lastChange = "2024-05-29 21:00:30 +0000";
layers = (
{
anchors = (
{
name = height_l;
pos = (364,-15.961);
}
);
hints = (
{
name = _corner.a;
origin = (1,0);
scale = (0.3,0.5);
type = Corner;
}
);
layerId = m01;
shapes = (
{
piece = {
flatEnd = 0;
length = 50;
};
pos = (26,-113);
ref = _smart.verticalBar_noStart;
},
{
closed = 1;
nodes = (
(364,-48,l),
(451,0,l),
(449,268,ls),
(448,344,o),
(392,370,o),
(278,370,cs),
(124,370,o),
(32,277,o),
(32,202,cs),
(32,166,l),
(119,166,l),
(119,225,ls),
(119,290,o),
(152,338,o),
(256,338,cs),
(331,338,o),
(364,310,o),
(364,225,cs)
);
}
);
width = 511;
},
{
associatedMasterId = m01;
layerId = "BB8D0A27-FBFC-450D-993E-5E1FD968AD4A";
name = overlay;
shapes = (
{
alignment = -1;
pos = (73,0);
ref = f;
},
{
pos = (335,0);
ref = i;
}
);
visible = 1;
width = 657;
}
);
metricLeft = f;
metricRight = i;
},
{
glyphname = r_a;
kernLeft = i;
kernRight = o;
lastChange = "2024-05-29 22:34:16 +0000";
layers = (
{
layerId = m01;
shapes = (
{
alignment = -1;
piece = {
height_l = 43.81006;
};
pos = (-3,-141);
ref = _smart.verticalBar;
},
{
closed = 1;
nodes = (
(168,236,l),
(168,252,o),
(240,324,o),
(284,324,cs),
(335,324,o),
(363,284,o),
(363,238,cs),
(363,164,o),
(283,159,o),
(261,155,cs),
(244,152,o),
(248,143,o),
(261,139,cs),
(351,110,o),
(465,165,o),
(465,252,cs),
(465,324,o),
(386,369,o),
(338,369,cs),
(290,369,o),
(203,322,o),
(168,271,c)
);
},
{
closed = 1;
nodes = (
(704,25,cs),
(704,74,l),
(617,93,l),
(617,73,o),
(617,39,o),
(617,12,cs),
(617,-126,o),
(561,-156,o),
(478,-180,cs),
(395,-204,o),
(364,-133,o),
(364,-43,cs),
(364,151,l),
(277,139,l),
(277,-65,ls),
(277,-166,o),
(323,-233,o),
(438,-213,cs),
(541,-195,o),
(704,-98,o)
);
},
{
closed = 1;
nodes = (
(734,266,o),
(763,308,o),
(821,308,cs),
(871,308,o),
(907,291,o),
(927,271,c),
(934,282,o),
(978,323,o),
(983,326,c),
(968,344,o),
(925,364,o),
(873,364,cs),
(785,364,o),
(723,300,o),
(681,249,c),
(681,215,l)
);
},
{
closed = 1;
nodes = (
(673,30,o),
(684,36,o),
(693,36,cs),
(713,36,o),
(756,-8,o),
(819,-8,cs),
(882,-8,o),
(983,23,o),
(983,104,cs),
(983,177,o),
(925,220,o),
(858,220,cs),
(819,220,o),
(709,140,o),
(670,129,c),
(670,19,l)
);
},
{
closed = 1;
nodes = (
(700,113,l),
(738,125,o),
(785,170,o),
(816,170,cs),
(848,170,o),
(895,133,o),
(895,78,cs),
(895,33,o),
(886,30,o),
(846,30,cs),
(797,30,o),
(732,90,o),
(700,135,c)
);
},
{
piece = {
height_l = 32.90789;
};
pos = (522,-141);
ref = _smart.verticalBar.noEndSerif;
}
);
width = 1013;
},
{
associatedMasterId = m01;
layerId = "D68F8C97-1603-472E-9516-D806DE2FD718";
name = overlay;
shapes = (
{
ref = r;
},
{
pos = (511,0);
ref = a;
}
);
visible = 1;
width = 1013;
}
);
metricLeft = r;
metricRight = a;
},
{
glyphname = r_f;
kernLeft = i;
kernRight = f;
lastChange = "2024-05-29 22:34:19 +0000";
layers = (
{
layerId = m01;
shapes = (
{
alignment = -1;
piece = {
height_l = 43.83752;
};
pos = (-3,-141);
ref = _smart.verticalBar;
},
{
closed = 1;
nodes = (
(168,236,l),
(168,252,o),
(240,324,o),
(284,324,cs),
(335,324,o),
(363,284,o),
(363,238,cs),
(363,164,o),
(283,159,o),
(261,155,cs),
(244,152,o),
(248,143,o),
(261,139,cs),
(351,110,o),
(465,165,o),
(465,252,cs),
(465,324,o),
(386,369,o),
(338,369,cs),
(290,369,o),
(203,322,o),
(168,271,c)
);
},
{
closed = 1;
nodes = (
(277,-65,ls),
(277,-166,o),
(344,-217,o),
(450,-217,cs),
(519,-217,o),
(650,-173,o),
(650,-56,cs),
(650,20,l),
(563,17,l),
(563,-40,ls),
(563,-166,o),
(509,-192,o),
(463,-192,cs),
(407,-192,o),
(364,-133,o),
(364,-43,cs),
(364,151,l),
(277,139,l)
);
},
{
closed = 1;
nodes = (
(563,166,l),
(650,166,l),
(650,225,ls),
(650,290,o),
(683,338,o),
(742,338,cs),
(806,338,o),
(864,252,o),
(884,212,cs),
(887,207,o),
(890,208,o),
(893,212,cs),
(907,231,o),
(928,254,o),
(945,268,cs),
(948,271,o),
(957,276,o),
(953,281,cs),
(932,307,o),
(864,370,o),
(772,370,cs),
(650,370,o),
(563,282,o),
(563,224,cs)
);
},
{
piece = {
flatEnd = 100;
length = 4.47281;
};
pos = (557,-113);
ref = _smart.verticalBar_noStart;
}
);
width = 969;
},
{
associatedMasterId = m01;
layerId = "E5D98565-2554-4337-B9DD-A612ECB8F21A";
name = overlay;
shapes = (
{
ref = r;
},
{
pos = (531,0);
ref = f;
}
);
visible = 1;
width = 969;
}
);
metricLeft = r;
metricRight = f;
},
{
glyphname = r_h;
kernLeft = i;
kernRight = k;
lastChange = "2024-05-29 22:34:20 +0000";
layers = (
{
layerId = m01;
shapes = (
{
alignment = -1;
piece = {
height_l = 43.76558;
};
pos = (-3,-141);
ref = _smart.verticalBar;
},
{
closed = 1;
nodes = (
(168,236,l),
(168,252,o),
(240,324,o),
(284,324,cs),
(335,324,o),
(363,284,o),
(363,238,cs),
(363,164,o),
(283,159,o),
(261,155,cs),
(244,152,o),
(248,143,o),
(261,139,cs),
(351,110,o),
(465,165,o),
(465,252,cs),
(465,324,o),
(386,369,o),
(338,369,cs),
(290,369,o),
(203,322,o),
(168,271,c)
);
},
{
closed = 1;
nodes = (
(569,-122,o),
(543,-176,o),
(455,-176,cs),
(393,-176,o),
(364,-133,o),
(364,-43,cs),
(364,151,l),
(277,139,l),
(277,-65,ls),
(277,-147,o),
(347,-205,o),
(426,-205,cs),
(512,-205,o),
(658,-183,o),
(658,38,cs),
(658,91,l),
(658,500,l),
(658,525,o),
(644,554,o),
(622,541,cs),
(576,514,o),
(543,491,o),
(497,472,cs),
(493,470,o),
(493,465,o),
(502,465,cs),
(511,465,o),
(529,464,o),
(539,462,cs),
(564,457,o),
(571,447,o),
(571,423,c),
(571,85,l),
(570,-7,ls)
);
},
{
closed = 1;
nodes = (
(667,153,o),
(722,178,o),
(785,214,cs),
(848,255,o),
(901,263,o),
(901,339,cs),
(901,357,o),
(899,360,o),
(889,358,cs),
(857,349,o),
(821,346,o),
(796,346,cs),
(785,346,o),
(786,340,o),
(792,337,cs),
(801,331,o),
(821,321,o),
(816,299,cs),
(811,277,o),
(795,247,o),
(745,221,cs),
(693,194,o),
(667,186,o),
(647,184,c),
(647,143,l)
);
},
{
closed = 1;
nodes = (
(732,194,l),
(838,194,o),
(864,137,o),
(864,98,cs),
(864,38,o),
(803,-24,o),
(759,-52,cs),
(752,-57,o),
(754,-61,o),
(764,-58,cs),
(841,-34,o),
(961,35,o),
(961,117,cs),
(961,195,o),
(884,224,o),
(778,224,c)
);
}
);
width = 991;
},
{
associatedMasterId = m01;
layerId = "C6CA6976-9C30-4C67-8DD4-6B50A28C25DD";
name = overlay;
shapes = (
{
ref = r;
},
{
pos = (501,0);
ref = h;
}
);
visible = 1;
width = 1013;
}
);
metricLeft = r;
metricRight = h;
},
{
glyphname = r_y;
kernLeft = i;
kernRight = v;
lastChange = "2024-05-29 22:34:22 +0000";
layers = (
{
layerId = m01;
shapes = (
{
alignment = -1;
piece = {
height_l = 44.63378;
};
pos = (-3,-136);
ref = _smart.verticalBar;
},
{
closed = 1;
nodes = (
(168,236,l),
(168,252,o),
(240,324,o),
(284,324,cs),
(335,324,o),
(363,284,o),
(363,238,cs),
(363,164,o),
(283,159,o),
(261,155,cs),
(244,152,o),
(248,143,o),
(261,139,cs),
(351,110,o),
(465,165,o),
(465,252,cs),
(465,324,o),
(386,369,o),
(338,369,cs),
(290,369,o),
(203,322,o),
(168,271,c)
);
},
{
closed = 1;
nodes = (
(462,-190,o),
(364,-240,o),
(364,-43,cs),
(364,151,l),
(277,139,l),
(277,-65,ls),
(277,-409,o),
(477,-233,o),
(714,-8,cs),
(859,129,o),
(1028,181,o),
(959,307,cs),
(926,367,o),
(872,382,o),
(849,372,cs),
(815,358,o),
(770,331,o),
(733,300,cs),
(730,297,o),
(734,288,o),
(742,291,cs),
(757,296,o),
(783,322,o),
(806,322,cs),
(831,322,o),
(856,301,o),
(870,271,cs),
(922,158,o),
(733,57,o),
(599,-65,cs)
);
},
{
alignment = -1;
piece = {
height_l = 53.76118;
};
pos = (480,-135);
ref = _smart.verticalBar;
}
);
width = 1005;
},
{
associatedMasterId = m01;
layerId = "53FAC2EC-F767-440E-98B5-021AC10D2490";
name = overlay;
shapes = (
{
ref = r;
},
{
pos = (501,0);
ref = y;
}
);
width = 1020;
}
);
metricLeft = r;
metricRight = y;
},
{
glyphname = a.sc;
kernLeft = i;
kernRight = o;
lastChange = "2024-05-29 22:07:54 +0000";
layers = (
{
anchors = (
{
name = ogonek;
pos = (383,12);
},
{
name = top;
pos = (263,369);
}
);
layerId = m01;
shapes = (
{
closed = 1;
nodes = (
(223,266,o),
(252,308,o),
(310,308,cs),
(360,308,o),
(396,291,o),
(416,271,c),
(423,282,o),
(467,323,o),
(472,326,c),
(457,344,o),
(414,364,o),
(362,364,cs),
(274,364,o),
(212,300,o),
(170,249,c),
(170,215,l)
);
},
{
closed = 1;
nodes = (
(162,30,o),
(170,43,o),
(179,43,cs),
(199,43,o),
(245,-8,o),
(316,-8,cs),
(371,-8,o),
(472,23,o),
(472,111,cs),
(472,177,o),
(414,220,o),
(369,220,cs),
(308,220,o),
(198,140,o),
(159,129,c),
(159,19,l)
);
},
{
closed = 1;
nodes = (
(189,113,l),
(227,130,o),
(274,170,o),
(306,170,cs),
(337,170,o),
(384,133,o),
(384,63,cs),
(384,33,o),
(375,30,o),
(359,30,cs),
(286,30,o),
(221,90,o),
(189,135,c)
);
},
{
alignment = -1;
piece = {
height_l = 43.78058;
};
pos = (11,-141);
ref = _smart.verticalBar;
}
);
width = 502;
},
{
associatedMasterId = m01;
layerId = "2351D1EA-4E0A-42D6-894C-A190C549EB76";
name = ref;
shapes = (
{
ref = a;
}
);
width = 502;
},
{
associatedMasterId = m01;
layerId = "265A2D52-5112-43B2-9580-E7E047E4B82E";
name = cap;
shapes = (
{
alignment = -1;
pos = (33,0);
ref = A;
scale = (0.7819,0.7215);
}
);
visible = 1;
width = 485;
}
);
},
{
glyphname = ae.sc;
kernLeft = i;
kernRight = o;
lastChange = "2024-05-29 22:07:58 +0000";
layers = (
{
associatedMasterId = m01;
layerId = "3ED1E01E-51D4-4029-8B64-2E8127FAFB97";
name = ref;
shapes = (
{
ref = ae;
}
);
visible = 1;
width = 828;
},
{
anchors = (
{
name = ogonek;
pos = (383,12);
},
{
name = top;
pos = (263,369);
}
);
associatedMasterId = m01;
layerId = "E8D4301B-7942-4F81-8E78-045B52C20AD6";
name = "May 29, 24 at 18:03";
shapes = (
{
closed = 1;
nodes = (
(223,266,o),
(252,308,o),
(310,308,cs),
(360,308,o),
(396,291,o),
(416,271,c),
(423,282,o),
(467,323,o),
(472,326,c),
(457,344,o),
(414,364,o),
(362,364,cs),
(274,364,o),
(212,300,o),
(170,249,c),
(170,215,l)
);
},
{
closed = 1;
nodes = (
(162,30,o),
(170,53,o),
(179,53,cs),
(199,53,o),
(245,-8,o),
(308,-8,cs),
(371,-8,o),
(472,23,o),
(472,104,cs),
(472,177,o),
(414,220,o),
(347,220,cs),
(308,220,o),
(198,140,o),
(159,129,c),
(159,19,l)
);
},
{
closed = 1;
nodes = (
(189,113,l),
(227,125,o),
(274,170,o),
(305,170,cs),
(337,170,o),
(384,133,o),
(384,78,cs),
(384,33,o),
(375,30,o),
(335,30,cs),
(286,30,o),
(221,90,o),
(189,135,c)
);
},
{
closed = 1;
nodes = (
(404,203,l),
(422,261,o),
(478,319,o),
(552,319,cs),
(610,319,o),
(696,283,o),
(696,164,cs),
(696,70,o),
(639,35,o),
(554,-2,cs),
(544,-6,o),
(542,-14,o),
(554,-13,cs),
(635,-7,o),
(798,48,o),
(798,186,cs),
(798,275,o),
(730,364,o),
(599,364,cs),
(446,364,o),
(393,244,o),
(382,214,c)
);
},
{
alignment = -1;
piece = {
length = 70.53215;
rightSerif = 100;
};
pos = (254,-70);
ref = _smart.horizontalBar;
}
);
width = 828;
},
{
hints = (
{
name = _corner.a;
origin = (2,32);
scale = (0.00951,0);
type = Corner;
}
);
layerId = m01;
name = Regular;
shapes = (
{
closed = 1;
nodes = (
(168,30,o),
(179,36,o),
(187,36,cs),
(206,36,o),
(247,-8,o),
(307,-8,cs),
(367,-8,o),
(463,23,o),
(463,104,cs),
(463,177,o),
(408,220,o),
(344,220,cs),
(307,220,o),
(202,140,o),
(165,129,c),
(165,19,l)
);
},
{
closed = 1;
nodes = (
(194,113,l),
(230,125,o),
(275,170,o),
(304,170,cs),
(335,170,o),
(379,133,o),
(379,78,cs),
(379,33,o),
(371,30,o),
(333,30,cs),
(286,30,o),
(224,90,o),
(194,135,c)
);
},
{
closed = 1;
nodes = (
(367,244,ls),
(418,244,o),
(482,333,o),
(546,333,cs),
(597,333,o),
(683,277,o),
(683,150,cs),
(683,78,o),
(655,8,o),
(581,8,cs),
(529,8,o),
(509,43,o),
(496,51,cs),
(494,52,o),
(487,43,o),
(477,33,cs),
(468,24,o),
(452,12,o),
(452,11,cs),
(452,4,o),
(502,-25,o),
(557,-25,cs),
(648,-25,o),
(769,56,o),
(769,171,cs),
(769,269,o),
(685,365,o),
(588,365,cs),
(508,365,o),
(468,300,o),
(408,300,cs),
(185,300,l),
(130,244,l)
);
},
{
alignment = -1;
pos = (14,0);
ref = i;
},
{
alignment = -1;
piece = {
length = 57.30922;
rightSerif = 100;
};
pos = (259,-68);
ref = _smart.horizontalBar;
}
);
width = 808;
}
);
},
{
glyphname = b.sc;
kernLeft = b;
kernRight = o;
lastChange = "2024-05-29 22:08:21 +0000";
layers = (
{
layerId = m01;
shapes = (
{
closed = 1;
nodes = (
(217,329,l),
(217,75,l),
(367,75,o),
(474,167,o),
(474,251,cs),
(474,311,o),
(420,373,o),
(338,373,cs),
(200,373,o),
(30,198,o),
(30,71,cs),
(30,-13,o),
(104,-36,o),
(174,-36,cs),
(287,-36,o),
(378,24,o),
(425,69,cs),
(435,78,o),
(431,86,o),
(420,79,cs),
(359,39,o),
(307,9,o),
(241,9,cs),
(144,9,o),
(113,74,o),
(113,124,cs),
(113,189,o),
(167,285,o),
(217,321,cs),
(243,340,o),
(268,342,o),
(282,342,cs),
(358,342,o),
(394,280,o),
(394,232,cs),
(394,189,o),
(366,129,o),
(304,113,c),
(304,360,l)
);
}
);
width = 504;
},
{
associatedMasterId = m01;
layerId = "6B60C989-5DAC-44D4-BB22-59FA64FF9D18";
name = ref;
shapes = (
{
ref = b;
}
);
width = 504;
},
{
associatedMasterId = m01;
layerId = "AF8EE068-03F9-4775-8C48-131057EC2C0B";
name = cap;
shapes = (
{
alignment = -1;
pos = (-33,-9);
ref = B;
scale = (0.8347,0.7336);
}
);
visible = 1;
width = 418;
}
);
},
{
glyphname = c.sc;
kernLeft = o;
kernRight = i;
lastChange = "2024-05-29 22:09:06 +0000";
layers = (
{
anchors = (
{
name = flatEnd;
pos = (416,0.184);
},
{
name = ogonek;
pos = (416,0);
},
{
name = top;
pos = (250,342);
}
);
layerId = m01;
shapes = (
{
closed = 1;
nodes = (
(329,-13,l),
(416,0,l),
(416,358,l),
(329,346,l)
);
},
{
closed = 1;
nodes = (
(32,12,o),
(206,-31,o),
(311,-31,cs),
(368,-31,o),
(416,-2,o),
(416,0,c),
(301,0,o),
(130,42,o),
(130,143,cs),
(130,248,o),
(349,347,o),
(416,347,c),
(416,374,l),
(306,374,o),
(32,281,o),
(32,128,cs)
);
}
);
width = 466;
},
{
associatedMasterId = m01;
layerId = "4C2EBE94-D428-47F8-A438-D8AF0C972F0D";
name = ref;
shapes = (
{
ref = c;
}
);
visible = 1;
width = 476;
},
{
associatedMasterId = m01;
layerId = "F4DAC0FA-5E4D-4C0B-B1CC-BCAD9742B60A";
name = cap;
shapes = (
{
alignment = -1;
pos = (-35,0);
ref = C;
scale = (0.8602,0.7514);
}
);
width = 399;
}
);
},
{
glyphname = d.sc;
kernLeft = o;
kernRight = f;
lastChange = "2024-05-29 22:09:12 +0000";
layers = (
{
anchors = (
{
name = ogonek;
pos = (318,0);
},
{
name = top;
pos = (268,342);
}
);
layerId = m01;
shapes = (
{
closed = 1;
nodes = (
(231,-13,l),
(318,0,l),
(318,358,l),
(231,346,l)
);
},
{
closed = 1;
nodes = (
(15,-22,o),
(108,-31,o),
(166,-31,cs),
(270,-31,o),
(318,-2,o),
(318,0,c),
(203,0,o),
(101,8,o),
(101,108,cs),
(101,214,o),
(216,347,o),
(307,347,cs),
(403,347,o),
(427,200,o),
(430,200,cs),
(434,200,o),
(448,220,o),
(469,237,cs),
(486,251,o),
(497,256,o),
(497,258,cs),
(497,284,o),
(433,374,o),
(341,374,cs),
(231,374,o),
(15,247,o),
(15,85,cs)
);
}
);
width = 522;
},
{
associatedMasterId = m01;
layerId = "30B26A12-C719-4D45-BB77-8D380F167F29";
name = ref;
shapes = (
{
ref = d;
}
);
width = 519;
},
{
associatedMasterId = m01;
layerId = "2EE08359-7447-4CD7-A710-93DB91243D65";
name = cap;
shapes = (
{
alignment = -1;
pos = (15,0);
ref = D;
scale = (0.8349,0.7248);
}
);
width = 535;
}
);
},
{
glyphname = e.sc;
kernLeft = e.sc;
kernRight = o;
lastChange = "2024-05-29 22:09:26 +0000";
layers = (
{
anchors = (
{
name = bottom;
pos = (278,-14);
},
{
name = ogonek;
pos = (362,15);
},
{
name = top;
pos = (229,364);
}
);
layerId = m01;
shapes = (
{
alignment = -1;
piece = {
length = 88.67572;
rightSerif = 100;
};
pos = (-145,-59);
ref = _smart.horizontalBar;
},
{
closed = 1;
nodes = (
(348,-26,o),
(453,40,o),
(453,156,cs),
(453,261,o),
(368,346,o),
(278,346,cs),
(219,346,o),
(169,309,o),
(124,309,cs),
(101,309,o),
(86,319,o),
(86,346,cs),
(86,369,o),
(112,382,o),
(111,385,cs),
(110,388,o),
(106,385,o),
(104,385,cs),
(99,383,o),
(49,348,o),
(27,339,cs),
(25,338,o),
(24,336,o),
(24,332,cs),
(24,306,o),
(22,256,o),
(83,256,cs),
(143,256,o),
(191,304,o),
(245,304,cs),
(322,304,o),
(361,208,o),
(361,129,cs),
(361,49,o),
(322,6,o),
(249,6,cs),
(193,6,o),
(150,32,o),
(119,56,cs),
(110,63,o),
(106,55,o),
(104,53,cs),
(97,47,o),
(71,29,o),
(67,26,cs),
(59,21,o),
(54,20,o),
(58,16,cs),
(98,-16,o),
(163,-26,o),
(215,-26,cs)
);
}
);
width = 483;
},
{
associatedMasterId = m01;
layerId = "AD9FC07C-BC38-476C-9E7D-B948D05B251B";
name = ref;
shapes = (
{
ref = e;
}
);
width = 462;
},
{
associatedMasterId = m01;
layerId = "604DE57A-F333-46BE-B408-9E2998F9D548";
name = cap;
shapes = (
{
alignment = -1;
pos = (-24,0);
ref = E;
scale = (0.765,0.765);
}
);
visible = 1;
width = 481;
}
);
},
{
glyphname = f.sc;
kernLeft = f;
kernRight = f;
lastChange = "2024-05-29 22:09:47 +0000";
layers = (
{
layerId = m01;
shapes = (
{
closed = 1;
nodes = (
(32,166,l),
(119,166,l),
(119,225,ls),
(119,290,o),
(152,338,o),
(211,338,cs),
(275,338,o),
(333,252,o),
(353,212,cs),
(356,207,o),
(359,208,o),
(362,212,cs),
(376,231,o),
(397,254,o),
(414,268,cs),
(417,271,o),
(426,276,o),
(422,281,cs),
(401,307,o),
(333,370,o),
(241,370,cs),
(119,370,o),
(32,282,o),
(32,224,cs)
);
},
{
piece = {
flatEnd = 0;
length = 7.3373;
};
pos = (26,-113);
ref = _smart.verticalBar_noStart;
}
);
width = 438;
},
{
associatedMasterId = m01;
layerId = "6A59E018-445E-41D5-BA82-9870D53A6C6F";
name = ref;
shapes = (
{
ref = f;
}
);
width = 438;
},
{
associatedMasterId = m01;
layerId = "A5BCA324-C479-4295-8EA1-86CF48C26A37";
name = cap;
shapes = (
{
alignment = -1;
ref = F;
scale = (0.8811,0.7364);
}
);
width = 453;
}
);
},
{
glyphname = h.sc;
kernLeft = i;
kernRight = k;
lastChange = "2024-05-29 22:10:34 +0000";
layers = (
{
layerId = m01;
shapes = (
{
closed = 1;
nodes = (
(183,170,o),
(238,195,o),
(297,231,cs),
(364,272,o),
(422,296,o),
(422,356,cs),
(422,367,o),
(420,370,o),
(410,368,cs),
(378,359,o),
(342,356,o),
(317,356,cs),
(306,356,o),
(307,350,o),
(313,347,cs),
(322,341,o),
(342,331,o),
(337,307,cs),
(332,287,o),
(311,264,o),
(250,232,cs),
(209,211,o),
(183,203,o),
(163,201,c),
(163,160,l)
);
},
{
closed = 1;
nodes = (
(259,217,l),
(365,217,o),
(385,153,o),
(385,114,cs),
(385,54,o),
(324,-18,o),
(280,-46,cs),
(273,-51,o),
(275,-55,o),
(285,-52,cs),
(362,-28,o),
(482,51,o),
(482,140,cs),
(482,211,o),
(405,243,o),
(299,243,c)
);
},
{
alignment = -1;
piece = {
height_l = 43.84808;
};
pos = (-3,-141);
ref = _smart.verticalBar;
}
);
width = 512;
},
{
associatedMasterId = m01;
layerId = "5F20F69C-AEFD-4423-8DA6-EAE2957BEF88";
name = ref;
shapes = (
{
ref = h;
}
);
width = 512;
},
{
associatedMasterId = m01;
layerId = "CB774C1D-706E-44F2-ACDE-2DF68F924ECF";
name = cap;
shapes = (
{
alignment = -1;
pos = (55,-5);
ref = H;
scale = (0.8247,0.7845);
}
);
visible = 1;
width = 575;
}
);
},
{
glyphname = j.sc;
kernLeft = i;
kernRight = j;
lastChange = "2024-05-29 22:11:16 +0000";
layers = (
{
anchors = (
{
name = top;
pos = (119,330);
}
);
layerId = m01;
shapes = (
{
alignment = -1;
piece = {
leftSerif = 100;
length = 85.46994;
};
pos = (-144,-70);
ref = _smart.horizontalBar;
},
{
closed = 1;
nodes = (
(92,133,ls),
(92,13,o),
(157,-29,o),
(289,-29,cs),
(395,-29,o),
(458,65,o),
(473,93,cs),
(477,100,o),
(472,107,o),
(467,102,cs),
(429,66,o),
(378,28,o),
(296,28,cs),
(183,28,o),
(179,100,o),
(179,188,cs),
(179,264,l),
(92,207,l)
);
},
{
piece = {
height_l = 5.83268;
};
pos = (-3,-141);
ref = _smart.verticalBar.noEndSerif;
}
);
width = 504;
},
{
associatedMasterId = m01;
layerId = "F9F5F8ED-44BE-435E-87A1-A5E3D26A9A73";
name = ref;
shapes = (
{
ref = j;
}
);
width = 504;
},
{
associatedMasterId = m01;
layerId = "295E76E1-A1E2-4F8B-8977-BFD9ACBF11D0";
name = cap;
shapes = (
{
alignment = -1;
pos = (15,0);
ref = J;
scale = (0.8134,0.7316);
}
);
visible = 1;
width = 490;
}
);
},
{
glyphname = k.sc;
kernLeft = i;
kernRight = k;
lastChange = "2024-05-29 22:11:32 +0000";
layers = (
{
anchors = (
{
name = bottom;
pos = (265,0);
}
);
layerId = m01;
shapes = (
{
closed = 1;
nodes = (
(149,308,l),
(149,221,l),
(178,221,l),
(178,266,o),
(246,310,o),
(303,310,cs),
(338,310,o),
(377,293,o),
(377,240,cs),
(377,190,o),
(342,168,o),
(304,168,c),
(285,156,l),
(293,124,l),
(341,124,o),
(470,182,o),
(470,274,cs),
(470,325,o),
(431,362,o),
(355,362,cs),
(230,362,o),
(178,260,o),
(178,308,c)
);
},
{
alignment = -1;
piece = {
height_l = 16.07809;
};
pos = (-3,-141);
ref = _smart.verticalBar;
},
{
closed = 1;
nodes = (
(316,177,ls),
(316,192,o),
(314,192,o),
(303,187,cs),
(273,175,o),
(229,165,o),
(217,161,cs),
(214,160,o),
(217,158,o),
(223,155,cs),
(228,152,o),
(229,134,o),
(229,117,cs),
(229,23,o),
(198,-2,o),
(128,-29,cs),
(121,-32,o),
(123,-39,o),
(132,-39,cs),
(170,-39,o),
(316,0,o),
(316,119,cs)
);
}
);
width = 500;
},
{
associatedMasterId = m01;
layerId = "647A7DA1-004E-41ED-89CB-1CAF529A5001";
name = ref;
shapes = (
{
ref = k;
}
);
width = 500;
},
{
associatedMasterId = m01;
layerId = "8142F7EB-821E-4939-994E-4750C55A4094";
name = cap;
shapes = (
{
alignment = -1;
pos = (-17,0);
ref = K;
scale = (0.8116,0.7327);
}
);
width = 411;
}
);
},
{
glyphname = l.sc;
kernLeft = L;
kernRight = l;
lastChange = "2024-05-29 22:11:57 +0000";
layers = (
{
anchors = (
{
name = bottom;
pos = (211,-12);
},
{
name = top;
pos = (193,326);
}
);
hints = (
{
name = _corner.a;
origin = (0,1);
scale = (0.01,0);
type = Corner;
}
);
layerId = m01;
shapes = (
{
closed = 1;
nodes = (
(78,34,l),
(21,-22,l),
(293,-22,ls),
(326,-22,o),
(406,66,o),
(398,66,cs),
(392,66,o),
(375,48,o),
(350,41,cs),
(327,35,o),
(246,34,o),
(234,34,c)
);
},
{
alignment = -1;
piece = {
height_l = 38.6062;
};
pos = (67,-141);
ref = _smart.verticalBar;
}
);
width = 428;
},
{
associatedMasterId = m01;
layerId = "D808A1B0-D298-483C-9339-2E477E5FF995";
name = ref;
shapes = (
{
ref = l;
}
);
width = 368;
},
{
associatedMasterId = m01;
layerId = "77213DC4-FAD0-4CEF-8AEC-879485A7BEB9";
name = cap;
shapes = (
{
alignment = -1;
pos = (-46,0);
ref = L;
scale = (0.776,0.7369);
}
);
visible = 1;
width = 397;
}
);
},
{
glyphname = lslash.sc;
kernLeft = L;
kernRight = l;
lastChange = "2024-05-29 22:11:57 +0000";
layers = (
{
layerId = m01;
shapes = (
{
ref = l.sc;
},
{
closed = 1;
nodes = (
(106,86,l),
(350,187,l),
(360,256,l),
(116,155,l)
);
}
);
width = 428;
}
);
},
{
glyphname = oe.sc;
kernLeft = o;
kernRight = o;
lastChange = "2024-05-29 22:12:24 +0000";
layers = (
{
layerId = m01;
shapes = (
{
pos = (1,0);
ref = o;
scale = (0.9471,1);
},
{
closed = 1;
nodes = (
(318,186,o),
(324,190,o),
(329,194,c),
(381,221,l),
(381,263,o),
(443,333,o),
(505,333,cs),
(565,333,o),
(621,267,o),
(621,168,cs),
(621,62,o),
(556,12,o),
(487,12,cs),
(430,12,o),
(410,47,o),
(397,55,cs),
(395,56,o),
(388,47,o),
(378,37,cs),
(369,28,o),
(353,16,o),
(353,15,cs),
(353,8,o),
(403,-21,o),
(459,-21,cs),
(546,-21,o),
(705,49,o),
(705,195,cs),
(705,278,o),
(653,365,o),
(537,365,cs),
(391,365,o),
(332,228,o),
(322,198,cs)
);
},
{
alignment = -1;
piece = {
length = 58.81773;
rightSerif = 100;
};
pos = (181,-72);
ref = _smart.horizontalBar;
}
);
width = 735;
},
{
associatedMasterId = m01;
layerId = "F224AD69-F6B1-4E66-BB93-05CBFF4234EC";
name = ref;
shapes = (
{
ref = oe;
}
);
visible = 1;
width = 775;
}
);
},
{
glyphname = p.sc;
kernLeft = o;
kernRight = o;
lastChange = "2024-05-29 22:12:44 +0000";
layers = (
{
layerId = m01;
shapes = (
{
closed = 1;
nodes = (
(173,368,o),
(30,284,o),
(30,154,cs),
(30,25,o),
(153,-22,o),
(235,-22,cs),
(326,-22,o),
(467,37,o),
(467,157,cs),
(467,221,o),
(419,236,o),
(378,253,cs),
(371,256,o),
(362,256,o),
(356,254,cs),
(336,246,o),
(207,208,o),
(197,204,cs),
(188,200,o),
(191,197,o),
(200,197,cs),
(203,197,o),
(215,198,o),
(215,189,cs),
(215,-3,l),
(302,-2,l),
(302,204,l),
(329,201,o),
(382,181,o),
(382,114,cs),
(382,88,o),
(374,7,o),
(264,7,cs),
(156,7,o),
(108,84,o),
(108,160,cs),
(108,248,o),
(172,335,o),
(284,335,cs),
(326,335,o),
(350,323,o),
(370,302,cs),
(379,292,o),
(380,288,o),
(384,296,c),
(396,311,o),
(416,335,o),
(426,343,cs),
(435,350,o),
(438,354,o),
(434,354,c),
(399,363,o),
(355,368,o),
(319,368,cs)
);
}
);
width = 497;
},
{
associatedMasterId = m01;
layerId = "8AF1D7B1-DD8A-42A1-AFDC-4459A239E6BA";
name = ref;
shapes = (
{
ref = p;
}
);
width = 497;
},
{
associatedMasterId = m01;
layerId = "47AD6E81-5278-4EC0-950F-1D59462F6A6A";
name = cap;
shapes = (
{
alignment = -1;
ref = P;
scale = (0.7773,0.7211);
}
);
visible = 1;
width = 476;
}
);
},
{
glyphname = q.sc;
kernLeft = o;
kernRight = i;
lastChange = "2024-05-29 22:12:47 +0000";
layers = (
{
layerId = m01;
shapes = (
{
closed = 1;
nodes = (
(122,363,o),
(28,310,o),
(28,231,cs),
(28,165,o),
(95,132,o),
(139,132,c),
(214,179,l),
(157,179,o),
(105,191,o),
(105,251,cs),
(105,299,o),
(142,335,o),
(205,335,cs),
(271,335,o),
(321,295,o),
(321,240,cs),
(321,198,l),
(408,235,l),
(408,271,ls),
(408,335,o),
(325,363,o),
(240,363,cs)
);
},
{
closed = 1;
nodes = (
(136,126,ls),
(136,0,o),
(94,-29,o),
(48,-50,cs),
(41,-53,o),
(43,-56,o),
(52,-56,cs),
(106,-56,o),
(223,-11,o),
(223,102,cs),
(223,198,ls),
(223,205,o),
(222,206,o),
(216,204,cs),
(197,194,o),
(163,180,o),
(136,180,c)
);
},
{
piece = {
length = 16.19625;
};
pos = (315,-83);
ref = _smart.verticalBar_noStart;
}
);
width = 468;
},
{
associatedMasterId = m01;
layerId = "CECB73F0-1059-4217-9751-FD3DCA86CCF0";
name = ref;
shapes = (
{
ref = q;
}
);
width = 468;
},
{
associatedMasterId = m01;
layerId = "7F42ECA5-2563-470E-B80F-25A40E0CD1B5";
name = cap;
shapes = (
{
alignment = -1;
pos = (-32,0);
ref = Q;
scale = (0.8476,0.7425);
}
);
width = 394;
}
);
},
{
glyphname = r.sc;
kernLeft = i;
kernRight = r;
lastChange = "2024-05-29 22:13:02 +0000";
layers = (
{
anchors = (
{
name = bottom;
pos = (248,0);
},
{
name = top;
pos = (286,350);
}
);
layerId = m01;
shapes = (
{
alignment = -1;
piece = {
height_l = 43.85963;
};
pos = (-3,-141);
ref = _smart.verticalBar;
},
{
closed = 1;
nodes = (
(168,253,l),
(168,269,o),
(240,324,o),
(310,324,cs),
(335,324,o),
(363,317,o),
(363,284,cs),
(363,227,o),
(283,189,o),
(261,185,cs),
(244,182,o),
(248,173,o),
(261,169,cs),
(351,140,o),
(465,222,o),
(465,295,cs),
(465,355,o),
(386,369,o),
(347,369,cs),
(290,369,o),
(215,339,o),
(168,296,c)
);
},
{
closed = 1;
nodes = (
(273,-44,l),
(360,-8,l),
(360,182,l),
(273,178,l)
);
},
{
closed = 1;
nodes = (
(309,-44,o),
(441,4,o),
(466,29,cs),
(471,34,o),
(471,37,o),
(461,34,cs),
(424,24,o),
(341,-6,o),
(300,-6,c),
(273,-44,l)
);
}
);
width = 531;
},
{
associatedMasterId = m01;
layerId = "96808DC9-23DA-4AB9-9E21-3BEDC7FB75A7";
name = ref;
shapes = (
{
ref = r;
}
);
width = 531;
},
{
associatedMasterId = m01;
layerId = "C2C25ACC-BB4A-4A40-A012-AA836048E96B";
name = cap;
shapes = (
{
alignment = -1;
pos = (24,-18);
ref = R;
scale = (0.8646,0.7445);
}
);
visible = 1;
width = 545;
}
);
},
{
glyphname = t.sc;
kernLeft = t;
kernRight = i;
lastChange = "2024-05-29 22:13:49 +0000";
layers = (
{
anchors = (
{
name = bottom;
pos = (227,30);
},
{
name = ogonek;
pos = (407,0);
},
{
name = top;
pos = (234,351);
}
);
layerId = m01;
shapes = (
{
closed = 1;
nodes = (
(10,237,o),
(22,230,o),
(32,238,cs),
(99,290,o),
(164,313,o),
(207,313,cs),
(273,313,o),
(320,282,o),
(320,238,cs),
(320,180,l),
(407,229,l),
(407,282,ls),
(407,323,o),
(346,365,o),
(250,365,cs),
(105,365,o),
(44,281,o),
(17,246,cs)
);
},
{
alignment = -1;
piece = {
length = 17.70529;
};
pos = (314,-78);
ref = _smart.verticalBar_noStart;
}
);
width = 467;
},
{
associatedMasterId = m01;
layerId = "B03CE5C1-9D1A-412B-B631-F7E3A68A47D7";
name = ref;
shapes = (
{
ref = t;
}
);
width = 467;
},
{
associatedMasterId = m01;
layerId = "64664135-DF91-4A33-9A96-D0BBE25EC21D";
name = cap;
shapes = (
{
ref = T;
scale = (0.8746,0.7525);
}
);
width = 438;
}
);
},
{
glyphname = y.sc;
kernLeft = i;
kernRight = v;
lastChange = "2024-05-29 22:24:27 +0000";
layers = (
{
anchors = (
{
name = top;
pos = (245,368);
}
);
layerId = m01;
shapes = (
{
alignment = -1;
piece = {
height_l = 38.73471;
};
pos = (2,-141);
ref = _smart.verticalBar;
},
{
closed = 1;
nodes = (
(373,229,o),
(69,118,o),
(69,-61,cs),
(69,-61,o),
(69,-65,o),
(74,-61,cs),
(104,-31,o),
(142,-12,o),
(181,2,cs),
(186,4,o),
(189,4,o),
(189,23,cs),
(189,204,o),
(459,214,o),
(459,305,cs),
(459,351,o),
(392,366,o),
(365,366,cs),
(323,366,o),
(279,331,o),
(242,300,cs),
(239,297,o),
(243,288,o),
(251,291,cs),
(266,296,o),
(292,322,o),
(318,322,cs),
(340,322,o),
(373,302,o),
(373,284,cs)
);
}
);
width = 499;
},
{
associatedMasterId = m01;
layerId = "2E14122F-5FC9-4426-BE51-8CE8D5CB456A";
name = ref;
shapes = (
{
ref = y;
}
);
width = 519;
},
{
associatedMasterId = m01;
layerId = "B11FE353-5E78-409A-9D83-5FF62AF9F4E2";
name = cap;
shapes = (
{
alignment = -1;
pos = (55,-24);
ref = Y;
scale = (0.8678,0.7671);
}
);
width = 583;
}
);
},
{
glyphname = one;
kernLeft = one;
kernRight = F;
lastChange = "2024-05-24 04:04:38 +0000";
layers = (
{
backgroundImage = {
imagePath = "numbers/Celes_03_1.png";
pos = (-197,-321);
scale = (23.362,23.362);
};
layerId = m01;
shapes = (
{
closed = 1;
nodes = (
(170,310,l),
(257,310,l),
(257,369,ls),
(257,434,o),
(319,463,o),
(366,463,cs),
(461,463,o),
(518,381,o),
(537,339,cs),
(540,332,o),
(543,334,o),
(547,340,cs),
(562,361,o),
(590,394,o),
(613,407,cs),
(616,409,o),
(619,411,o),
(615,415,cs),
(586,446,o),
(518,508,o),
(411,508,cs),
(267,508,o),
(170,462,o),
(170,368,cs)
);
},
{
piece = {
flatEnd = 100;
length = 18.64394;
};
pos = (164,31);
ref = _smart.verticalBar_noStart;
},
{
closed = 1;
nodes = (
(170,30,ls),
(170,-23,o),
(83,-84,o),
(22,-101,cs),
(14,-103,o),
(10,-110,o),
(27,-110,cs),
(88,-110,o),
(257,-90,o),
(257,30,cs),
(257,83,l),
(170,75,l)
);
}
);
width = 630;
}
);
unicode = 49;
},
{
glyphname = four;
lastChange = "2024-05-24 04:04:51 +0000";
layers = (
{
backgroundImage = {
imagePath = "numbers/Celes_06_4.png";
locked = 1;
pos = (-137,-220);
scale = (19.9849,19.9849);
};
layerId = m01;
shapes = (
{
alignment = -1;
piece = {
length = 140.43855;
rightSerif = 100;
};
pos = (-172,-250);
ref = _smart.horizontalBar;
},
{
closed = 1;
nodes = (
(568,28,o),
(366,489,o),
(226,489,cs),
(151,489,o),
(50,394,o),
(50,269,cs),
(50,239,o),
(72,191,o),
(88,184,cs),
(96,180,o),
(98,184,o),
(101,189,cs),
(108,207,o),
(125,243,o),
(143,264,cs),
(145,266,o),
(154,278,o),
(148,283,cs),
(137,290,o),
(114,303,o),
(114,346,cs),
(114,378,o),
(151,435,o),
(185,435,cs),
(257,435,o),
(419,123,o),
(476,8,c),
(476,-35,l),
(497,-35,l),
(516,-17,o),
(517,-10,o),
(537,7,cs),
(558,25,o),
(572,31,o),
(572,31,c)
);
}
);
width = 600;
}
);
unicode = 52;
},
{
glyphname = five;
kernLeft = X;
kernRight = G;
lastChange = "2024-05-24 04:57:11 +0000";
layers = (
{
layerId = m01;
shapes = (
{
closed = 1;
nodes = (
(46,369,o),
(55,362,o),
(64,369,cs),
(129,420,o),
(202,444,o),
(255,444,cs),
(307,444,o),
(389,419,o),
(389,358,cs),
(389,71,ls),
(389,-67,o),
(505,-78,o),
(595,-78,cs),
(601,-78,o),
(603,-73,o),
(596,-71,cs),
(555,-62,o),
(476,-44,o),
(476,53,cs),
(476,419,ls),
(476,460,o),
(397,496,o),
(293,496,cs),
(144,496,o),
(75,412,o),
(52,378,cs)
);
},
{
closed = 1;
nodes = (
(411,265,l),
(181,139,o),
(51,61,o),
(51,-22,cs),
(51,-58,o),
(70,-72,o),
(86,-80,c),
(109,-71,o),
(167,-49,o),
(197,-49,cs),
(204,-49,o),
(204,-45,o),
(197,-41,cs),
(172,-27,o),
(164,-15,o),
(172,20,cs),
(188,88,o),
(263,147,o),
(411,226,c)
);
}
);
width = 630;
}
);
unicode = 53;
},
{
glyphname = six;
kernRight = x;
lastChange = "2024-05-24 04:05:15 +0000";
layers = (
{
backgroundImage = {
imagePath = "numbers/Celes_08_6.png";
locked = 1;
pos = (-159,-226);
scale = (19.6691,19.6691);
};
layerId = m01;
shapes = (
{
alignment = -1;
piece = {
leftSerif = 100;
length = 140.43855;
rightSerif = 0;
};
pos = (-202,-250);
ref = _smart.horizontalBar;
},
{
closed = 1;
nodes = (
(478,233,o),
(545,285,o),
(545,374,cs),
(545,435,o),
(494,479,o),
(452,479,cs),
(393,479,o),
(347,456,o),
(309,398,cs),
(30,-34,l),
(78,-34,l),
(335,364,ls),
(357,398,o),
(371,404,o),
(386,404,cs),
(407,404,o),
(430,395,o),
(452,360,cs),
(485,308,o),
(461,245,o),
(436,209,cs),
(428,196,o),
(434,193,o),
(439,197,cs)
);
}
);
width = 570;
}
);
unicode = 54;
},
{
glyphname = seven;
kernLeft = seven;
lastChange = "2024-05-24 04:05:45 +0000";
layers = (
{
backgroundImage = {
imagePath = "numbers/Celes_09_7.png";
locked = 1;
pos = (-177,-257);
scale = (20.9896,20.9896);
};
layerId = m01;
shapes = (
{
closed = 1;
nodes = (
(31,390,o),
(27,373,o),
(46,390,cs),
(129,464,o),
(254,469,o),
(254,358,cs),
(254,317,l),
(341,366,l),
(341,406,ls),
(341,480,o),
(149,557,o),
(38,399,cs)
);
},
{
piece = {
length = 58.31611;
};
pos = (248,59);
ref = _smart.verticalBar_noStart;
},
{
closed = 1;
nodes = (
(310,23,l),
(332,-17,o),
(380,-40,o),
(431,-40,cs),
(492,-40,o),
(578,49,o),
(578,114,cs),
(578,199,o),
(506,223,o),
(461,223,cs),
(429,223,o),
(341,144,o),
(341,144,c)
);
},
{
closed = 1;
nodes = (
(341,107,l),
(415,160,ls),
(431,172,o),
(496,155,o),
(496,50,cs),
(496,13,o),
(475,-9,o),
(445,-9,cs),
(427,-9,o),
(341,50,o),
(341,99,c)
);
}
);
width = 620;
}
);
unicode = 55;
},
{
glyphname = eight;
kernLeft = seven;
lastChange = "2024-05-24 04:06:15 +0000";
layers = (
{
backgroundImage = {
imagePath = "numbers/Celes_10_8.png";
locked = 1;
pos = (-159,-245);
scale = (20.8184,20.8184);
};
layerId = m01;
shapes = (
{
closed = 1;
nodes = (
(31,390,o),
(27,373,o),
(46,390,cs),
(129,464,o),
(254,469,o),
(254,358,cs),
(254,317,l),
(341,366,l),
(341,406,ls),
(341,480,o),
(149,557,o),
(38,399,cs)
);
},
{
piece = {
length = 58.31611;
};
pos = (248,59);
ref = _smart.verticalBar_noStart;
},
{
closed = 1;
nodes = (
(310,23,l),
(332,-17,o),
(380,-40,o),
(431,-40,cs),
(492,-40,o),
(578,49,o),
(578,114,cs),
(578,199,o),
(506,223,o),
(461,223,cs),
(429,223,o),
(341,144,o),
(341,144,c)
);
},
{
closed = 1;
nodes = (
(341,107,l),
(415,160,ls),
(431,172,o),
(496,155,o),
(496,50,cs),
(496,13,o),
(475,-9,o),
(445,-9,cs),
(427,-9,o),
(341,50,o),
(341,99,c)
);
},
{
pos = (2,12);
ref = _part.leftArc;
}
);
width = 620;
}
);
unicode = 56;
},
{
glyphname = one.osf;
kernLeft = one.osf;
kernRight = f;
lastChange = "2024-05-24 04:08:20 +0000";
layers = (
{
backgroundImage = {
imagePath = "numbers/Celes_03_1.png";
pos = (-164,-350);
scale = (20.0696,20.0696);
};
layerId = m01;
shapes = (
{
closed = 1;
nodes = (
(144,-26,ls),
(144,-101,o),
(83,-170,o),
(22,-187,cs),
(14,-189,o),
(10,-196,o),
(27,-196,cs),
(88,-196,o),
(231,-130,o),
(231,0,cs),
(231,38,l),
(144,30,l)
);
},
{
closed = 1;
nodes = (
(144,166,l),
(231,166,l),
(231,225,ls),
(231,290,o),
(264,338,o),
(323,338,cs),
(387,338,o),
(445,252,o),
(465,212,cs),
(468,207,o),
(471,208,o),
(474,212,cs),
(488,231,o),
(509,254,o),
(526,268,cs),
(529,271,o),
(538,276,o),
(534,281,cs),
(513,307,o),
(445,370,o),
(353,370,cs),
(231,370,o),
(144,307,o),
(144,224,cs)
);
},
{
piece = {
flatEnd = 100;
length = -12.03387;
};
pos = (138,-113);
ref = _smart.verticalBar_noStart;
}
);
width = 550;
}
);
},
{
glyphname = four.osf;
lastChange = "2023-10-23 03:05:01 +0000";
layers = (
{
backgroundImage = {
imagePath = "numbers/Celes_06_4.png";
locked = 1;
pos = (-83,-174);
scale = (15.2047,15.2047);
};
layerId = m01;
shapes = (
{
alignment = -1;
piece = {
length = 102.13054;
rightSerif = 100;
};
pos = (-168,-262);
ref = _smart.horizontalBar;
},
{
closed = 1;
nodes = (
(439,68,o),
(288,370,o),
(179,370,cs),
(128,370,o),
(50,296,o),
(50,201,cs),
(50,178,o),
(60,148,o),
(80,135,cs),
(86,131,o),
(89,135,o),
(91,139,cs),
(95,153,o),
(109,178,o),
(122,196,cs),
(126,202,o),
(130,205,o),
(126,212,cs),
(119,224,o),
(109,234,o),
(109,260,cs),
(109,277,o),
(126,328,o),
(163,328,cs),
(194,328,o),
(360,49,o),
(379,-1,c),
(379,-47,l),
(392,-47,l),
(406,-34,o),
(415,-25,o),
(433,-12,cs),
(450,1,o),
(470,9,o),
(470,9,c)
);
}
);
width = 490;
}
);
},
{
glyphname = five.osf;
kernLeft = x;
kernRight = g;
lastChange = "2024-05-24 04:59:47 +0000";
layers = (
{
backgroundImage = {
imagePath = "numbers/Celes_07_5.png";
locked = 1;
pos = (-141,-330);
scale = (19.5408,19.5408);
};
layerId = m01;
shapes = (
{
closed = 1;
nodes = (
(375,171,l),
(163,54,o),
(43,-23,o),
(43,-89,cs),
(43,-123,o),
(60,-136,o),
(75,-143,c),
(96,-135,o),
(145,-117,o),
(169,-114,cs),
(176,-113,o),
(176,-111,o),
(169,-107,cs),
(146,-94,o),
(139,-83,o),
(146,-51,cs),
(164,29,o),
(261,74,o),
(375,135,c)
);
},
{
closed = 1;
nodes = (
(335,11,ls),
(335,-127,o),
(451,-138,o),
(541,-138,cs),
(547,-138,o),
(549,-133,o),
(542,-131,cs),
(501,-122,o),
(422,-104,o),
(422,-7,cs),
(422,285,ls),
(422,326,o),
(361,368,o),
(265,368,cs),
(120,368,o),
(59,284,o),
(32,249,cs),
(25,240,o),
(37,233,o),
(47,241,cs),
(114,293,o),
(179,316,o),
(222,316,cs),
(288,316,o),
(335,285,o),
(335,241,cs)
);
}
);
width = 560;
}
);
},
{
glyphname = six.osf;
kernRight = x;
lastChange = "2024-05-24 04:08:51 +0000";
layers = (
{
backgroundImage = {
imagePath = "numbers/Celes_08_6.png";
locked = 1;
pos = (-118,-193);
scale = (15.972,15.972);
};
layerId = m01;
shapes = (
{
closed = 1;
nodes = (
(494,201,o),
(473,375,o),
(362,376,cs),
(315,376,o),
(283,342,o),
(243,281,cs),
(31,-47,l),
(79,-47,l),
(273,254,ls),
(307,307,o),
(318,316,o),
(340,316,cs),
(404,316,o),
(405,215,o),
(366,158,cs),
(359,148,o),
(365,148,o),
(368,149,cs)
);
},
{
alignment = -1;
piece = {
leftSerif = 100;
length = 102.13054;
rightSerif = 0;
};
pos = (-206,-262);
ref = _smart.horizontalBar;
}
);
width = 490;
}
);
},
{
glyphname = seven.osf;
kernLeft = seven.osf;
lastChange = "2024-05-24 04:09:27 +0000";
layers = (
{
backgroundImage = {
imagePath = "numbers/Celes_09_7.png";
pos = (-147,-371);
scale = (19.6277,19.6277);
};
guides = (
{
pos = (173,365);
}
);
layerId = m01;
shapes = (
{
closed = 1;
nodes = (
(49,265,o),
(45,249,o),
(64,265,cs),
(129,319,o),
(252,344,o),
(252,233,cs),
(252,192,l),
(339,241,l),
(339,281,ls),
(339,350,o),
(182,432,o),
(56,274,cs)
);
},
{
closed = 1;
nodes = (
(308,-119,l),
(330,-159,o),
(378,-182,o),
(429,-182,cs),
(490,-182,o),
(576,-93,o),
(576,-28,cs),
(576,57,o),
(504,81,o),
(459,81,cs),
(427,81,o),
(339,2,o),
(339,2,c)
);
},
{
closed = 1;
nodes = (
(339,-35,l),
(413,18,ls),
(429,30,o),
(494,13,o),
(494,-92,cs),
(494,-129,o),
(473,-151,o),
(443,-151,cs),
(425,-151,o),
(339,-92,o),
(339,-43,c)
);
},
{
alignment = -1;
piece = {
length = 60.92025;
};
pos = (246,-76);
ref = _smart.verticalBar_noStart;
}
);
width = 620;
}
);
},
{
glyphname = eight.osf;
kernLeft = seven.osf;
lastChange = "2024-05-24 04:09:31 +0000";
layers = (
{
backgroundImage = {
imagePath = "numbers/Celes_10_8.png";
locked = 1;
pos = (-125,-360);
scale = (19.6277,19.6277);
};
guides = (
{
pos = (173,365);
}
);
layerId = m01;
shapes = (
{
closed = 1;
nodes = (
(308,-119,l),
(330,-159,o),
(378,-182,o),
(429,-182,cs),
(490,-182,o),
(576,-93,o),
(576,-28,cs),
(576,57,o),
(504,81,o),
(459,81,cs),
(427,81,o),
(339,2,o),
(339,2,c)
);
},
{
closed = 1;
nodes = (
(339,-35,l),
(413,18,ls),
(429,30,o),
(494,13,o),
(494,-92,cs),
(494,-129,o),
(473,-151,o),
(443,-151,cs),
(425,-151,o),
(339,-92,o),
(339,-43,c)
);
},
{
alignment = -1;
piece = {
length = 60.92025;
};
pos = (246,-76);
ref = _smart.verticalBar_noStart;
},
{
pos = (0,2);
ref = _part.leftArc.osf;
},
{
pos = (0,-142);
ref = _part.leftArc.osf;
}
);
width = 620;
}
);
metricLeft = seven.osf;
},
{
glyphname = .notdef;
lastChange = "2024-05-24 04:03:35 +0000";
layers = (
{
layerId = m01;
shapes = (
{
closed = 1;
nodes = (
(79,130,l),
(62,147,o),
(52,169,o),
(52,197,cs),
(52,225,o),
(63,250,o),
(79,271,c),
(79,532,l),
(421,532,l),
(421,241,l),
(448,251,o),
(470,250,o),
(470,223,cs),
(470,214,o),
(449,192,o),
(421,166,c),
(421,-58,l),
(302,-58,l),
(288,-71,o),
(269,-81,o),
(248,-81,cs),
(232,-81,o),
(214,-71,o),
(199,-58,c),
(79,-58,l)
);
},
{
pos = (23,-49);
ref = question;
scale = (1.1,1.1);
}
);
width = 500;
},
{
associatedMasterId = m01;
layerId = "D242005A-CF50-4FBF-8028-CB84BF55882F";
name = "May 23, 24 at 23:55";
shapes = (
{
pos = (23,-49);
ref = question;
scale = (1.1,1.1);
},
{
closed = 1;
nodes = (
(421,532,l),
(421,-58,l),
(79,-58,l),
(79,532,l)
);
}
);
width = 500;
}
);
},
{
glyphname = period;
layers = (
{
layerId = m01;
shapes = (
{
closed = 1;
nodes = (
(115,-14,o),
(145,34,o),
(145,49,cs),
(145,56,o),
(123,63,o),
(109,76,cs),
(95,89,o),
(88,104,o),
(83,104,cs),
(60,104,o),
(19,60,o),
(19,41,cs),
(19,31,o),
(68,-14,o),
(83,-14,cs)
);
}
);
width = 179;
}
);
unicode = 46;
},
{
glyphname = comma;
lastChange = "2024-05-29 21:08:10 +0000";
layers = (
{
layerId = m01;
shapes = (
{
closed = 1;
nodes = (
(74,0,c),
(74,-15,o),
(52,-51,o),
(28,-77,cs),
(22,-83,o),
(24,-91,o),
(32,-85,cs),
(104,-31,o),
(145,29,o),
(145,50,cs),
(145,64,o),
(128,72,o),
(111,84,cs),
(96,96,o),
(85,103,o),
(80,103,cs),
(71,103,o),
(13,64,o),
(13,53,cs),
(13,32,o),
(63,13,o)
);
}
);
width = 200;
}
);
unicode = 44;
},
{
glyphname = exclam;
layers = (
{
layerId = m01;
shapes = (
{
pos = (65,0);
ref = period;
scale = (0.75,0.75);
},
{
closed = 1;
nodes = (
(91,150,l),
(91,131,o),
(81,119,o),
(86,119,cs),
(102,119,o),
(149,159,o),
(164,184,cs),
(197,240,o),
(252,289,o),
(252,297,cs),
(252,309,o),
(197,260,o),
(170,229,c),
(170,451,l),
(170,476,o),
(161,492,o),
(143,492,cs),
(135,492,o),
(121,476,o),
(100,460,cs),
(70,437,o),
(48,432,o),
(48,427,cs),
(48,413,o),
(91,433,o),
(91,374,c)
);
}
);
width = 280;
},
{
associatedMasterId = m01;
layerId = "46C615B2-4C49-48A9-8699-EA7FB499A67F";
name = ref;
shapes = (
{
pos = (35,0);
ref = period;
scale = (0.75,0.75);
},
{
closed = 1;
nodes = (
(24,516,o),
(15,530,o),
(25,533,cs),
(41,537,o),
(112,552,o),
(124,555,cs),
(140,559,o),
(146,554,o),
(144,538,cs),
(135,477,o),
(135,249,o),
(103,146,cs),
(82,79,o),
(73,113,o),
(73,144,cs),
(73,255,o),
(38,473,o),
(29,501,cs)
);
}
);
width = 184;
}
);
unicode = 33;
},
{
glyphname = exclamdown;
layers = (
{
layerId = m01;
shapes = (
{
pos = (114,260);
ref = period;
scale = (0.75,0.75);
},
{
closed = 1;
nodes = (
(209,177,l),
(209,196,o),
(219,208,o),
(214,208,cs),
(198,208,o),
(151,168,o),
(136,143,cs),
(103,87,o),
(48,38,o),
(48,30,cs),
(48,18,o),
(103,67,o),
(130,98,c),
(130,-124,l),
(130,-149,o),
(139,-165,o),
(157,-165,cs),
(165,-165,o),
(179,-149,o),
(200,-133,cs),
(230,-110,o),
(252,-105,o),
(252,-100,cs),
(252,-86,o),
(209,-106,o),
(209,-47,c)
);
}
);
width = 280;
}
);
unicode = 161;
},
{
glyphname = question;
lastChange = "2024-05-24 03:53:06 +0000";
layers = (
{
layerId = m01;
shapes = (
{
pos = (143,0);
ref = period;
scale = (0.75,0.75);
},
{
closed = 1;
nodes = (
(108,404,o),
(167,459,o),
(182,459,cs),
(203,459,o),
(218,450,o),
(218,432,cs),
(218,366,o),
(54,324,o),
(54,224,cs),
(54,154,o),
(135,129,o),
(226,129,cs),
(254,129,o),
(379,235,o),
(379,247,cs),
(379,267,o),
(283,178,o),
(248,178,cs),
(203,178,o),
(144,185,o),
(144,221,cs),
(144,282,o),
(308,354,o),
(308,448,cs),
(308,476,o),
(294,500,o),
(199,500,cs),
(187,500,o),
(108,433,o),
(108,420,cs)
);
}
);
width = 430;
},
{
associatedMasterId = m01;
layerId = "C504050C-B0C6-46CC-8FCA-5E7E2F21E28B";
name = ref;
shapes = (
{
pos = (111,0);
ref = period;
scale = (0.75,0.75);
},
{
closed = 1;
nodes = (
(20,349,o),
(27,358,o),
(35,368,cs),
(44,378,o),
(58,391,o),
(85,408,cs),
(93,413,o),
(95,419,o),
(93,426,cs),
(66,533,o),
(200,572,o),
(236,471,cs),
(276,358,o),
(155,255,o),
(155,158,cs),
(155,91,o),
(174,129,o),
(179,145,cs),
(220,275,o),
(331,364,o),
(331,453,cs),
(331,542,o),
(282,572,o),
(200,572,cs),
(155,572,o),
(20,560,o),
(20,368,cs)
);
}
);
width = 371;
}
);
unicode = 63;
},
{
glyphname = questiondown;
layers = (
{
layerId = m01;
shapes = (
{
pos = (165,260);
ref = period;
scale = (0.75,0.75);
},
{
closed = 1;
nodes = (
(322,-104,o),
(243,-171,o),
(231,-171,cs),
(136,-171,o),
(122,-147,o),
(122,-119,cs),
(122,-25,o),
(286,47,o),
(286,108,cs),
(286,144,o),
(227,151,o),
(182,151,cs),
(147,151,o),
(51,62,o),
(51,82,cs),
(51,94,o),
(176,200,o),
(204,200,cs),
(295,200,o),
(376,175,o),
(376,105,cs),
(376,5,o),
(212,-37,o),
(212,-103,cs),
(212,-121,o),
(227,-130,o),
(248,-130,cs),
(263,-130,o),
(322,-75,o),
(322,-91,cs)
);
}
);
width = 430;
},
{
associatedMasterId = m01;
layerId = "758177E5-1940-44CE-8A88-8C38593C085C";
name = "May 23, 24 at 01:59";
shapes = (
{
pos = (111,260);
ref = period;
scale = (0.75,0.75);
},
{
closed = 1;
nodes = (
(-10,-220,o),
(99,-237,o),
(140,-237,cs),
(205,-237,o),
(331,-193,o),
(331,-98,cs),
(331,-4,o),
(210,62,o),
(180,182,cs),
(175,203,o),
(167,222,o),
(160,193,cs),
(132,77,o),
(302,-42,o),
(220,-162,cs),
(153,-260,o),
(41,-176,o),
(98,-39,cs),
(110,-11,o),
(111,-10,o),
(85,-17,cs),
(67,-22,o),
(51,-28,o),
(43,-31,cs),
(23,-40,o),
(24,-50,o),
(19,-74,cs)
);
}
);
width = 371;
}
);
unicode = 191;
},
{
glyphname = numbersign;
layers = (
{
layerId = m01;
shapes = (
{
closed = 1;
nodes = (
(110,-15,l),
(173,-15,l),
(364,496,l),
(301,496,l)
);
},
{
closed = 1;
nodes = (
(264,-15,l),
(327,-15,l),
(518,496,l),
(455,496,l)
);
},
{
piece = {
length = 132.71259;
};
pos = (-120,104);
ref = _smart.horizontalBar;
},
{
piece = {
length = 132.71259;
};
pos = (-178,-77);
ref = _smart.horizontalBar;
}
);
width = 638;
}
);
unicode = 35;
},
{
glyphname = slash;
layers = (
{
layerId = m01;
shapes = (
{
closed = 1;
nodes = (
(15,-161,l),
(78,-161,l),
(377,496,l),
(314,496,l)
);
}
);
width = 392;
}
);
unicode = 47;
},
{
glyphname = bracketleft;
layers = (
{
layerId = m01;
shapes = (
{
piece = {
leftSerif = 100;
length = 41.35606;
};
pos = (-124,255);
ref = _smart.horizontalBar;
},
{
piece = {
leftSerif = 100;
length = 41.35606;
};
pos = (-124,-395);
ref = _smart.horizontalBar;
},
{
closed = 1;
nodes = (
(106,-180,l),
(193,-180,l),
(189,500,l),
(209,526,l),
(196,526,l),
(173,526,o),
(170,533,o),
(162,526,cs),
(146,511,o),
(117,487,o),
(102,480,cs),
(97,478,o),
(106,472,o),
(106,464,c)
);
}
);
width = 363;
}
);
unicode = 91;
},
{
glyphname = bracketright;
layers = (
{
layerId = m01;
shapes = (
{
angle = 180;
piece = {
leftSerif = 100;
length = 41.35606;
};
pos = (487,100);
ref = _smart.horizontalBar;
},
{
angle = 180;
piece = {
leftSerif = 100;
length = 41.35606;
};
pos = (487,750);
ref = _smart.horizontalBar;
},
{
closed = 1;
nodes = (
(257,535,l),
(170,535,l),
(174,-145,l),
(154,-171,l),
(167,-171,l),
(190,-171,o),
(193,-178,o),
(201,-171,cs),
(217,-156,o),
(246,-132,o),
(261,-125,cs),
(266,-123,o),
(257,-117,o),
(257,-109,c)
);
}
);
width = 363;
}
);
unicode = 93;
},
{
glyphname = quoteleft;
lastChange = "2024-05-29 21:09:21 +0000";
layers = (
{
layerId = m01;
shapes = (
{
closed = 1;
nodes = (
(64,483,o),
(116,480,o),
(154,537,cs),
(160,546,o),
(159,553,o),
(147,545,cs),
(102,516,o),
(45,464,o),
(45,435,cs),
(45,409,o),
(86,363,o),
(116,363,cs),
(129,363,o),
(186,392,o),
(186,405,cs),
(186,419,o),
(177,433,o),
(163,440,cs)
);
}
);
width = 200;
}
);
unicode = 8216;
},
{
glyphname = guillemetleft.salt;
layers = (
{
layerId = m01;
shapes = (
{
pos = (50,0);
ref = guilsinglleft;
},
{
closed = 1;
nodes = (
(380,148,o),
(396,164,o),
(396,184,cs),
(396,203,o),
(380,219,o),
(361,219,cs),
(341,219,o),
(325,203,o),
(325,184,cs),
(325,164,o),
(341,148,o),
(361,148,cs)
);
}
);
width = 550;
}
);
},
{
glyphname = at;
lastChange = "2024-05-24 03:12:29 +0000";
layers = (
{
layerId = m01;
shapes = (
{
closed = 1;
nodes = (
(376,266,o),
(405,308,o),
(463,308,cs),
(513,308,o),
(549,291,o),
(569,271,c),
(576,282,o),
(620,323,o),
(625,326,c),
(610,344,o),
(567,364,o),
(515,364,cs),
(427,364,o),
(365,300,o),
(323,249,c),
(323,215,l)
);
},
{
closed = 1;
nodes = (
(259,12,ls),
(259,-17,o),
(252,-89,o),
(207,-89,cs),
(141,-89,o),
(125,65,o),
(125,133,cs),
(125,319,o),
(245,479,o),
(406,479,cs),
(567,479,o),
(704,319,o),
(704,167,cs),
(704,-43,o),
(534,-148,o),
(408,-189,cs),
(391,-194,o),
(390,-206,o),
(407,-206,cs),
(608,-205,o),
(787,-43,o),
(787,158,cs),
(787,359,o),
(607,522,o),
(406,522,cs),
(205,522,o),
(42,359,o),
(42,101,cs),
(42,-32,o),
(85,-143,o),
(159,-143,cs),
(235,-143,o),
(346,-23,o),
(346,76,c),
(369,52,o),
(408,-8,o),
(461,-8,cs),
(524,-8,o),
(625,23,o),
(625,104,cs),
(625,177,o),
(567,220,o),
(500,220,cs),
(469,220,o),
(395,171,o),
(346,144,c),
(346,327,ls),
(346,352,o),
(332,381,o),
(310,368,cs),
(264,341,o),
(231,318,o),
(185,299,cs),
(181,297,o),
(181,292,o),
(190,292,cs),
(199,292,o),
(217,291,o),
(227,289,cs),
(252,284,o),
(259,274,o),
(259,250,cs)
);
},
{
closed = 1;
nodes = (
(390,134,o),
(430,170,o),
(458,170,cs),
(490,170,o),
(537,133,o),
(537,78,cs),
(537,33,o),
(528,30,o),
(488,30,cs),
(445,30,o),
(390,76,o),
(355,118,c)
);
}
);
width = 830;
}
);
unicode = 64;
},
{
glyphname = ampersand;
layers = (
{
hints = (
{
origin = (0,9);
target = (0,24);
type = Stem;
},
{
origin = (0,30);
target = (0,3);
type = Stem;
},
{
origin = (2,3);
target = (2,16);
type = Stem;
},
{
horizontal = 1;
origin = (2,6);
target = (2,13);
type = Stem;
},
{
horizontal = 1;
origin = (0,6);
target = (0,27);
type = Stem;
},
{
horizontal = 1;
origin = (1,2);
target = (1,10);
type = Stem;
}
);
layerId = m01;
shapes = (
{
closed = 1;
nodes = (
(174,203,l),
(222,203,o),
(330,242,o),
(330,317,cs),
(330,355,o),
(302,373,o),
(241,373,cs),
(126,373,o),
(71,309,o),
(71,263,cs),
(71,161,o),
(345,-66,o),
(465,-66,cs),
(485,-66,o),
(534,-60,o),
(557,-15,cs),
(564,-2,o),
(560,-2,o),
(553,-9,cs),
(544,-17,o),
(539,-28,o),
(519,-28,cs),
(432,-28,o),
(151,168,o),
(151,283,cs),
(151,316,o),
(175,341,o),
(221,341,cs),
(237,341,o),
(259,338,o),
(259,305,cs),
(259,262,o),
(220,223,o),
(166,223,c)
);
},
{
closed = 1;
nodes = (
(351,260,o),
(315,204,o),
(323,204,cs),
(484,204,ls),
(492,204,o),
(526,248,o),
(532,274,cs),
(533,279,o),
(515,260,o),
(478,260,cs),
(370,260,ls)
);
},
{
closed = 1;
nodes = (
(114,199,l),
(86,199,o),
(20,142,o),
(20,81,cs),
(20,27,o),
(70,-18,o),
(170,-18,cs),
(334,-18,o),
(438,102,o),
(438,223,c),
(378,228,l),
(378,30,o),
(283,22,o),
(223,22,cs),
(181,22,o),
(100,65,o),
(100,120,cs),
(100,145,o),
(117,175,o),
(129,175,c)
);
}
);
width = 600;
}
);
unicode = 38;
},
{
glyphname = ampersand.case;
layers = (
{
hints = (
{
horizontal = 1;
origin = (0,20);
target = (0,45);
type = Stem;
},
{
horizontal = 1;
origin = (0,29);
target = (0,36);
type = Stem;
},
{
horizontal = 1;
origin = (1,2);
target = (1,9);
type = Stem;
},
{
origin = (0,2);
target = (0,17);
type = Stem;
},
{
origin = (0,26);
target = (0,39);
type = Stem;
},
{
origin = (0,23);
target = (0,42);
type = Stem;
}
);
layerId = m01;
shapes = (
{
closed = 1;
nodes = (
(156,518,o),
(89,413,o),
(89,353,cs),
(89,232,o),
(389,-60,o),
(522,-60,cs),
(541,-60,o),
(627,-54,o),
(664,-6,cs),
(671,4,o),
(665,4,o),
(656,-1,cs),
(641,-11,o),
(619,-22,o),
(602,-22,cs),
(516,-22,o),
(169,271,o),
(169,411,cs),
(169,467,o),
(219,477,o),
(240,477,cs),
(280,477,o),
(301,443,o),
(301,412,cs),
(301,301,o),
(33,250,o),
(33,93,cs),
(33,57,o),
(47,-27,o),
(156,-27,cs),
(334,-27,o),
(521,198,o),
(521,267,c),
(431,272,l),
(431,152,o),
(292,13,o),
(196,13,cs),
(129,13,o),
(113,80,o),
(113,110,cs),
(113,231,o),
(372,323,o),
(372,439,cs),
(372,485,o),
(332,518,o),
(269,518,cs)
);
},
{
closed = 1;
nodes = (
(403,303,o),
(352,246,o),
(363,247,cs),
(577,262,ls),
(589,263,o),
(638,306,o),
(647,332,cs),
(649,337,o),
(622,318,o),
(568,316,cs),
(431,306,ls)
);
}
);
width = 700;
}
);
},
{
glyphname = at.salt;
layers = (
{
layerId = m01;
shapes = (
{
closed = 1;
nodes = (
(216,219,o),
(236,218,o),
(236,208,c),
(313,267,o),
(350,272,o),
(385,272,cs),
(459,272,o),
(514,262,o),
(514,141,cs),
(514,68,o),
(493,30,o),
(446,30,cs),
(391,30,o),
(322,126,o),
(321,177,cs),
(319,279,l),
(236,224,l),
(236,114,ls),
(236,33,o),
(224,-36,o),
(179,-36,cs),
(143,-36,o),
(120,7,o),
(120,111,cs),
(120,344,o),
(298,437,o),
(419,437,cs),
(526,437,o),
(671,374,o),
(671,165,cs),
(671,-115,o),
(411,-162,o),
(342,-195,cs),
(317,-207,o),
(337,-210,o),
(347,-210,cs),
(369,-210,o),
(761,-196,o),
(761,150,cs),
(761,346,o),
(654,477,o),
(444,477,cs),
(206,477,o),
(30,296,o),
(30,109,cs),
(30,-21,o),
(107,-90,o),
(175,-90,cs),
(253,-90,o),
(319,0,o),
(319,117,c),
(329,61,o),
(350,-8,o),
(438,-8,cs),
(501,-8,o),
(602,59,o),
(602,172,cs),
(602,307,o),
(513,322,o),
(438,322,cs),
(365,322,o),
(216,244,o),
(216,225,cs)
);
}
);
width = 800;
}
);
},
{
glyphname = ampersand.salt;
layers = (
{
hints = (
{
horizontal = 1;
origin = (0,27);
target = (0,20);
type = Stem;
},
{
origin = (0,30);
target = (0,17);
type = Stem;
},
{
origin = (0,36);
target = (0,11);
type = Stem;
},
{
horizontal = 1;
origin = (1,11);
target = (1,2);
type = Stem;
}
);
layerId = m01;
shapes = (
{
closed = 1;
nodes = (
(249,375,o),
(295,329,o),
(295,310,cs),
(295,308,o),
(294,305,o),
(290,309,cs),
(264,332,o),
(241,339,o),
(216,339,cs),
(163,339,o),
(137,308,o),
(137,281,cs),
(137,235,o),
(214,235,o),
(214,230,cs),
(214,224,o),
(124,179,o),
(124,107,cs),
(124,75,o),
(142,39,o),
(203,39,cs),
(317,39,o),
(376,163,o),
(376,203,c),
(403,210,l),
(403,153,o),
(358,-15,o),
(173,-15,cs),
(79,-15,o),
(38,28,o),
(38,80,cs),
(38,130,o),
(77,188,o),
(147,211,c),
(106,211,o),
(64,231,o),
(64,276,cs),
(64,327,o),
(116,375,o),
(183,375,cs)
);
},
{
closed = 1;
nodes = (
(250,163,o),
(282,241,o),
(336,241,cs),
(363,241,o),
(438,222,o),
(465,222,cs),
(501,222,o),
(515,253,o),
(522,253,cs),
(533,253,o),
(501,174,o),
(447,174,cs),
(420,174,o),
(345,193,o),
(318,193,cs),
(282,193,o),
(268,163,o),
(261,163,cs)
);
}
);
width = 550;
},
{
associatedMasterId = m01;
layerId = "E457FAC8-5066-43BF-B435-40BDC1B5FE00";
name = "May 29, 24 at 18:59";
shapes = (
{
closed = 1;
nodes = (
(156,518,o),
(89,413,o),
(89,353,cs),
(89,232,o),
(389,-60,o),
(522,-60,cs),
(541,-60,o),
(627,-54,o),
(664,-6,cs),
(671,4,o),
(665,4,o),
(656,-1,cs),
(641,-11,o),
(619,-22,o),
(602,-22,cs),
(516,-22,o),
(169,271,o),
(169,411,cs),
(169,467,o),
(219,477,o),
(240,477,cs),
(280,477,o),
(301,443,o),
(301,412,cs),
(301,301,o),
(33,250,o),
(33,93,cs),
(33,57,o),
(47,-27,o),
(156,-27,cs),
(334,-27,o),
(521,198,o),
(521,267,c),
(431,272,l),
(431,152,o),
(292,13,o),
(196,13,cs),
(129,13,o),
(113,80,o),
(113,110,cs),
(113,231,o),
(372,323,o),
(372,439,cs),
(372,485,o),
(332,518,o),
(269,518,cs)
);
},
{
closed = 1;
nodes = (
(403,303,o),
(352,246,o),
(363,247,cs),
(577,262,ls),
(589,263,o),
(638,306,o),
(647,332,cs),
(649,337,o),
(622,318,o),
(568,316,cs),
(431,306,ls)
);
}
);
width = 700;
}
);
},
{
glyphname = ampersand.salt.case;
layers = (
{
hints = (
{
horizontal = 1;
origin = (0,27);
target = (0,20);
type = Stem;
},
{
origin = (0,30);
target = (0,17);
type = Stem;
},
{
origin = (0,36);
target = (0,11);
type = Stem;
},
{
horizontal = 1;
origin = (1,11);
target = (1,2);
type = Stem;
}
);
layerId = m01;
shapes = (
{
closed = 1;
nodes = (
(277,486,o),
(325,439,o),
(325,415,cs),
(325,412,o),
(323,409,o),
(319,413,cs),
(290,443,o),
(259,452,o),
(227,452,cs),
(163,452,o),
(144,417,o),
(144,390,cs),
(144,336,o),
(223,322,o),
(223,315,cs),
(223,308,o),
(123,234,o),
(123,143,cs),
(123,101,o),
(144,54,o),
(212,54,cs),
(338,54,o),
(404,213,o),
(404,265,c),
(433,274,l),
(433,201,o),
(383,-15,o),
(178,-15,cs),
(74,-15,o),
(28,40,o),
(28,107,cs),
(28,171,o),
(71,262,o),
(149,292,c),
(103,292,o),
(57,318,o),
(57,371,cs),
(57,440,o),
(137,486,o),
(207,486,cs)
);
},
{
closed = 1;
nodes = (
(264,213,o),
(299,307,o),
(359,307,cs),
(389,307,o),
(472,283,o),
(502,283,cs),
(542,283,o),
(558,322,o),
(566,322,cs),
(578,322,o),
(542,228,o),
(482,228,cs),
(452,228,o),
(369,252,o),
(339,252,cs),
(299,252,o),
(284,213,o),
(276,213,cs)
);
}
);
width = 590;
},
{
associatedMasterId = m01;
layerId = "E457FAC8-5066-43BF-B435-40BDC1B5FE00";
name = "May 29, 24 at 18:59";
shapes = (
{
closed = 1;
nodes = (
(156,518,o),
(89,413,o),
(89,353,cs),
(89,232,o),
(389,-60,o),
(522,-60,cs),
(541,-60,o),
(627,-54,o),
(664,-6,cs),
(671,4,o),
(665,4,o),
(656,-1,cs),
(641,-11,o),
(619,-22,o),
(602,-22,cs),
(516,-22,o),
(169,271,o),
(169,411,cs),
(169,467,o),
(219,477,o),
(240,477,cs),
(280,477,o),
(301,443,o),
(301,412,cs),
(301,301,o),
(33,250,o),
(33,93,cs),
(33,57,o),
(47,-27,o),
(156,-27,cs),
(334,-27,o),
(521,198,o),
(521,267,c),
(431,272,l),
(431,152,o),
(292,13,o),
(196,13,cs),
(129,13,o),
(113,80,o),
(113,110,cs),
(113,231,o),
(372,323,o),
(372,439,cs),
(372,485,o),
(332,518,o),
(269,518,cs)
);
},
{
closed = 1;
nodes = (
(403,303,o),
(352,246,o),
(363,247,cs),
(577,262,ls),
(589,263,o),
(638,306,o),
(647,332,cs),
(649,337,o),
(622,318,o),
(568,316,cs),
(431,306,ls)
);
}
);
width = 700;
}
);
},
{
export = 0;
glyphname = ampersand.001;
lastChange = "2024-05-29 23:18:28 +0000";
layers = (
{
layerId = m01;
shapes = (
{
alignment = -1;
piece = {
length = 60.92025;
};
pos = (528,-78);
ref = _smart.verticalBar_noStart;
},
{
closed = 1;
nodes = (
(272,-15,o),
(440,71,o),
(440,210,cs),
(440,298,o),
(372,364,o),
(251,364,cs),
(88,364,o),
(35,244,o),
(24,214,cs),
(20,202,o),
(27,206,o),
(32,210,cs),
(48,223,o),
(65,232,o),
(94,242,cs),
(97,243,o),
(99,246,o),
(99,254,cs),
(99,287,o),
(145,332,o),
(220,332,cs),
(277,332,o),
(338,306,o),
(338,194,cs),
(338,93,o),
(288,18,o),
(214,18,cs),
(170,18,o),
(152,44,o),
(152,83,cs),
(152,202,o),
(320,313,o),
(453,313,cs),
(504,313,o),
(534,297,o),
(534,221,cs),
(534,120,l),
(621,196,l),
(621,267,ls),
(621,330,o),
(560,365,o),
(483,365,cs),
(319,365,o),
(117,207,o),
(117,65,cs),
(117,23,o),
(135,-15,o),
(190,-15,cs)
);
}
);
width = 680;
}
);
},
{
export = 0;
glyphname = ampersand.001.case;
lastChange = "2024-05-29 23:18:28 +0000";
layers = (
{
layerId = m01;
shapes = (
{
closed = 1;
nodes = (
(156,277,o),
(539,321,o),
(599,321,cs),
(648,321,o),
(695,291,o),
(695,230,cs),
(695,180,l),
(782,229,l),
(782,274,ls),
(782,333,o),
(721,373,o),
(622,373,cs),
(480,373,o),
(75,291,o),
(75,96,cs),
(75,-13,o),
(201,-37,o),
(281,-37,cs),
(460,-37,o),
(599,84,o),
(599,244,cs),
(599,389,o),
(486,490,o),
(370,490,cs),
(289,490,o),
(222,440,o),
(159,440,cs),
(132,440,o),
(113,454,o),
(113,490,cs),
(113,523,o),
(147,540,o),
(146,544,cs),
(145,548,o),
(139,545,o),
(136,544,cs),
(130,542,o),
(64,494,o),
(35,481,cs),
(32,480,o),
(30,477,o),
(30,471,cs),
(30,436,o),
(28,381,o),
(106,381,cs),
(188,381,o),
(252,447,o),
(324,447,cs),
(426,447,o),
(484,316,o),
(484,218,cs),
(484,96,o),
(395,-1,o),
(289,-1,cs),
(239,-1,o),
(156,21,o),
(156,102,cs)
);
},
{
alignment = -1;
piece = {
length = 60.92025;
};
pos = (689,-78);
ref = _smart.verticalBar_noStart;
}
);
width = 840;
}
);
},
{
glyphname = plus;
layers = (
{
layerId = m01;
shapes = (
{
closed = 1;
nodes = (
(50,235,l),
(400,235,l),
(400,318,l),
(50,318,l)
);
},
{
closed = 1;
nodes = (
(182,102,l),
(267,102,l),
(267,452,l),
(182,452,l)
);
}
);
width = 450;
}
);
unicode = 43;
},
{
glyphname = minus;
layers = (
{
layerId = m01;
shapes = (
{
closed = 1;
nodes = (
(50,235,l),
(400,235,l),
(400,318,l),
(50,318,l)
);
}
);
width = 450;
}
);
unicode = 8722;
},
{
glyphname = multiply;
layers = (
{
layerId = m01;
shapes = (
{
closed = 1;
nodes = (
(72,183,l),
(132,123,l),
(379,370,l),
(319,431,l)
);
},
{
closed = 1;
nodes = (
(131,430,l),
(71,370,l),
(318,123,l),
(379,183,l)
);
}
);
width = 450;
}
);
unicode = 215;
},
{
glyphname = plusminus;
layers = (
{
layerId = m01;
shapes = (
{
closed = 1;
nodes = (
(50,285,l),
(400,285,l),
(400,368,l),
(50,368,l)
);
},
{
closed = 1;
nodes = (
(182,182,l),
(267,182,l),
(267,502,l),
(182,502,l)
);
},
{
pos = (0,-136);
ref = minus;
}
);
width = 450;
}
);
unicode = 177;
},
{
glyphname = dotaccentcomb;
lastChange = "2024-05-28 21:41:06 +0000";
layers = (
{
anchors = (
{
name = _top;
pos = (305,413);
}
);
layerId = m01;
shapes = (
{
closed = 1;
nodes = (
(322,451,o),
(320,460,o),
(326,468,cs),
(330,475,o),
(342,472,o),
(342,489,cs),
(342,507,o),
(330,505,o),
(324,511,cs),
(318,518,o),
(322,526,o),
(305,526,cs),
(285,526,o),
(287,517,o),
(281,509,cs),
(276,502,o),
(267,504,o),
(267,489,cs),
(267,478,o),
(274,475,o),
(280,469,cs),
(288,462,o),
(291,451,o),
(305,451,cs)
);
}
);
width = 597;
}
);
unicode = 775;
},
{
glyphname = hungarumlautcomb;
layers = (
{
anchors = (
{
name = _top;
pos = (104,369);
}
);
layerId = m01;
shapes = (
{
closed = 1;
nodes = (
(60,413,o),
(147,521,o),
(147,528,cs),
(147,534,o),
(101,557,o),
(92,557,cs),
(85,557,o),
(40,430,o),
(40,418,cs),
(40,414,o),
(47,413,o),
(54,413,cs)
);
},
{
closed = 1;
nodes = (
(153,413,o),
(240,521,o),
(240,528,cs),
(240,534,o),
(194,557,o),
(185,557,cs),
(178,557,o),
(133,430,o),
(133,418,cs),
(133,414,o),
(140,413,o),
(147,413,cs)
);
}
);
width = 234;
}
);
unicode = 779;
},
{
glyphname = brevecomb;
layers = (
{
anchors = (
{
name = _top;
pos = (155,375);
}
);
layerId = m01;
shapes = (
{
closed = 1;
nodes = (
(44,565,o),
(44,560,o),
(44,551,cs),
(44,480,o),
(105,432,o),
(155,432,cs),
(205,432,o),
(265,480,o),
(265,551,cs),
(265,559,o),
(266,566,o),
(261,558,cs),
(236,523,o),
(225,480,o),
(155,480,cs),
(85,480,o),
(74,523,o),
(49,558,cs)
);
}
);
width = 309;
}
);
unicode = 774;
},
{
glyphname = macroncomb;
layers = (
{
anchors = (
{
name = _top;
pos = (151,360);
}
);
layerId = m01;
shapes = (
{
closed = 1;
nodes = (
(52,429,l),
(250,429,l),
(250,477,l),
(52,477,l)
);
}
);
width = 309;
}
);
unicode = 772;
},
{
glyphname = cedillacomb;
layers = (
{
anchors = (
{
name = _ogonek;
pos = (471,0);
}
);
layerId = m01;
shapes = (
{
closed = 1;
nodes = (
(398,-33,o),
(349,-78,o),
(349,-83,cs),
(349,-107,o),
(401,-141,o),
(401,-176,cs),
(401,-201,o),
(378,-218,o),
(350,-236,cs),
(343,-240,o),
(343,-243,o),
(353,-243,cs),
(383,-242,o),
(471,-218,o),
(471,-167,cs),
(471,-107,o),
(397,-87,o),
(397,-72,cs),
(397,-60,o),
(439,-27,o),
(471,0,c),
(430,0,l)
);
}
);
width = 531;
}
);
unicode = 807;
},
{
glyphname = ogonekcomb;
layers = (
{
anchors = (
{
name = _ogonek;
pos = (432,0);
}
);
layerId = m01;
shapes = (
{
closed = 1;
nodes = (
(386,-8,o),
(333,-44,o),
(333,-79,cs),
(333,-123,o),
(417,-156,o),
(458,-110,cs),
(465,-102,o),
(466,-97,o),
(459,-100,cs),
(442,-106,o),
(381,-103,o),
(381,-69,cs),
(381,-44,o),
(415,-8,o),
(458,6,c),
(425,6,l)
);
}
);
width = 531;
}
);
unicode = 808;
},
{
glyphname = gravecomb.case;
layers = (
{
anchors = (
{
name = _top;
pos = (107,495);
}
);
layerId = m01;
shapes = (
{
closed = 1;
nodes = (
(183,538,o),
(196,546,o),
(196,549,cs),
(196,555,o),
(90,673,o),
(83,673,cs),
(77,673,o),
(31,622,o),
(31,611,cs),
(31,606,o),
(175,538,o),
(180,538,cs)
);
}
);
width = 236;
}
);
},
{
glyphname = acutecomb.case;
layers = (
{
anchors = (
{
name = _top;
pos = (81,487);
}
);
layerId = m01;
shapes = (
{
closed = 1;
nodes = (
(56,533,o),
(203,608,o),
(203,613,cs),
(203,622,o),
(163,673,o),
(148,673,cs),
(141,673,o),
(40,549,o),
(40,542,cs),
(40,539,o),
(43,533,o),
(50,533,cs)
);
}
);
width = 234;
}
);
},
{
glyphname = circumflexcomb.case;
layers = (
{
anchors = (
{
name = _top;
pos = (155,513);
}
);
layerId = m01;
shapes = (
{
closed = 1;
nodes = (
(83,563,o),
(124,589,o),
(155,603,c),
(186,589,o),
(224,567,o),
(261,544,cs),
(268,539,o),
(271,543,o),
(265,551,cs),
(209,617,o),
(162,670,o),
(155,670,cs),
(148,670,o),
(100,617,o),
(44,551,cs),
(38,543,o),
(41,540,o),
(49,544,cs)
);
}
);
width = 309;
}
);
},
{
glyphname = ringcomb.case;
layers = (
{
anchors = (
{
name = _top;
pos = (70,495);
}
);
layerId = m01;
shapes = (
{
closed = 1;
nodes = (
(123,534,o),
(150,558,o),
(150,594,cs),
(150,629,o),
(124,654,o),
(90,654,cs),
(57,654,o),
(30,630,o),
(30,594,cs),
(30,559,o),
(56,534,o),
(90,534,cs)
);
},
{
closed = 1;
nodes = (
(74,564,o),
(63,575,o),
(63,594,cs),
(63,612,o),
(74,624,o),
(91,624,cs),
(107,624,o),
(118,612,o),
(118,594,cs),
(118,576,o),
(108,564,o),
(91,564,cs)
);
}
);
width = 180;
}
);
},
{
glyphname = tildecomb.case;
lastChange = "2024-05-29 00:10:52 +0000";
layers = (
{
anchors = (
{
name = _top;
pos = (136,495);
}
);
layerId = m01;
shapes = (
{
closed = 1;
nodes = (
(13,534,o),
(48,628,o),
(108,628,cs),
(138,628,o),
(181,594,o),
(211,594,cs),
(251,594,o),
(267,633,o),
(275,633,cs),
(287,633,o),
(251,539,o),
(191,539,cs),
(161,539,o),
(118,573,o),
(88,573,cs),
(48,573,o),
(33,534,o),
(25,534,cs)
);
}
);
width = 341;
},
{
anchors = (
{
name = _top;
pos = (136,495);
}
);
associatedMasterId = m01;
layerId = "C4D41560-C49A-420C-80C9-83BE1D2AB906";
name = "May 23, 24 at 01:38";
shapes = (
{
closed = 1;
nodes = (
(63,596,o),
(108,645,o),
(135,645,cs),
(167,645,o),
(202,579,o),
(222,579,cs),
(234,579,o),
(278,605,o),
(294,620,cs),
(301,627,o),
(302,625,o),
(300,619,cs),
(290,589,o),
(223,531,o),
(184,531,cs),
(147,531,o),
(127,584,o),
(106,584,cs),
(93,584,o),
(63,563,o),
(51,552,cs),
(39,540,o),
(37,546,o),
(46,563,cs)
);
}
);
width = 341;
}
);
},
{
export = 0;
glyphname = _part.asterisk;
layers = (
{
anchors = (
{
name = origin;
}
);
layerId = m01;
shapes = (
{
closed = 1;
nodes = (
(-14,51,o),
(-71,170,o),
(-51,170,c),
(50,170,l),
(70,170,o),
(13,51,o),
(13,0,c),
(-14,0,l)
);
}
);
width = 600;
},
{
anchors = (
{
name = origin;
}
);
associatedMasterId = m01;
layerId = "FF1F701D-BDAA-4A82-B02C-6D9448F0ECA4";
name = backup;
shapes = (
{
closed = 1;
nodes = (
(-14,51,o),
(-71,191,o),
(-51,191,c),
(50,191,l),
(70,191,o),
(13,51,o),
(13,0,c),
(-14,0,l)
);
}
);
width = 600;
}
);
},
{
export = 0;
glyphname = _part.curvedbracket;
layers = (
{
layerId = m01;
shapes = (
{
closed = 1;
nodes = (
(391,619,o),
(322,611,o),
(289,566,cs),
(242,502,o),
(268,387,o),
(255,335,cs),
(245,297,o),
(220,284,o),
(194,284,c),
(194,270,l),
(262,270,l),
(275,277,o),
(334,317,o),
(334,380,cs),
(334,440,o),
(321,527,o),
(356,573,cs),
(373,596,o),
(404,601,o),
(413,606,cs),
(422,611,o),
(449,627,o),
(391,619,cs)
);
}
);
width = 600;
}
);
},
{
export = 0;
glyphname = _part.greater;
layers = (
{
layerId = m01;
shapes = (
{
closed = 1;
nodes = (
(269,274,l),
(370,274,l),
(370,296,l),
(46,480,l),
(46,400,l)
);
}
);
width = 390;
}
);
},
{
export = 0;
glyphname = _part.guil;
layers = (
{
layerId = m01;
shapes = (
{
closed = 1;
nodes = (
(372,442,o),
(374,445,o),
(358,445,cs),
(313,445,o),
(185,344,o),
(130,304,c),
(229,304,l),
(288,344,o),
(334,398,o),
(361,429,cs)
);
}
);
width = 600;
}
);
},
{
export = 0;
glyphname = _part.leftArc;
layers = (
{
layerId = m01;
shapes = (
{
closed = 1;
nodes = (
(29,249,o),
(25,232,o),
(44,249,cs),
(127,323,o),
(252,328,o),
(252,217,cs),
(252,176,l),
(339,225,l),
(339,265,ls),
(339,339,o),
(147,416,o),
(36,258,cs)
);
}
);
width = 636;
}
);
},
{
export = 0;
glyphname = _part.leftStroke;
layers = (
{
layerId = m01;
shapes = (
{
closed = 1;
nodes = (
(61,74,cs),
(37,62,o),
(34,53,o),
(52,56,cs),
(124,64,o),
(208,97,o),
(272,154,cs),
(313,191,o),
(333,246,o),
(303,239,cs),
(281,234,o),
(244,223,o),
(218,216,cs),
(195,210,o),
(218,201,o),
(218,196,cs),
(218,173,o),
(141,113,o)
);
}
);
width = 438;
}
);
},
{
export = 0;
glyphname = _part.paren;
layers = (
{
layerId = m01;
shapes = (
{
closed = 1;
nodes = (
(222,480,o),
(155,386,o),
(155,177,c),
(74,177,l),
(74,403,o),
(177,497,o),
(239,534,cs),
(254,543,o),
(250,529,o),
(245,521,cs)
);
}
);
width = 286;
}
);
},
{
export = 0;
glyphname = _smart.horizontalBar;
layers = (
{
anchors = (
{
name = length;
pos = (555,212);
}
);
hints = (
{
name = _corner.a;
origin = (0,1);
type = Corner;
},
{
name = _corner.a;
origin = (0,3);
type = Corner;
}
);
layerId = m01;
partSelection = {
leftSerif = 1;
rightSerif = 1;
};
shapes = (
{
closed = 1;
nodes = (
(294,271,l),
(237,215,l),
(554,215,l),
(611,271,l)
);
}
);
width = 650;
},
{
anchors = (
{
name = length;
pos = (284,215);
}
);
associatedMasterId = m01;
hints = (
{
name = _corner.a;
origin = (0,1);
type = Corner;
},
{
name = _corner.a;
origin = (0,3);
type = Corner;
}
);
layerId = "6F22A16B-9498-4A4B-929E-AD2ABF3D04F3";
name = "0";
partSelection = {
length = 1;
};
shapes = (
{
closed = 1;
nodes = (
(294,271,l),
(237,215,l),
(284,215,l),
(341,271,l)
);
}
);
width = 650;
},
{
anchors = (
{
name = length;
pos = (555,212);
}
);
associatedMasterId = m01;
hints = (
{
name = _corner.a;
origin = (0,1);
type = Corner;
},
{
name = _corner.a;
origin = (0,3);
type = Corner;
}
);
layerId = "598DACA0-666E-48A7-99EF-A1A6D0E6021B";
name = "100";
partSelection = {
length = 2;
};
shapes = (
{
closed = 1;
nodes = (
(294,271,l),
(237,215,l),
(554,215,l),
(611,271,l)
);
}
);
width = 650;
},
{
anchors = (
{
name = length;
pos = (555,212);
}
);
associatedMasterId = m01;
hints = (
{
name = _corner.a;
origin = (0,1);
scale = (0.01,0);
type = Corner;
},
{
name = _corner.a;
origin = (0,3);
type = Corner;
}
);
layerId = "B086BB44-8CF9-46A4-B512-A892A05DE0A4";
name = 0leftSerif;
partSelection = {
leftSerif = 2;
};
shapes = (
{
closed = 1;
nodes = (
(294,271,l),
(237,215,l),
(554,215,l),
(611,271,l)
);
}
);
width = 650;
},
{
anchors = (
{
name = length;
pos = (555,212);
}
);
associatedMasterId = m01;
hints = (
{
name = _corner.a;
origin = (0,1);
type = Corner;
},
{
name = _corner.a;
origin = (0,3);
scale = (0.01,0);
type = Corner;
}
);
layerId = "8601D182-B841-46C1-BA13-876C2912D863";
name = 0rightSerif;
partSelection = {
rightSerif = 2;
};
shapes = (
{
closed = 1;
nodes = (
(294,271,l),
(237,215,l),
(554,215,l),
(611,271,l)
);
}
);
width = 650;
},
{
anchors = (
{
name = length;
pos = (284,215);
}
);
associatedMasterId = m01;
hints = (
{
name = _corner.a;
origin = (0,1);
type = Corner;
},
{
name = _corner.a;
origin = (0,3);
type = Corner;
}
);
layerId = "EA2F34AD-644D-4AD1-BA02-CC64C1C0E4C5";
name = "0";
partSelection = {
length = 1;
};
shapes = (
{
closed = 1;
nodes = (
(294,271,l),
(237,215,l),
(284,215,l),
(341,271,l)
);
}
);
width = 650;
},
{
anchors = (
{
name = length;
pos = (555,212);
}
);
associatedMasterId = m01;
hints = (
{
name = _corner.a;
origin = (0,1);
type = Corner;
},
{
name = _corner.a;
origin = (0,3);
type = Corner;
}
);
layerId = "FC1D0535-48E1-455A-A3D4-C7B081FF664A";
name = "100";
partSelection = {
length = 2;
};
shapes = (
{
closed = 1;
nodes = (
(294,271,l),
(237,215,l),
(554,215,l),
(611,271,l)
);
}
);
width = 650;
},
{
anchors = (
{
name = length;
pos = (555,212);
}
);
associatedMasterId = m01;
hints = (
{
name = _corner.a;
origin = (0,1);
scale = (0.01,0);
type = Corner;
},
{
name = _corner.a;
origin = (0,3);
type = Corner;
}
);
layerId = "7A0E4509-1A39-4F62-9FDE-09670FBBC93F";
name = 0leftSerif;
partSelection = {
leftSerif = 2;
};
shapes = (
{
closed = 1;
nodes = (
(294,271,l),
(237,215,l),
(554,215,l),
(611,271,l)
);
}
);
width = 650;
},
{
anchors = (
{
name = length;
pos = (555,212);
}
);
associatedMasterId = m01;
hints = (
{
name = _corner.a;
origin = (0,1);
type = Corner;
},
{
name = _corner.a;
origin = (0,3);
scale = (0.01,0);
type = Corner;
}
);
layerId = "715E5462-2077-4E8B-8236-9BCAE843C462";
name = 0rightSerif;
partSelection = {
rightSerif = 2;
};
shapes = (
{
closed = 1;
nodes = (
(294,271,l),
(237,215,l),
(554,215,l),
(611,271,l)
);
}
);
width = 650;
}
);
partsSettings = (
{
bottomName = Low;
bottomValue = 0;
name = length;
topName = High;
topValue = 100;
},
{
bottomName = Low;
bottomValue = 0;
name = leftSerif;
topName = High;
topValue = 100;
},
{
bottomName = Low;
bottomValue = 0;
name = rightSerif;
topName = High;
topValue = 100;
}
);
},
{
export = 0;
glyphname = _smart.verticalBar;
layers = (
{
anchors = (
{
name = height_l;
pos = (95,-48);
},
{
name = noStartSerif;
pos = (21,438);
}
);
hints = (
{
name = _corner.a;
origin = (0,0);
scale = (0.3,0.5);
type = Corner;
}
);
layerId = m01;
shapes = (
{
closed = 1;
nodes = (
(95,-48,l),
(182,0,l),
(182,460,l),
(182,485,o),
(168,514,o),
(146,501,cs),
(100,474,o),
(67,451,o),
(21,432,cs),
(17,430,o),
(17,425,o),
(26,425,cs),
(35,425,o),
(53,424,o),
(63,422,cs),
(88,417,o),
(95,407,o),
(95,383,c)
);
}
);
width = 200;
},
{
anchors = (
{
name = height_l;
pos = (95,359);
},
{
name = noStartSerif;
pos = (21,438);
}
);
associatedMasterId = m01;
hints = (
{
name = _corner.a;
origin = (0,0);
scale = (0.3,0.5);
type = Corner;
}
);
layerId = "C019F2CA-0CD4-421F-8E13-B05B362A3BC9";
name = length0;
partSelection = {
height_l = 1;
};
shapes = (
{
closed = 1;
nodes = (
(95,359,l),
(182,407,l),
(182,460,l),
(182,485,o),
(168,514,o),
(146,501,cs),
(100,474,o),
(67,451,o),
(21,432,cs),
(17,430,o),
(17,425,o),
(26,425,cs),
(35,425,o),
(53,424,o),
(63,422,cs),
(88,417,o),
(95,407,o),
(95,383,c)
);
}
);
width = 200;
},
{
anchors = (
{
name = height_l;
pos = (95,-248);
},
{
name = noStartSerif;
pos = (21,438);
}
);
associatedMasterId = m01;
hints = (
{
name = _corner.a;
origin = (0,0);
scale = (0.3,0.5);
type = Corner;
}
);
layerId = "CAD9814E-194E-48AC-94FA-6347377F441F";
name = length100;
partSelection = {
height_l = 2;
};
shapes = (
{
closed = 1;
nodes = (
(95,-248,l),
(182,-200,l),
(182,460,l),
(182,485,o),
(168,514,o),
(146,501,cs),
(100,474,o),
(67,451,o),
(21,432,cs),
(17,430,o),
(17,425,o),
(26,425,cs),
(35,425,o),
(53,424,o),
(63,422,cs),
(88,417,o),
(95,407,o),
(95,383,c)
);
}
);
width = 200;
},
{
anchors = (
{
name = height_l;
pos = (95,312);
},
{
name = noStartSerif;
pos = (95,438);
}
);
associatedMasterId = m01;
guides = (
{
angle = 23.0394;
pos = (95,383);
}
);
hints = (
{
name = _corner.a;
origin = (0,0);
scale = (0.3,0.5);
type = Corner;
}
);
layerId = "719D0995-C596-459F-A2F2-574BAE30F3E1";
name = noStartSerif0;
partSelection = {
noStartSerif = 1;
};
shapes = (
{
closed = 1;
nodes = (
(95,312,l),
(182,360,l),
(182,420,l),
(177,418,o),
(173,416,o),
(168,414,cs),
(162,411,o),
(155,409,o),
(149,406,cs),
(143,403,o),
(137,401,o),
(131,398,cs),
(124,395,o),
(118,392,o),
(111,389,cs),
(106,387,o),
(100,385,o),
(95,383,c)
);
}
);
width = 200;
},
{
anchors = (
{
name = height_l;
pos = (95,-48);
},
{
name = noStartSerif;
pos = (95,438);
}
);
associatedMasterId = m01;
guides = (
{
angle = 23.0394;
pos = (95,383);
}
);
hints = (
{
name = _corner.a;
origin = (0,0);
scale = (0.3,0.5);
type = Corner;
}
);
layerId = "C4E8B2B1-134B-4472-B49A-35C89B38CCA7";
name = noStartSerif100;
partSelection = {
noStartSerif = 2;
};
shapes = (
{
closed = 1;
nodes = (
(95,-48,l),
(182,0,l),
(182,420,l),
(177,418,o),
(173,416,o),
(168,414,cs),
(162,411,o),
(155,409,o),
(149,406,cs),
(143,403,o),
(137,401,o),
(131,398,cs),
(124,395,o),
(118,392,o),
(111,389,cs),
(106,387,o),
(100,385,o),
(95,383,c)
);
}
);
width = 200;
},
{
anchors = (
{
name = height_l;
pos = (95,359);
},
{
name = noStartSerif;
pos = (21,438);
}
);
associatedMasterId = m01;
hints = (
{
name = _corner.a;
origin = (0,0);
scale = (0.3,0.5);
type = Corner;
}
);
layerId = "1FB8D0D6-EECE-47BC-8E38-EFDD53735551";
name = length0;
partSelection = {
height_l = 1;
};
shapes = (
{
closed = 1;
nodes = (
(95,359,l),
(182,407,l),
(182,460,l),
(182,485,o),
(168,514,o),
(146,501,cs),
(100,474,o),
(67,451,o),
(21,432,cs),
(17,430,o),
(17,425,o),
(26,425,cs),
(35,425,o),
(53,424,o),
(63,422,cs),
(88,417,o),
(95,407,o),
(95,383,c)
);
}
);
width = 200;
},
{
anchors = (
{
name = height_l;
pos = (95,-248);
},
{
name = noStartSerif;
pos = (21,438);
}
);
associatedMasterId = m01;
hints = (
{
name = _corner.a;
origin = (0,0);
scale = (0.3,0.5);
type = Corner;
}
);
layerId = "DFD20C49-E269-41F3-A1C4-A8084A744DB3";
name = length100;
partSelection = {
height_l = 2;
};
shapes = (
{
closed = 1;
nodes = (
(95,-248,l),
(182,-200,l),
(182,460,l),
(182,485,o),
(168,514,o),
(146,501,cs),
(100,474,o),
(67,451,o),
(21,432,cs),
(17,430,o),
(17,425,o),
(26,425,cs),
(35,425,o),
(53,424,o),
(63,422,cs),
(88,417,o),
(95,407,o),
(95,383,c)
);
}
);
width = 200;
},
{
anchors = (
{
name = height_l;
pos = (95,312);
},
{
name = noStartSerif;
pos = (95,438);
}
);
associatedMasterId = m01;
guides = (
{
angle = 23.0394;
pos = (95,383);
}
);
hints = (
{
name = _corner.a;
origin = (0,0);
scale = (0.3,0.5);
type = Corner;
}
);
layerId = "C56CDDCB-359F-4763-A100-D34FCE13F8CD";
name = noStartSerif0;
partSelection = {
noStartSerif = 1;
};
shapes = (
{
closed = 1;
nodes = (
(95,312,l),
(182,360,l),
(182,420,l),
(177,418,o),
(173,416,o),
(168,414,cs),
(162,411,o),
(155,409,o),
(149,406,cs),
(143,403,o),
(137,401,o),
(131,398,cs),
(124,395,o),
(118,392,o),
(111,389,cs),
(106,387,o),
(100,385,o),
(95,383,c)
);
}
);
width = 200;
},
{
anchors = (
{
name = height_l;
pos = (95,-48);
},
{
name = noStartSerif;
pos = (95,438);
}
);
associatedMasterId = m01;
guides = (
{
angle = 23.0394;
pos = (95,383);
}
);
hints = (
{
name = _corner.a;
origin = (0,0);
scale = (0.3,0.5);
type = Corner;
}
);
layerId = "CDA43797-966D-41BD-8657-52D97D9211C0";
name = noStartSerif100;
partSelection = {
noStartSerif = 2;
};
shapes = (
{
closed = 1;
nodes = (
(95,-48,l),
(182,0,l),
(182,420,l),
(177,418,o),
(173,416,o),
(168,414,cs),
(162,411,o),
(155,409,o),
(149,406,cs),
(143,403,o),
(137,401,o),
(131,398,cs),
(124,395,o),
(118,392,o),
(111,389,cs),
(106,387,o),
(100,385,o),
(95,383,c)
);
}
);
width = 200;
}
);
partsSettings = (
{
bottomName = Low;
bottomValue = 0;
name = height_l;
topName = High;
topValue = 100;
},
{
bottomName = Low;
bottomValue = 0;
name = noStartSerif;
topName = High;
topValue = 100;
}
);
},
{
export = 0;
glyphname = _smart.verticalBar_noStart;
layers = (
{
anchors = (
{
name = flatEnd;
pos = (93,138);
},
{
name = length;
pos = (6,90);
}
);
hints = (
{
name = _corner.a;
origin = (0,0);
scale = (0.3,0.5);
type = Corner;
}
);
layerId = m01;
partSelection = {
flatEnd = 1;
length = 1;
};
shapes = (
{
closed = 1;
nodes = (
(6,90,l),
(93,138,l),
(93,338,l),
(6,299,l)
);
}
);
width = 100;
},
{
anchors = (
{
name = flatEnd;
pos = (93,90);
},
{
name = length;
pos = (6,90);
}
);
associatedMasterId = m01;
hints = (
{
name = _corner.a;
origin = (0,0);
scale = (0.01,0);
type = Corner;
}
);
layerId = "3D29A670-BA16-4C38-8A74-58544326B077";
name = flatEnd;
partSelection = {
flatEnd = 2;
};
shapes = (
{
closed = 1;
nodes = (
(6,90,l),
(93,90,l),
(93,338,l),
(6,299,l)
);
}
);
width = 100;
},
{
anchors = (
{
name = flatEnd;
pos = (93,-200);
},
{
name = length;
pos = (6,-248);
}
);
associatedMasterId = m01;
hints = (
{
name = _corner.a;
origin = (0,0);
scale = (0.3,0.5);
type = Corner;
}
);
layerId = "EAED4E05-4474-4648-A14B-4F0A82500420";
name = long;
partSelection = {
flatEnd = 1;
length = 2;
};
shapes = (
{
closed = 1;
nodes = (
(6,-248,l),
(93,-200,l),
(93,338,l),
(6,299,l)
);
}
);
width = 100;
},
{
anchors = (
{
name = flatEnd;
pos = (93,-248);
},
{
name = length;
pos = (6,-248);
}
);
associatedMasterId = m01;
hints = (
{
name = _corner.a;
origin = (0,0);
scale = (0.01,0);
type = Corner;
}
);
layerId = "687BB438-9478-4F86-9F0C-8AFF249B1FBE";
name = long_flatEnd;
partSelection = {
flatEnd = 2;
length = 2;
};
shapes = (
{
closed = 1;
nodes = (
(6,-248,l),
(93,-248,l),
(93,338,l),
(6,299,l)
);
}
);
width = 100;
},
{
anchors = (
{
name = flatEnd;
pos = (93,90);
},
{
name = length;
pos = (6,90);
}
);
associatedMasterId = m01;
hints = (
{
name = _corner.a;
origin = (0,0);
scale = (0.01,0);
type = Corner;
}
);
layerId = "CC2C5ADF-7957-4F74-8C13-7BA68537EE75";
name = flatEnd;
partSelection = {
flatEnd = 2;
};
shapes = (
{
closed = 1;
nodes = (
(6,90,l),
(93,90,l),
(93,338,l),
(6,299,l)
);
}
);
width = 100;
},
{
anchors = (
{
name = flatEnd;
pos = (93,-200);
},
{
name = length;
pos = (6,-248);
}
);
associatedMasterId = m01;
hints = (
{
name = _corner.a;
origin = (0,0);
scale = (0.3,0.5);
type = Corner;
}
);
layerId = "E9AB0048-7717-4A22-AA11-D7DA1C4B8BA5";
name = long;
partSelection = {
flatEnd = 1;
length = 2;
};
shapes = (
{
closed = 1;
nodes = (
(6,-248,l),
(93,-200,l),
(93,338,l),
(6,299,l)
);
}
);
width = 100;
},
{
anchors = (
{
name = flatEnd;
pos = (93,-248);
},
{
name = length;
pos = (6,-248);
}
);
associatedMasterId = m01;
hints = (
{
name = _corner.a;
origin = (0,0);
scale = (0.01,0);
type = Corner;
}
);
layerId = "9FB609B5-BD03-4A5D-A86E-192C1FBFA34A";
name = long_flatEnd;
partSelection = {
flatEnd = 2;
length = 2;
};
shapes = (
{
closed = 1;
nodes = (
(6,-248,l),
(93,-248,l),
(93,338,l),
(6,299,l)
);
}
);
width = 100;
}
);
partsSettings = (
{
bottomName = Low;
bottomValue = 0;
name = flatEnd;
topName = High;
topValue = 100;
},
{
bottomName = Low;
bottomValue = 0;
name = length;
topName = High;
topValue = 100;
}
);
},
{
export = 0;
glyphname = _part.leftArc.osf;
layers = (
{
layerId = m01;
shapes = (
{
closed = 1;
nodes = (
(49,263,o),
(45,247,o),
(64,263,cs),
(129,317,o),
(252,342,o),
(252,231,cs),
(252,190,l),
(339,239,l),
(339,279,ls),
(339,348,o),
(182,430,o),
(56,272,cs)
);
}
);
width = 636;
}
);
},
{
export = 0;
glyphname = _part.leftStroke.osf;
layers = (
{
layerId = m01;
shapes = (
{
closed = 1;
nodes = (
(94,93,cs),
(76,84,o),
(74,78,o),
(87,80,cs),
(140,86,o),
(220,110,o),
(263,152,cs),
(292,181,o),
(306,220,o),
(284,215,cs),
(254,208,o),
(234,205,o),
(201,198,cs),
(184,194,o),
(201,187,o),
(201,183,cs),
(201,166,o),
(153,122,o)
);
}
);
width = 438;
}
);
},
{
export = 0;
glyphname = _smart.verticalBar.noEndSerif;
layers = (
{
anchors = (
{
name = height_l;
pos = (95,-48);
},
{
name = noStartSerif;
pos = (21,438);
}
);
layerId = m01;
shapes = (
{
closed = 1;
nodes = (
(95,-48,l),
(182,0,l),
(182,460,l),
(182,485,o),
(168,514,o),
(146,501,cs),
(100,474,o),
(67,451,o),
(21,432,cs),
(17,430,o),
(17,425,o),
(26,425,cs),
(35,425,o),
(53,424,o),
(63,422,cs),
(88,417,o),
(95,407,o),
(95,383,c)
);
}
);
width = 200;
},
{
anchors = (
{
name = height_l;
pos = (95,359);
},
{
name = noStartSerif;
pos = (21,438);
}
);
associatedMasterId = m01;
layerId = "8DE150B5-5DDD-4622-A075-486A549D13C0";
name = length0;
partSelection = {
height_l = 1;
};
shapes = (
{
closed = 1;
nodes = (
(95,359,l),
(182,407,l),
(182,460,l),
(182,485,o),
(168,514,o),
(146,501,cs),
(100,474,o),
(67,451,o),
(21,432,cs),
(17,430,o),
(17,425,o),
(26,425,cs),
(35,425,o),
(53,424,o),
(63,422,cs),
(88,417,o),
(95,407,o),
(95,383,c)
);
}
);
width = 200;
},
{
anchors = (
{
name = height_l;
pos = (95,-248);
},
{
name = noStartSerif;
pos = (21,438);
}
);
associatedMasterId = m01;
layerId = "24A6FB25-C2B2-475D-8B87-1AAF9C5829F5";
name = length100;
partSelection = {
height_l = 2;
};
shapes = (
{
closed = 1;
nodes = (
(95,-248,l),
(182,-200,l),
(182,460,l),
(182,485,o),
(168,514,o),
(146,501,cs),
(100,474,o),
(67,451,o),
(21,432,cs),
(17,430,o),
(17,425,o),
(26,425,cs),
(35,425,o),
(53,424,o),
(63,422,cs),
(88,417,o),
(95,407,o),
(95,383,c)
);
}
);
width = 200;
},
{
anchors = (
{
name = height_l;
pos = (95,312);
},
{
name = noStartSerif;
pos = (95,438);
}
);
associatedMasterId = m01;
guides = (
{
angle = 23.0394;
pos = (95,383);
}
);
layerId = "8902554F-4E39-4213-A91C-99E8D46422D4";
name = noStartSerif0;
partSelection = {
noStartSerif = 1;
};
shapes = (
{
closed = 1;
nodes = (
(95,312,l),
(182,360,l),
(182,420,l),
(177,418,o),
(173,416,o),
(168,414,cs),
(162,411,o),
(155,409,o),
(149,406,cs),
(143,403,o),
(137,401,o),
(131,398,cs),
(124,395,o),
(118,392,o),
(111,389,cs),
(106,387,o),
(100,385,o),
(95,383,c)
);
}
);
width = 200;
},
{
anchors = (
{
name = height_l;
pos = (95,-48);
},
{
name = noStartSerif;
pos = (95,438);
}
);
associatedMasterId = m01;
guides = (
{
angle = 23.0394;
pos = (95,383);
}
);
layerId = "EE992419-5599-4C81-AC15-946B32385B5E";
name = noStartSerif100;
partSelection = {
noStartSerif = 2;
};
shapes = (
{
closed = 1;
nodes = (
(95,-48,l),
(182,0,l),
(182,420,l),
(177,418,o),
(173,416,o),
(168,414,cs),
(162,411,o),
(155,409,o),
(149,406,cs),
(143,403,o),
(137,401,o),
(131,398,cs),
(124,395,o),
(118,392,o),
(111,389,cs),
(106,387,o),
(100,385,o),
(95,383,c)
);
}
);
width = 200;
},
{
anchors = (
{
name = height_l;
pos = (95,359);
},
{
name = noStartSerif;
pos = (21,438);
}
);
associatedMasterId = m01;
layerId = "C0AF604E-AA30-4916-8343-2C88A42DE428";
name = length0;
partSelection = {
height_l = 1;
};
shapes = (
{
closed = 1;
nodes = (
(95,359,l),
(182,407,l),
(182,460,l),
(182,485,o),
(168,514,o),
(146,501,cs),
(100,474,o),
(67,451,o),
(21,432,cs),
(17,430,o),
(17,425,o),
(26,425,cs),
(35,425,o),
(53,424,o),
(63,422,cs),
(88,417,o),
(95,407,o),
(95,383,c)
);
}
);
width = 200;
},
{
anchors = (
{
name = height_l;
pos = (95,-248);
},
{
name = noStartSerif;
pos = (21,438);
}
);
associatedMasterId = m01;
layerId = "1DEAFF99-A7A1-4489-A5C5-1E2AABB14922";
name = length100;
partSelection = {
height_l = 2;
};
shapes = (
{
closed = 1;
nodes = (
(95,-248,l),
(182,-200,l),
(182,460,l),
(182,485,o),
(168,514,o),
(146,501,cs),
(100,474,o),
(67,451,o),
(21,432,cs),
(17,430,o),
(17,425,o),
(26,425,cs),
(35,425,o),
(53,424,o),
(63,422,cs),
(88,417,o),
(95,407,o),
(95,383,c)
);
}
);
width = 200;
},
{
anchors = (
{
name = height_l;
pos = (95,312);
},
{
name = noStartSerif;
pos = (95,438);
}
);
associatedMasterId = m01;
guides = (
{
angle = 23.0394;
pos = (95,383);
}
);
layerId = "4D1AC63F-F364-4574-8D4E-8716B4D3F253";
name = noStartSerif0;
partSelection = {
noStartSerif = 1;
};
shapes = (
{
closed = 1;
nodes = (
(95,312,l),
(182,360,l),
(182,420,l),
(177,418,o),
(173,416,o),
(168,414,cs),
(162,411,o),
(155,409,o),
(149,406,cs),
(143,403,o),
(137,401,o),
(131,398,cs),
(124,395,o),
(118,392,o),
(111,389,cs),
(106,387,o),
(100,385,o),
(95,383,c)
);
}
);
width = 200;
},
{
anchors = (
{
name = height_l;
pos = (95,-48);
},
{
name = noStartSerif;
pos = (95,438);
}
);
associatedMasterId = m01;
guides = (
{
angle = 23.0394;
pos = (95,383);
}
);
layerId = "C099C110-81B6-4033-9F25-6A8BFD2D5E86";
name = noStartSerif100;
partSelection = {
noStartSerif = 2;
};
shapes = (
{
closed = 1;
nodes = (
(95,-48,l),
(182,0,l),
(182,420,l),
(177,418,o),
(173,416,o),
(168,414,cs),
(162,411,o),
(155,409,o),
(149,406,cs),
(143,403,o),
(137,401,o),
(131,398,cs),
(124,395,o),
(118,392,o),
(111,389,cs),
(106,387,o),
(100,385,o),
(95,383,c)
);
}
);
width = 200;
}
);
partsSettings = (
{
bottomName = Low;
bottomValue = 0;
name = height_l;
topName = High;
topValue = 100;
},
{
bottomName = Low;
bottomValue = 0;
name = noStartSerif;
topName = High;
topValue = 100;
}
);
},
{
export = 0;
glyphname = _smart.verticalBar_noStart.noSerif;
layers = (
{
anchors = (
{
name = flatEnd;
pos = (93,138);
},
{
name = length;
pos = (6,90);
}
);
layerId = m01;
partSelection = {
flatEnd = 1;
length = 1;
};
shapes = (
{
closed = 1;
nodes = (
(6,90,l),
(93,138,l),
(93,338,l),
(6,299,l)
);
}
);
width = 100;
},
{
anchors = (
{
name = flatEnd;
pos = (93,90);
},
{
name = length;
pos = (6,90);
}
);
associatedMasterId = m01;
layerId = "D866CCE1-C690-4FB2-BBAB-6821A01A6370";
name = flatEnd;
partSelection = {
flatEnd = 2;
};
shapes = (
{
closed = 1;
nodes = (
(6,90,l),
(93,90,l),
(93,338,l),
(6,299,l)
);
}
);
width = 100;
},
{
anchors = (
{
name = flatEnd;
pos = (93,-200);
},
{
name = length;
pos = (6,-248);
}
);
associatedMasterId = m01;
layerId = "058FEA1F-7695-44AD-9BDF-FA606A4B2B00";
name = long;
partSelection = {
flatEnd = 1;
length = 2;
};
shapes = (
{
closed = 1;
nodes = (
(6,-248,l),
(93,-200,l),
(93,338,l),
(6,299,l)
);
}
);
width = 100;
},
{
anchors = (
{
name = flatEnd;
pos = (93,-248);
},
{
name = length;
pos = (6,-248);
}
);
associatedMasterId = m01;
layerId = "F0A481C5-823E-48DE-8247-9DF884DF255F";
name = long_flatEnd;
partSelection = {
flatEnd = 2;
length = 2;
};
shapes = (
{
closed = 1;
nodes = (
(6,-248,l),
(93,-248,l),
(93,338,l),
(6,299,l)
);
}
);
width = 100;
},
{
anchors = (
{
name = flatEnd;
pos = (93,90);
},
{
name = length;
pos = (6,90);
}
);
associatedMasterId = m01;
layerId = "5B69AB97-3ED0-4B96-AD20-3D33FE4E851E";
name = flatEnd;
partSelection = {
flatEnd = 2;
};
shapes = (
{
closed = 1;
nodes = (
(6,90,l),
(93,90,l),
(93,338,l),
(6,299,l)
);
}
);
width = 100;
},
{
anchors = (
{
name = flatEnd;
pos = (93,-200);
},
{
name = length;
pos = (6,-248);
}
);
associatedMasterId = m01;
layerId = "4D9C0463-ADE1-4211-8C9B-F422E0C53A91";
name = long;
partSelection = {
flatEnd = 1;
length = 2;
};
shapes = (
{
closed = 1;
nodes = (
(6,-248,l),
(93,-200,l),
(93,338,l),
(6,299,l)
);
}
);
width = 100;
},
{
anchors = (
{
name = flatEnd;
pos = (93,-248);
},
{
name = length;
pos = (6,-248);
}
);
associatedMasterId = m01;
layerId = "DBD74B13-0D12-4051-AF35-3D79CE0A43C7";
name = long_flatEnd;
partSelection = {
flatEnd = 2;
length = 2;
};
shapes = (
{
closed = 1;
nodes = (
(6,-248,l),
(93,-248,l),
(93,338,l),
(6,299,l)
);
}
);
width = 100;
}
);
partsSettings = (
{
bottomName = Low;
bottomValue = 0;
name = flatEnd;
topName = High;
topValue = 100;
},
{
bottomName = Low;
bottomValue = 0;
name = length;
topName = High;
topValue = 100;
}
);
},
{
export = 0;
glyphname = _corner.a;
lastChange = "2023-10-20 19:47:34 +0000";
layers = (
{
anchors = (
{
name = left;
pos = (47,54);
},
{
name = origin;
pos = (47,0);
}
);
layerId = m01;
shapes = (
{
closed = 0;
nodes = (
(47,54,l),
(47,35,o),
(-5,3,o),
(-12,-2,cs),
(-23,-10,o),
(-19,-11,o),
(15,-5,cs),
(28,-3,o),
(108,0,o),
(120,0,c)
);
}
);
width = 40;
}
);
},
{
glyphname = gil;
lastChange = "2024-05-29 20:54:53 +0000";
layers = (
{
layerId = m01;
shapes = (
{
closed = 1;
nodes = (
(88,350,o),
(97,341,cs),
(100,338,o),
(131,311,o),
(134,314,cs),
(170,360,o),
(339,338,o),
(339,164,cs),
(339,70,o),
(273,37,o),
(188,8,cs),
(178,5,o),
(176,-3,o),
(188,-3,cs),
(290,-3,o),
(432,48,o),
(432,186,cs),
(432,275,o),
(355,368,o),
(219,368,cs),
(107,368,o)
);
},
{
piece = {
leftSerif = 0;
length = 59.29834;
rightSerif = 0;
};
pos = (-205,-65);
ref = _smart.horizontalBar;
},
{
piece = {
length = 27.4636;
};
pos = (111,-141);
ref = _smart.verticalBar_noStart;
}
